<svg xmlns="http://www.w3.org/2000/svg" xmlns:xlink="http://www.w3.org/1999/xlink" viewBox="0 0 540.44 266.5"><defs><style>.cls-1{isolation:isolate;}.cls-2{fill:#00022f;}.cls-10,.cls-100,.cls-101,.cls-102,.cls-103,.cls-104,.cls-105,.cls-106,.cls-107,.cls-108,.cls-109,.cls-11,.cls-110,.cls-111,.cls-112,.cls-113,.cls-114,.cls-115,.cls-116,.cls-117,.cls-118,.cls-119,.cls-12,.cls-120,.cls-121,.cls-122,.cls-123,.cls-124,.cls-125,.cls-126,.cls-127,.cls-128,.cls-129,.cls-13,.cls-130,.cls-131,.cls-132,.cls-133,.cls-134,.cls-135,.cls-136,.cls-137,.cls-138,.cls-139,.cls-14,.cls-140,.cls-141,.cls-142,.cls-143,.cls-144,.cls-145,.cls-146,.cls-147,.cls-148,.cls-149,.cls-15,.cls-150,.cls-151,.cls-152,.cls-153,.cls-154,.cls-155,.cls-156,.cls-157,.cls-158,.cls-159,.cls-16,.cls-160,.cls-161,.cls-162,.cls-163,.cls-164,.cls-165,.cls-166,.cls-167,.cls-168,.cls-169,.cls-17,.cls-170,.cls-171,.cls-172,.cls-173,.cls-174,.cls-175,.cls-176,.cls-177,.cls-178,.cls-179,.cls-18,.cls-180,.cls-181,.cls-182,.cls-183,.cls-184,.cls-185,.cls-186,.cls-187,.cls-188,.cls-189,.cls-19,.cls-20,.cls-21,.cls-22,.cls-23,.cls-24,.cls-25,.cls-26,.cls-27,.cls-28,.cls-29,.cls-3,.cls-30,.cls-31,.cls-32,.cls-33,.cls-34,.cls-35,.cls-36,.cls-37,.cls-38,.cls-39,.cls-4,.cls-40,.cls-41,.cls-42,.cls-43,.cls-44,.cls-45,.cls-46,.cls-47,.cls-48,.cls-49,.cls-5,.cls-50,.cls-51,.cls-52,.cls-53,.cls-54,.cls-55,.cls-56,.cls-57,.cls-58,.cls-59,.cls-6,.cls-60,.cls-61,.cls-62,.cls-63,.cls-64,.cls-65,.cls-66,.cls-67,.cls-68,.cls-69,.cls-7,.cls-70,.cls-71,.cls-72,.cls-73,.cls-74,.cls-75,.cls-76,.cls-77,.cls-78,.cls-79,.cls-8,.cls-80,.cls-81,.cls-82,.cls-83,.cls-84,.cls-85,.cls-86,.cls-87,.cls-88,.cls-89,.cls-9,.cls-90,.cls-91,.cls-92,.cls-93,.cls-94,.cls-98,.cls-99{fill:#fb2541;}.cls-3{opacity:0.5;}.cls-4{opacity:0.28;}.cls-5{opacity:0.06;}.cls-6{opacity:0.2;}.cls-7{opacity:0.2;}.cls-8{opacity:0.47;}.cls-9{opacity:0.37;}.cls-10{opacity:0.03;}.cls-11{opacity:0.07;}.cls-12{opacity:0.17;}.cls-13{opacity:0.09;}.cls-14{opacity:0.19;}.cls-15{opacity:0.01;}.cls-16{opacity:0.04;}.cls-17{opacity:0.4;}.cls-18{opacity:0.25;}.cls-19{opacity:0.11;}.cls-20{opacity:0.02;}.cls-21{opacity:0.48;}.cls-22{opacity:0.32;}.cls-23{opacity:0.26;}.cls-24{opacity:0.09;}.cls-25{opacity:0.18;}.cls-26{opacity:0.34;}.cls-27{opacity:0.44;}.cls-28{opacity:0.45;}.cls-29{opacity:0.16;}.cls-30{opacity:0.4;}.cls-31{opacity:0.26;}.cls-32{opacity:0.08;}.cls-33{opacity:0.25;}.cls-34{opacity:0.07;}.cls-35{opacity:0.05;}.cls-36{opacity:0.11;}.cls-37{opacity:0.01;}.cls-38{opacity:0.02;}.cls-39{opacity:0.32;}.cls-40{opacity:0.28;}.cls-41{opacity:0.26;}.cls-42{opacity:0.48;}.cls-43{opacity:0.02;}.cls-44{opacity:0.02;}.cls-45{opacity:0.44;}.cls-46{opacity:0.43;}.cls-47{opacity:0.23;}.cls-48{opacity:0.18;}.cls-49{opacity:0.42;}.cls-50{opacity:0.11;}.cls-51{opacity:0.18;}.cls-52{opacity:0.44;}.cls-53{opacity:0.13;}.cls-54{opacity:0.17;}.cls-55{opacity:0.12;}.cls-56{opacity:0.49;}.cls-57{opacity:0.22;}.cls-58{opacity:0.33;}.cls-59{opacity:0.39;}.cls-60{opacity:0.19;}.cls-61{opacity:0.21;}.cls-62{opacity:0.1;}.cls-63{opacity:0.25;}.cls-64{opacity:0.1;}.cls-65{opacity:0.46;}.cls-66{opacity:0.33;}.cls-67{opacity:0.16;}.cls-68{opacity:0.18;}.cls-69{opacity:0.02;}.cls-70{opacity:0.04;}.cls-71{opacity:0.47;}.cls-72{opacity:0.37;}.cls-73{opacity:0.2;}.cls-74{opacity:0.37;}.cls-75{opacity:0.09;}.cls-76{opacity:0.21;}.cls-77{opacity:0.03;}.cls-78{opacity:0.4;}.cls-79{opacity:0.13;}.cls-80{opacity:0.13;}.cls-81{opacity:0.13;}.cls-82{opacity:0.16;}.cls-83{opacity:0.47;}.cls-84{opacity:0.13;}.cls-85{opacity:0.26;}.cls-86{opacity:0.05;}.cls-87{opacity:0.14;}.cls-88{opacity:0.34;}.cls-89{opacity:0.01;}.cls-90{opacity:0.16;}.cls-91{opacity:0.37;}.cls-92{opacity:0.36;}.cls-93{opacity:0.14;}.cls-94{opacity:0.17;}.cls-95,.cls-96,.cls-97{mix-blend-mode:color-dodge;}.cls-95{fill:url(#radial-gradient);}.cls-96{fill:url(#radial-gradient-2);}.cls-97{fill:url(#radial-gradient-3);}.cls-98{opacity:0.15;}.cls-99{opacity:0.28;}.cls-100{opacity:0.25;}.cls-101{opacity:0.2;}.cls-102{opacity:0.24;}.cls-103{opacity:0.42;}.cls-104{opacity:0.08;}.cls-105{opacity:0.36;}.cls-106{opacity:0.29;}.cls-107{opacity:0.02;}.cls-108{opacity:0.21;}.cls-109{opacity:0.1;}.cls-110{opacity:0.37;}.cls-111{opacity:0.13;}.cls-112{opacity:0.43;}.cls-113{opacity:0.17;}.cls-114{opacity:0.23;}.cls-115{opacity:0.43;}.cls-116{opacity:0.16;}.cls-117{opacity:0.22;}.cls-118{opacity:0.15;}.cls-119{opacity:0.11;}.cls-120{opacity:0.1;}.cls-121{opacity:0.32;}.cls-122{opacity:0.26;}.cls-123{opacity:0.4;}.cls-124{opacity:0.19;}.cls-125{opacity:0.05;}.cls-126{opacity:0.07;}.cls-127{opacity:0.41;}.cls-128{opacity:0.22;}.cls-129{opacity:0.41;}.cls-130{opacity:0.04;}.cls-131{opacity:0.19;}.cls-132{opacity:0.17;}.cls-133{opacity:0.4;}.cls-134{opacity:0.4;}.cls-135{opacity:0.16;}.cls-136{opacity:0.23;}.cls-137{opacity:0.28;}.cls-138{opacity:0.23;}.cls-139{opacity:0.09;}.cls-140{opacity:0.1;}.cls-141{opacity:0.35;}.cls-142{opacity:0.17;}.cls-143{opacity:0.46;}.cls-144{opacity:0.3;}.cls-145{opacity:0.49;}.cls-146{opacity:0.02;}.cls-147{opacity:0.3;}.cls-148{opacity:0.28;}.cls-149{opacity:0.19;}.cls-150{opacity:0.16;}.cls-151{opacity:0.05;}.cls-152{opacity:0.26;}.cls-153{opacity:0.04;}.cls-154{opacity:0.1;}.cls-155{opacity:0.3;}.cls-156{opacity:0.02;}.cls-157{opacity:0.11;}.cls-158{opacity:0.48;}.cls-159{opacity:0.43;}.cls-160{opacity:0.43;}.cls-161{opacity:0.02;}.cls-162{opacity:0.25;}.cls-163{opacity:0.35;}.cls-164{opacity:0.09;}.cls-165{opacity:0.05;}.cls-166{opacity:0.3;}.cls-167{opacity:0.17;}.cls-168{opacity:0.35;}.cls-169{opacity:0.18;}.cls-170{opacity:0.08;}.cls-171{opacity:0.06;}.cls-172{opacity:0.46;}.cls-173{opacity:0.22;}.cls-174{opacity:0.01;}.cls-175{opacity:0.21;}.cls-176{opacity:0.09;}.cls-177{opacity:0.38;}.cls-178{opacity:0.09;}.cls-179{opacity:0.18;}.cls-180{opacity:0.22;}.cls-181{opacity:0.38;}.cls-182{opacity:0.18;}.cls-183{opacity:0.09;}.cls-184{opacity:0.02;}.cls-185{opacity:0.29;}.cls-186{opacity:0.06;}.cls-187{opacity:0.23;}.cls-188{opacity:0.46;}.cls-189{opacity:0.15;}.cls-190{font-size:32px;}.cls-190,.cls-191{fill:#fff;font-family:Nexa-Bold, Nexa-Bold;}.cls-191{font-size:11px;}</style><radialGradient id="radial-gradient" cx="80.47" cy="14.76" r="205.23" gradientTransform="translate(9.35 12.03) scale(0.85 1.07)" gradientUnits="userSpaceOnUse"><stop offset="0" stop-color="#bf0005"/><stop offset="0.01" stop-color="#ba0005"/><stop offset="0.21" stop-color="#820003"/><stop offset="0.39" stop-color="#540002"/><stop offset="0.57" stop-color="#2f0001"/><stop offset="0.74" stop-color="#150001"/><stop offset="0.88" stop-color="#060000"/><stop offset="1"/></radialGradient><radialGradient id="radial-gradient-2" cx="425.72" cy="-46.87" r="205.23" xlink:href="#radial-gradient"/><radialGradient id="radial-gradient-3" cx="-7.14" cy="201.45" r="205.23" xlink:href="#radial-gradient"/></defs><title>about-banner</title><g class="cls-1"><g id="Layer_1" data-name="Layer 1"><rect class="cls-2" y="0.85" width="540" height="265.65" transform="translate(540 267.35) rotate(180)"/><path class="cls-3" d="M533.05,44.28a1.05,1.05,0,0,1-1.54-.38,1.33,1.33,0,0,1,.34-1.71,1.05,1.05,0,0,1,1.54.38A1.33,1.33,0,0,1,533.05,44.28Z" transform="translate(0 0)"/><path class="cls-3" d="M341.67,108.89a1.08,1.08,0,0,1-1.59-.39,1.36,1.36,0,0,1,.35-1.76,1.08,1.08,0,0,1,1.59.39A1.36,1.36,0,0,1,341.67,108.89Z" transform="translate(0 0)"/><path class="cls-3" d="M455.63,135.75a1.08,1.08,0,0,1-1.59-.39,1.36,1.36,0,0,1,.35-1.76A1.08,1.08,0,0,1,456,134,1.36,1.36,0,0,1,455.63,135.75Z" transform="translate(0 0)"/><path class="cls-3" d="M452.92,45.89a1.09,1.09,0,0,1-1.6-.39,1.38,1.38,0,0,1,.35-1.78,1.09,1.09,0,0,1,1.6.39A1.38,1.38,0,0,1,452.92,45.89Z" transform="translate(0 0)"/><path class="cls-3" d="M528,63.32a1.09,1.09,0,0,1-1.6-.39,1.38,1.38,0,0,1,.35-1.78,1.09,1.09,0,0,1,1.6.39A1.38,1.38,0,0,1,528,63.32Z" transform="translate(0 0)"/><path class="cls-3" d="M464.2,37.44a1.1,1.1,0,0,1-1.61-.39,1.38,1.38,0,0,1,.35-1.78,1.1,1.1,0,0,1,1.61.39A1.38,1.38,0,0,1,464.2,37.44Z" transform="translate(0 0)"/><path class="cls-3" d="M329.26,175a1.1,1.1,0,0,1-1.61-.39,1.38,1.38,0,0,1,.35-1.79,1.1,1.1,0,0,1,1.61.39A1.38,1.38,0,0,1,329.26,175Z" transform="translate(0 0)"/><path class="cls-3" d="M422.72,79.13a1.1,1.1,0,0,1-1.61-.39,1.39,1.39,0,0,1,.35-1.79,1.1,1.1,0,0,1,1.61.39A1.39,1.39,0,0,1,422.72,79.13Z" transform="translate(0 0)"/><path class="cls-3" d="M372.37,239.15a1.11,1.11,0,0,1-1.63-.4,1.4,1.4,0,0,1,.36-1.81,1.11,1.11,0,0,1,1.63.4A1.4,1.4,0,0,1,372.37,239.15Z" transform="translate(0 0)"/><path class="cls-3" d="M462.25,184.53a1.12,1.12,0,0,1-1.64-.4,1.4,1.4,0,0,1,.36-1.82,1.12,1.12,0,0,1,1.64.4A1.4,1.4,0,0,1,462.25,184.53Z" transform="translate(0 0)"/><path class="cls-3" d="M401.39,90.08a1.12,1.12,0,0,1-1.64-.4,1.41,1.41,0,0,1,.36-1.82,1.12,1.12,0,0,1,1.64.4A1.41,1.41,0,0,1,401.39,90.08Z" transform="translate(0 0)"/><path class="cls-3" d="M289.33,172.66a1.12,1.12,0,0,1-1.64-.4,1.41,1.41,0,0,1,.36-1.82,1.12,1.12,0,0,1,1.64.4A1.41,1.41,0,0,1,289.33,172.66Z" transform="translate(0 0)"/><path class="cls-3" d="M344.5,214a1.12,1.12,0,0,1-1.64-.4,1.41,1.41,0,0,1,.36-1.82,1.12,1.12,0,0,1,1.64.4A1.41,1.41,0,0,1,344.5,214Z" transform="translate(0 0)"/><path class="cls-3" d="M279.27,246.07a1.14,1.14,0,0,1-1.67-.41,1.44,1.44,0,0,1,.37-1.86,1.14,1.14,0,0,1,1.67.41A1.44,1.44,0,0,1,279.27,246.07Z" transform="translate(0 0)"/><path class="cls-3" d="M298.9,203a1.15,1.15,0,0,1-1.69-.41,1.45,1.45,0,0,1,.37-1.87,1.15,1.15,0,0,1,1.69.41A1.45,1.45,0,0,1,298.9,203Z" transform="translate(0 0)"/><path class="cls-3" d="M414,153.63a1.16,1.16,0,0,1-1.7-.41,1.46,1.46,0,0,1,.37-1.89,1.16,1.16,0,0,1,1.7.41A1.46,1.46,0,0,1,414,153.63Z" transform="translate(0 0)"/><path class="cls-3" d="M536.54,23.42a1.16,1.16,0,0,1-1.7-.41,1.46,1.46,0,0,1,.37-1.89,1.16,1.16,0,0,1,1.7.41A1.46,1.46,0,0,1,536.54,23.42Z" transform="translate(0 0)"/><path class="cls-3" d="M368.75,105.78a1.16,1.16,0,0,1-1.7-.42,1.46,1.46,0,0,1,.37-1.89,1.16,1.16,0,0,1,1.7.42A1.46,1.46,0,0,1,368.75,105.78Z" transform="translate(0 0)"/><path class="cls-3" d="M450.16,231.07a1.18,1.18,0,0,1-1.73-.42,1.48,1.48,0,0,1,.38-1.92,1.18,1.18,0,0,1,1.73.42A1.48,1.48,0,0,1,450.16,231.07Z" transform="translate(0 0)"/><path class="cls-3" d="M337.16,229.69a1.19,1.19,0,0,1-1.74-.42,1.49,1.49,0,0,1,.38-1.93,1.19,1.19,0,0,1,1.74.42A1.49,1.49,0,0,1,337.16,229.69Z" transform="translate(0 0)"/><path class="cls-3" d="M429.67,240.26a1.2,1.2,0,0,1-1.75-.43,1.51,1.51,0,0,1,.38-1.95,1.2,1.2,0,0,1,1.75.43A1.51,1.51,0,0,1,429.67,240.26Z" transform="translate(0 0)"/><path class="cls-3" d="M435.59,175.23a1.2,1.2,0,0,1-1.76-.43,1.51,1.51,0,0,1,.39-2,1.2,1.2,0,0,1,1.76.43A1.51,1.51,0,0,1,435.59,175.23Z" transform="translate(0 0)"/><path class="cls-3" d="M317.48,131.62a1.21,1.21,0,0,1-1.77-.43,1.52,1.52,0,0,1,.39-2,1.21,1.21,0,0,1,1.77.43A1.52,1.52,0,0,1,317.48,131.62Z" transform="translate(0 0)"/><path class="cls-3" d="M457,32.7a1.22,1.22,0,0,1-1.78-.43,1.53,1.53,0,0,1,.39-2,1.22,1.22,0,0,1,1.78.43A1.53,1.53,0,0,1,457,32.7Z" transform="translate(0 0)"/><path class="cls-3" d="M402.4,116.5a1.22,1.22,0,0,1-1.78-.43,1.53,1.53,0,0,1,.39-2,1.22,1.22,0,0,1,1.78.43A1.53,1.53,0,0,1,402.4,116.5Z" transform="translate(0 0)"/><path class="cls-3" d="M375.8,140.77a1.22,1.22,0,0,1-1.79-.44,1.53,1.53,0,0,1,.39-2,1.22,1.22,0,0,1,1.79.44A1.53,1.53,0,0,1,375.8,140.77Z" transform="translate(0 0)"/><path class="cls-3" d="M461.5,250.76a1.23,1.23,0,0,1-1.8-.44,1.54,1.54,0,0,1,.39-2,1.23,1.23,0,0,1,1.8.44A1.54,1.54,0,0,1,461.5,250.76Z" transform="translate(0 0)"/><path class="cls-3" d="M360.33,222.42a1.24,1.24,0,0,1-1.82-.44,1.56,1.56,0,0,1,.4-2,1.24,1.24,0,0,1,1.82.44A1.56,1.56,0,0,1,360.33,222.42Z" transform="translate(0 0)"/><path class="cls-3" d="M498.17,54.29a1.24,1.24,0,0,1-1.82-.44,1.56,1.56,0,0,1,.4-2,1.24,1.24,0,0,1,1.82.44A1.56,1.56,0,0,1,498.17,54.29Z" transform="translate(0 0)"/><path class="cls-3" d="M537,33.08a1.24,1.24,0,0,1-1.82-.44,1.56,1.56,0,0,1,.4-2,1.24,1.24,0,0,1,1.82.44A1.56,1.56,0,0,1,537,33.08Z" transform="translate(0 0)"/><path class="cls-3" d="M482.25,131.55a1.24,1.24,0,0,1-1.82-.44,1.56,1.56,0,0,1,.4-2,1.24,1.24,0,0,1,1.82.44A1.56,1.56,0,0,1,482.25,131.55Z" transform="translate(0 0)"/><path class="cls-3" d="M421.61,54.08a1.25,1.25,0,0,1-1.83-.44,1.57,1.57,0,0,1,.4-2,1.25,1.25,0,0,1,1.82.44A1.57,1.57,0,0,1,421.61,54.08Z" transform="translate(0 0)"/><path class="cls-3" d="M468.78,162a1.25,1.25,0,0,1-1.83-.45,1.57,1.57,0,0,1,.4-2,1.25,1.25,0,0,1,1.83.45A1.57,1.57,0,0,1,468.78,162Z" transform="translate(0 0)"/><path class="cls-3" d="M384.65,247.21a1.25,1.25,0,0,1-1.84-.45,1.58,1.58,0,0,1,.4-2,1.25,1.25,0,0,1,1.84.45A1.58,1.58,0,0,1,384.65,247.21Z" transform="translate(0 0)"/><path class="cls-3" d="M463.38,120.15a1.27,1.27,0,0,1-1.86-.45,1.59,1.59,0,0,1,.41-2.06,1.27,1.27,0,0,1,1.86.45A1.59,1.59,0,0,1,463.38,120.15Z" transform="translate(0 0)"/><path class="cls-3" d="M497.68,61a1.27,1.27,0,0,1-1.86-.45,1.6,1.6,0,0,1,.41-2.06,1.27,1.27,0,0,1,1.86.45A1.6,1.6,0,0,1,497.68,61Z" transform="translate(0 0)"/><path class="cls-3" d="M485,210.18a1.27,1.27,0,0,1-1.86-.45,1.6,1.6,0,0,1,.41-2.07,1.27,1.27,0,0,1,1.86.45A1.6,1.6,0,0,1,485,210.18Z" transform="translate(0 0)"/><path class="cls-3" d="M447.24,240.9a1.28,1.28,0,0,1-1.87-.46,1.61,1.61,0,0,1,.41-2.08,1.28,1.28,0,0,1,1.87.46A1.61,1.61,0,0,1,447.24,240.9Z" transform="translate(0 0)"/><path class="cls-3" d="M360.58,213a1.28,1.28,0,0,1-1.88-.46,1.61,1.61,0,0,1,.41-2.09,1.28,1.28,0,0,1,1.88.46A1.61,1.61,0,0,1,360.58,213Z" transform="translate(0 0)"/><path class="cls-3" d="M368.34,200a1.28,1.28,0,0,1-1.88-.46,1.62,1.62,0,0,1,.41-2.09,1.28,1.28,0,0,1,1.88.46A1.62,1.62,0,0,1,368.34,200Z" transform="translate(0 0)"/><path class="cls-3" d="M462.92,234.18a1.29,1.29,0,0,1-1.89-.46,1.62,1.62,0,0,1,.41-2.1,1.29,1.29,0,0,1,1.89.46A1.62,1.62,0,0,1,462.92,234.18Z" transform="translate(0 0)"/><path class="cls-3" d="M498.37,113.09a1.29,1.29,0,0,1-1.89-.46,1.62,1.62,0,0,1,.41-2.1,1.29,1.29,0,0,1,1.89.46A1.62,1.62,0,0,1,498.37,113.09Z" transform="translate(0 0)"/><path class="cls-3" d="M318.46,166.16a1.31,1.31,0,0,1-1.92-.47,1.65,1.65,0,0,1,.42-2.13,1.31,1.31,0,0,1,1.92.47A1.65,1.65,0,0,1,318.46,166.16Z" transform="translate(0 0)"/><path class="cls-3" d="M356.18,220.19a1.31,1.31,0,0,1-1.92-.47,1.65,1.65,0,0,1,.42-2.14,1.31,1.31,0,0,1,1.92.47A1.65,1.65,0,0,1,356.18,220.19Z" transform="translate(0 0)"/><path class="cls-3" d="M513.6,100.39a1.31,1.31,0,0,1-1.92-.47,1.65,1.65,0,0,1,.42-2.14,1.31,1.31,0,0,1,1.92.47A1.65,1.65,0,0,1,513.6,100.39Z" transform="translate(0 0)"/><path class="cls-3" d="M536.74,83.51a1.31,1.31,0,0,1-1.92-.47,1.65,1.65,0,0,1,.42-2.14,1.31,1.31,0,0,1,1.92.47A1.65,1.65,0,0,1,536.74,83.51Z" transform="translate(0 0)"/><path class="cls-3" d="M376.32,252.44a1.31,1.31,0,0,1-1.92-.47,1.65,1.65,0,0,1,.42-2.14,1.31,1.31,0,0,1,1.92.47A1.65,1.65,0,0,1,376.32,252.44Z" transform="translate(0 0)"/><path class="cls-3" d="M247.4,195.39a1.32,1.32,0,0,1-1.94-.47,1.66,1.66,0,0,1,.42-2.15,1.32,1.32,0,0,1,1.94.47A1.66,1.66,0,0,1,247.4,195.39Z" transform="translate(0 0)"/><path class="cls-3" d="M384,195.93a1.32,1.32,0,0,1-1.94-.47,1.67,1.67,0,0,1,.43-2.15,1.32,1.32,0,0,1,1.94.47A1.67,1.67,0,0,1,384,195.93Z" transform="translate(0 0)"/><path class="cls-3" d="M484.42,98.71a1.33,1.33,0,0,1-1.95-.47,1.67,1.67,0,0,1,.43-2.16,1.33,1.33,0,0,1,1.95.47A1.67,1.67,0,0,1,484.42,98.71Z" transform="translate(0 0)"/><path class="cls-3" d="M278.76,256.11a1.33,1.33,0,0,1-2-.48,1.68,1.68,0,0,1,.43-2.17,1.33,1.33,0,0,1,2,.48A1.68,1.68,0,0,1,278.76,256.11Z" transform="translate(0 0)"/><path class="cls-3" d="M425.25,187.81a1.34,1.34,0,0,1-2-.48,1.68,1.68,0,0,1,.43-2.17,1.34,1.34,0,0,1,2,.48A1.68,1.68,0,0,1,425.25,187.81Z" transform="translate(0 0)"/><path class="cls-3" d="M413.69,148.89a1.34,1.34,0,0,1-2-.48,1.68,1.68,0,0,1,.43-2.18,1.34,1.34,0,0,1,2,.48A1.68,1.68,0,0,1,413.69,148.89Z" transform="translate(0 0)"/><path class="cls-3" d="M380.56,183.64a1.34,1.34,0,0,1-2-.48A1.69,1.69,0,0,1,379,181a1.34,1.34,0,0,1,2,.48A1.69,1.69,0,0,1,380.56,183.64Z" transform="translate(0 0)"/><path class="cls-3" d="M373.19,260.2a1.34,1.34,0,0,1-2-.48,1.69,1.69,0,0,1,.43-2.18,1.34,1.34,0,0,1,2,.48A1.69,1.69,0,0,1,373.19,260.2Z" transform="translate(0 0)"/><path class="cls-3" d="M447.28,34.81a1.35,1.35,0,0,1-2-.48,1.7,1.7,0,0,1,.44-2.2,1.35,1.35,0,0,1,2,.48A1.7,1.7,0,0,1,447.28,34.81Z" transform="translate(0 0)"/><path class="cls-3" d="M493.39,199a1.36,1.36,0,0,1-2-.48,1.71,1.71,0,0,1,.44-2.21,1.36,1.36,0,0,1,2,.48A1.71,1.71,0,0,1,493.39,199Z" transform="translate(0 0)"/><path class="cls-3" d="M273.32,180.58a1.36,1.36,0,0,1-2-.49,1.71,1.71,0,0,1,.44-2.21,1.36,1.36,0,0,1,2,.49A1.71,1.71,0,0,1,273.32,180.58Z" transform="translate(0 0)"/><path class="cls-3" d="M476.59,118a1.36,1.36,0,0,1-2-.49,1.71,1.71,0,0,1,.44-2.21,1.36,1.36,0,0,1,2,.49A1.71,1.71,0,0,1,476.59,118Z" transform="translate(0 0)"/><path class="cls-3" d="M458.31,63a1.36,1.36,0,0,1-2-.49,1.71,1.71,0,0,1,.44-2.22,1.36,1.36,0,0,1,2,.49A1.71,1.71,0,0,1,458.31,63Z" transform="translate(0 0)"/><path class="cls-3" d="M375.44,191a1.37,1.37,0,0,1-2-.49,1.72,1.72,0,0,1,.44-2.23,1.37,1.37,0,0,1,2,.49A1.72,1.72,0,0,1,375.44,191Z" transform="translate(0 0)"/><path class="cls-3" d="M272.71,190.55a1.37,1.37,0,0,1-2-.49,1.73,1.73,0,0,1,.44-2.23,1.37,1.37,0,0,1,2,.49A1.73,1.73,0,0,1,272.71,190.55Z" transform="translate(0 0)"/><path class="cls-3" d="M487.28,154.84a1.39,1.39,0,0,1-2-.5,1.74,1.74,0,0,1,.45-2.26,1.39,1.39,0,0,1,2,.5A1.74,1.74,0,0,1,487.28,154.84Z" transform="translate(0 0)"/><path class="cls-3" d="M387.81,87.72a1.41,1.41,0,0,1-2.07-.5,1.77,1.77,0,0,1,.45-2.29,1.41,1.41,0,0,1,2.07.5A1.77,1.77,0,0,1,387.81,87.72Z" transform="translate(0 0)"/><path class="cls-3" d="M531.86,43.55l6.57,14.68a.62.62,0,0,0,.9.24.77.77,0,0,0,.27-.88L533,42.91a.62.62,0,0,0-.87-.33A.76.76,0,0,0,531.86,43.55Z" transform="translate(0 0)"/><path class="cls-3" d="M463.21,35.75,451.93,44.2a.77.77,0,0,0-.17,1,.61.61,0,0,0,.9.19L463.93,37a.78.78,0,0,0,.16-1A.61.61,0,0,0,463.21,35.75Z" transform="translate(0 0)"/><path class="cls-4" d="M422.54,78.55l30.21-33.24a.78.78,0,0,0,0-1,.61.61,0,0,0-.92,0h0L421.63,77.53a.78.78,0,0,0,0,1A.61.61,0,0,0,422.54,78.55Z" transform="translate(0 0)"/><path class="cls-5" d="M422.52,78.58,464,36.89a.78.78,0,0,0,0-1,.61.61,0,0,0-.9-.05L421.65,77.51a.78.78,0,0,0,0,1A.61.61,0,0,0,422.52,78.58Z" transform="translate(0 0)"/><path class="cls-6" d="M288.65,172.28l40,2.37a.68.68,0,0,0,.69-.68.7.7,0,0,0-.62-.76l-40-2.37a.68.68,0,0,0-.69.68A.7.7,0,0,0,288.65,172.28Z" transform="translate(0 0)"/><path class="cls-7" d="M344.46,212.63l-15.22-39a.62.62,0,0,0-.88-.31.76.76,0,0,0-.32.89l15.22,39a.62.62,0,0,0,.88.31A.76.76,0,0,0,344.46,212.63Z" transform="translate(0 0)"/><path class="cls-8" d="M401,89.62,422.36,78.7a.76.76,0,0,0,.29-1,.62.62,0,0,0-.84-.34L400.48,88.31a.76.76,0,0,0-.29,1A.62.62,0,0,0,401,89.62Z" transform="translate(0 0)"/><path class="cls-9" d="M372.14,237.49l-27.88-25.13a.61.61,0,0,0-.92.11.78.78,0,0,0,.09,1l27.88,25.13a.61.61,0,0,0,.92-.11A.78.78,0,0,0,372.14,237.49Z" transform="translate(0 0)"/><path class="cls-10" d="M386.83,266.08h1.54l-16.08-28.42a.61.61,0,0,0-.9-.23.77.77,0,0,0-.2,1Z" transform="translate(0 0)"/><path class="cls-11" d="M298.86,201.59l-9.56-30.28a.64.64,0,0,0-.83-.44.75.75,0,0,0-.4.92h0l9.56,30.28a.64.64,0,0,0,.83.44A.75.75,0,0,0,298.86,201.59Z" transform="translate(0 0)"/><path class="cls-12" d="M279.2,245.26l19.63-43.11a.76.76,0,0,0-.29-1,.62.62,0,0,0-.88.32L278,244.61a.76.76,0,0,0,.29,1A.62.62,0,0,0,279.2,245.26Z" transform="translate(0 0)"/><path class="cls-13" d="M535.3,22.61a.62.62,0,0,0,.88.3L540,20.65V19l-4.43,2.62A.77.77,0,0,0,535.3,22.61Z" transform="translate(0 0)"/><path class="cls-14" d="M523.62,0h-1.55l13.26,22.66a.61.61,0,0,0,.9.21.77.77,0,0,0,.19-1Z" transform="translate(0 0)"/><path class="cls-3" d="M429.23,239.75l20.5-9.18a.76.76,0,0,0,.34-.95.63.63,0,0,0-.83-.39l-20.5,9.18a.75.75,0,0,0-.36.94A.63.63,0,0,0,429.23,239.75Z" transform="translate(0 0)"/><path class="cls-15" d="M434,266.08l16-35.86a.76.76,0,0,0-.29-1,.62.62,0,0,0-.87.33l-16.33,36.51Z" transform="translate(0 0)"/><path class="cls-16" d="M429.64,239.15l5.91-65a.71.71,0,0,0-.58-.79.67.67,0,0,0-.71.65l-5.91,65a.71.71,0,0,0,.58.79.67.67,0,0,0,.71-.65Z" transform="translate(0 0)"/><path class="cls-17" d="M430.23,266.08l-.59-27a.68.68,0,0,0-.68-.69.69.69,0,0,0-.62.72l.59,27Z" transform="translate(0 0)"/><path class="cls-18" d="M427.31,266.08l2.32-26.94a.71.71,0,0,0-.59-.79.68.68,0,0,0-.71.65L426,266.08Z" transform="translate(0 0)"/><path class="cls-19" d="M428.81,239.77l31.8,10.47a.65.65,0,0,0,.79-.52.74.74,0,0,0-.42-.86l-31.8-10.47a.65.65,0,0,0-.79.53A.74.74,0,0,0,428.81,239.77Z" transform="translate(0 0)"/><path class="cls-20" d="M375.2,138.85l-58.31-9.15a.67.67,0,0,0-.71.65.72.72,0,0,0,.53.79L375,140.28a.67.67,0,0,0,.71-.65A.72.72,0,0,0,375.2,138.85Z" transform="translate(0 0)"/><path class="cls-21" d="M375.52,140.12l26.59-24.27a.78.78,0,0,0,.07-1,.61.61,0,0,0-.89-.1L374.69,139a.78.78,0,0,0-.09,1,.61.61,0,0,0,.92.1Z" transform="translate(0 0)"/><path class="cls-22" d="M440.94,266.08l20.23-15.94a.78.78,0,0,0,.16-1,.61.61,0,0,0-.91-.17l-21.73,17.13Z" transform="translate(0 0)"/><path class="cls-23" d="M443.79,266.08l17.42-16a.78.78,0,0,0,.07-1,.61.61,0,0,0-.9-.1l-18.64,17.1Z" transform="translate(0 0)"/><path class="cls-24" d="M497.74,52.39,456.55,30.84a.63.63,0,0,0-.85.4.76.76,0,0,0,.3.91l41.18,21.57a.63.63,0,0,0,.88-.35A.77.77,0,0,0,497.74,52.39Z" transform="translate(0 0)"/><path class="cls-25" d="M421.21,53.49l35.37-21.36a.77.77,0,0,0,.23-1,.62.62,0,0,0-.85-.28L420.59,52.2a.78.78,0,0,0-.27,1,.63.63,0,0,0,.9.3Z" transform="translate(0 0)"/><path class="cls-26" d="M497.75,53.71,536.61,32.5a.77.77,0,0,0,.26-1,.63.63,0,0,0-.85-.32L497.17,52.4a.77.77,0,0,0-.26,1A.63.63,0,0,0,497.75,53.71Z" transform="translate(0 0)"/><path class="cls-3" d="M468.67,161.1l13.46-30.47a.77.77,0,0,0-.3-1,.63.63,0,0,0-.88.33l-13.47,30.47a.78.78,0,0,0,.31,1A.64.64,0,0,0,468.67,161.1Z" transform="translate(0 0)"/><path class="cls-27" d="M384.38,245.42l-24.32-24.77a.62.62,0,0,0-.93,0,.79.79,0,0,0,0,1h0l24.31,24.79a.62.62,0,0,0,.94,0A.8.8,0,0,0,384.38,245.42Z" transform="translate(0 0)"/><path class="cls-28" d="M497.63,59.85l.49-6.73a.7.7,0,0,0-.65-.74.68.68,0,0,0-.66.62l-.53,6.74a.73.73,0,0,0,.62.81A.7.7,0,0,0,497.63,59.85Z" transform="translate(0 0)"/><path class="cls-29" d="M497.31,60.42l39.36-28a.78.78,0,0,0,.2-1,.62.62,0,0,0-.91-.22L496.59,59.16a.8.8,0,0,0-.21,1A.63.63,0,0,0,497.31,60.42Z" transform="translate(0 0)"/><path class="cls-30" d="M462.34,119.55,481.22,131a.63.63,0,0,0,.88-.35.78.78,0,0,0-.25-.93L463,118.24a.64.64,0,0,0-.91.3A.79.79,0,0,0,462.34,119.55Z" transform="translate(0 0)"/><path class="cls-31" d="M468.72,160.68l-5.4-41.89a.69.69,0,0,0-.76-.63.74.74,0,0,0-.57.85h0l5.42,41.88a.67.67,0,0,0,.77.6A.73.73,0,0,0,468.72,160.68Z" transform="translate(0 0)"/><path class="cls-32" d="M368.71,73.88l52.41-20.34a.76.76,0,0,0,.41-.93.65.65,0,0,0-.84-.45L368.26,72.46a.78.78,0,0,0-.4,1A.66.66,0,0,0,368.71,73.88Z" transform="translate(0 0)"/><path class="cls-33" d="M484.86,208.66l-16.17-48.14a.65.65,0,0,0-.85-.43.76.76,0,0,0-.39.95l16.15,48.15a.65.65,0,0,0,.88.4A.78.78,0,0,0,484.86,208.66Z" transform="translate(0 0)"/><path class="cls-34" d="M360.28,221.21l.25-9.44a.73.73,0,0,0-.66-.78.72.72,0,0,0-.7.74h0l-.21,9.45a.7.7,0,0,0,.64.75A.7.7,0,0,0,360.28,221.21Z" transform="translate(0 0)"/><path class="cls-35" d="M463.23,119.3l34.29-59.1a.79.79,0,0,0-.25-1,.63.63,0,0,0-.88.21l-34.29,59.11a.8.8,0,0,0,.2,1,.63.63,0,0,0,.93-.22Z" transform="translate(0 0)"/><path class="cls-36" d="M384.46,245.51l-24.07-34.24a.64.64,0,0,0-1-.1.81.81,0,0,0-.11,1l24.09,34.22a.62.62,0,0,0,.94.13A.8.8,0,0,0,384.46,245.51Z" transform="translate(0 0)"/><path class="cls-37" d="M384.55,245.7l-16.31-47.28a.65.65,0,0,0-.91-.35.79.79,0,0,0-.36.89l16.33,47.27a.64.64,0,0,0,.87.4A.77.77,0,0,0,384.55,245.7Z" transform="translate(0 0)"/><path class="cls-38" d="M354.58,266.08l29.69-19.48a.79.79,0,0,0,.24-1,.63.63,0,0,0-.91-.26l-31.67,20.75Z" transform="translate(0 0)"/><path class="cls-39" d="M446.91,240.24l37.72-30.71a.8.8,0,0,0,.15-1,.63.63,0,0,0-.94-.16L446.11,239a.81.81,0,0,0-.12,1.06A.63.63,0,0,0,446.91,240.24Z" transform="translate(0 0)"/><path class="cls-40" d="M462.78,119.63l35-7.07a.76.76,0,0,0,.55-.88.69.69,0,0,0-.79-.61l-35,7.1a.75.75,0,0,0-.52.88A.68.68,0,0,0,462.78,119.63Z" transform="translate(0 0)"/><path class="cls-41" d="M498.31,111.8l-.69-52a.7.7,0,0,0-.72-.69.72.72,0,0,0-.62.71l.67,52a.71.71,0,0,0,.73.71A.73.73,0,0,0,498.31,111.8Z" transform="translate(0 0)"/><path class="cls-42" d="M483.75,208.39l-22,24a.82.82,0,0,0,0,1.07.64.64,0,0,0,1,0l22-24a.81.81,0,0,0,0-1.06A.63.63,0,0,0,483.75,208.39Z" transform="translate(0 0)"/><path class="cls-3" d="M446.75,240.33l15.67-6.72a.79.79,0,0,0,.39-1,.66.66,0,0,0-.88-.44h0l-15.67,6.73a.78.78,0,0,0-.37,1A.66.66,0,0,0,446.75,240.33Z" transform="translate(0 0)"/><path class="cls-3" d="M367,198.27l-7.77,13.05a.81.81,0,0,0,.19,1,.64.64,0,0,0,.94-.22l7.76-13a.8.8,0,0,0-.24-1A.64.64,0,0,0,367,198.27Z" transform="translate(0 0)"/><path class="cls-43" d="M513.48,98.77,497.57,59.48a.65.65,0,0,0-.89-.38.79.79,0,0,0-.34,1L512.22,99.4a.66.66,0,0,0,.94.32A.81.81,0,0,0,513.48,98.77Z" transform="translate(0 0)"/><path class="cls-44" d="M368,198,318.08,164.2a.66.66,0,0,0-1,.26.82.82,0,0,0,.23,1.06l49.9,33.82a.64.64,0,0,0,.93-.27A.81.81,0,0,0,368,198Z" transform="translate(0 0)"/><path class="cls-45" d="M356,219.33l4.4-7.16a.81.81,0,0,0-.18-1.05.64.64,0,0,0-.95.2l-4.43,7.14a.83.83,0,0,0,.18,1.08.65.65,0,0,0,1-.2Z" transform="translate(0 0)"/><path class="cls-46" d="M367,198.27l-12.19,20.19a.83.83,0,0,0,.19,1.07.66.66,0,0,0,1-.21h0l12.16-20.21a.81.81,0,0,0-.19-1,.64.64,0,0,0-.95.21Z" transform="translate(0 0)"/><path class="cls-47" d="M376.21,250.83l-15.74-39.39a.65.65,0,0,0-.92-.31.79.79,0,0,0-.32.92l15.7,39.41a.67.67,0,0,0,.92.39A.81.81,0,0,0,376.21,250.83Z" transform="translate(0 0)"/><path class="cls-48" d="M376.26,251l-8-52.44a.68.68,0,0,0-.82-.56.75.75,0,0,0-.52.81l7.94,52.45a.71.71,0,0,0,.8.63A.77.77,0,0,0,376.26,251Z" transform="translate(0 0)"/><path class="cls-49" d="M512.43,98.47,497.22,111.2a.82.82,0,0,0-.13,1.06.64.64,0,0,0,1,.15L513.27,99.7a.83.83,0,0,0,.12-1.08A.65.65,0,0,0,512.43,98.47Z" transform="translate(0 0)"/><path class="cls-50" d="M535.59,81.57l-38.36,29.61a.81.81,0,0,0-.16,1.06.64.64,0,0,0,.94.19l38.37-29.59a.83.83,0,0,0,.17-1.08A.65.65,0,0,0,535.59,81.57Z" transform="translate(0 0)"/><path class="cls-51" d="M513,99.85l27-5.54V92.75l-27.28,5.58a.77.77,0,0,0-.56.9A.71.71,0,0,0,513,99.85Z" transform="translate(0 0)"/><path class="cls-37" d="M382.88,194l-23.41,17.14a.81.81,0,0,0-.19,1,.64.64,0,0,0,.94.21l23.44-17.1a.83.83,0,0,0,.19-1.08A.66.66,0,0,0,382.88,194Z" transform="translate(0 0)"/><path class="cls-52" d="M535.87,83l4.13.86V82.26l-3.88-.81a.71.71,0,0,0-.78.67A.77.77,0,0,0,535.87,83Z" transform="translate(0 0)"/><path class="cls-53" d="M367.76,199.43l15.67-4.05a.79.79,0,0,0,.52-.94.7.7,0,0,0-.84-.58h0L367.46,198a.76.76,0,0,0-.51.91A.68.68,0,0,0,367.76,199.43Z" transform="translate(0 0)"/><path class="cls-54" d="M483.18,98l14,14.41a.64.64,0,0,0,1,0,.82.82,0,0,0,0-1.08h0l-14-14.44a.66.66,0,0,0-1,.11A.85.85,0,0,0,483.18,98Z" transform="translate(0 0)"/><path class="cls-55" d="M356,218.42l-37.72-54a.65.65,0,0,0-1-.08.83.83,0,0,0-.12,1l37.72,54a.65.65,0,0,0,1,0A.84.84,0,0,0,356,218.42Z" transform="translate(0 0)"/><path class="cls-3" d="M513.23,99.73l23.14-16.88a.83.83,0,0,0,.19-1.07.66.66,0,0,0-.95-.22L512.47,98.44a.83.83,0,0,0-.2,1.07.65.65,0,0,0,1,.22Z" transform="translate(0 0)"/><path class="cls-56" d="M376.14,250.7,356,218.45a.65.65,0,0,0-1-.2.83.83,0,0,0-.18,1.08h0L375,251.58a.65.65,0,0,0,1,.2A.83.83,0,0,0,376.14,250.7Z" transform="translate(0 0)"/><path class="cls-57" d="M535.47,82.72a.65.65,0,0,0,1,.07L540,79.34V77.29l-4.47,4.34A.83.83,0,0,0,535.47,82.72Z" transform="translate(0 0)"/><path class="cls-37" d="M247,167.71l70.69-2.08a.75.75,0,0,0,.65-.81.73.73,0,0,0-.69-.73L247,166.15a.76.76,0,0,0-.65.84A.74.74,0,0,0,247,167.71Z" transform="translate(0 0)"/><path class="cls-58" d="M535.54,82.79a.65.65,0,0,0,1-.08L540,78.25V75.88l-4.53,5.82A.83.83,0,0,0,535.54,82.79Z" transform="translate(0 0)"/><path class="cls-59" d="M382.84,194,355,218.28a.83.83,0,0,0-.09,1.09.65.65,0,0,0,.95.13l27.84-24.27a.84.84,0,0,0,.12-1.1A.66.66,0,0,0,382.84,194Z" transform="translate(0 0)"/><path class="cls-60" d="M376.26,251.25,384,194.73a.77.77,0,0,0-.62-.86.72.72,0,0,0-.77.63L374.88,251a.77.77,0,0,0,.59.88A.71.71,0,0,0,376.26,251.25Z" transform="translate(0 0)"/><path class="cls-3" d="M483.62,98.17l29.2,1.68a.74.74,0,0,0,.69-.77.75.75,0,0,0-.62-.77l-29.19-1.71a.74.74,0,0,0-.74.74.76.76,0,0,0,.67.82Z" transform="translate(0 0)"/><path class="cls-61" d="M483.84,98.15,536.17,83a.79.79,0,0,0,.49-.95.69.69,0,0,0-.84-.55L483.48,96.63a.79.79,0,0,0-.5,1A.7.7,0,0,0,483.84,98.15Z" transform="translate(0 0)"/><path class="cls-3" d="M246.32,166.92l-.37,27.14a.7.7,0,1,0,1.4,0l.38-27.14a.71.71,0,1,0-1.41,0Z" transform="translate(0 0)"/><path class="cls-62" d="M379.22,181.84l-24.35,36.59a.83.83,0,0,0,.16,1.08.65.65,0,0,0,1-.16l24.38-36.58a.85.85,0,0,0-.15-1.1A.67.67,0,0,0,379.22,181.84Z" transform="translate(0 0)"/><path class="cls-63" d="M373.07,258.53l-17-40a.67.67,0,0,0-.93-.37.81.81,0,0,0-.33,1l17,40a.67.67,0,0,0,1,.28A.83.83,0,0,0,373.07,258.53Z" transform="translate(0 0)"/><path class="cls-64" d="M278.61,254.4l-31.36-60.71a.66.66,0,0,0-1-.29.83.83,0,0,0-.26,1.06l31.35,60.71a.67.67,0,0,0,1,.29A.83.83,0,0,0,278.61,254.4Z" transform="translate(0 0)"/><path class="cls-65" d="M374.93,250.82l-3.16,7.72a.83.83,0,0,0,.36,1,.69.69,0,0,0,.94-.4l3.13-7.74a.81.81,0,0,0-.35-1,.67.67,0,0,0-.92.39Z" transform="translate(0 0)"/><path class="cls-66" d="M383.39,195.39l41.22-8.13a.79.79,0,0,0,.54-.94.72.72,0,0,0-.79-.61l-41.22,8.15a.78.78,0,0,0-.57.9.71.71,0,0,0,.81.63Z" transform="translate(0 0)"/><path class="cls-67" d="M383.85,195.06l29.66-47a.85.85,0,0,0-.17-1.1.67.67,0,0,0-1,.19L382.7,194.17a.83.83,0,0,0,.2,1.08A.66.66,0,0,0,383.85,195.06Z" transform="translate(0 0)"/><path class="cls-3" d="M383.94,194.38l-3.47-12.31a.7.7,0,0,0-.89-.52.81.81,0,0,0-.47,1l3.49,12.31a.69.69,0,0,0,.89.48A.8.8,0,0,0,383.94,194.38Z" transform="translate(0 0)"/><path class="cls-68" d="M373.13,259,384,194.76a.77.77,0,0,0-.58-.89.71.71,0,0,0-.8.61l-10.86,64.25a.79.79,0,0,0,.57.92.72.72,0,0,0,.83-.64Z" transform="translate(0 0)"/><path class="cls-69" d="M512.58,98.38l-37.05,17.55a.84.84,0,0,0-.35,1.06.69.69,0,0,0,.92.41l37-17.6a.81.81,0,0,0,.35-1A.67.67,0,0,0,512.58,98.38Z" transform="translate(0 0)"/><path class="cls-70" d="M535.64,82.85a.66.66,0,0,0,.94-.23l3.42-6V73.73l-4.6,8.06A.82.82,0,0,0,535.64,82.85Z" transform="translate(0 0)"/><path class="cls-71" d="M425.16,186.23,413.6,147.32a.7.7,0,0,0-.9-.5.81.81,0,0,0-.45,1l11.57,38.91a.7.7,0,0,0,.9.5.81.81,0,0,0,.45-1Z" transform="translate(0 0)"/><path class="cls-72" d="M379.73,183.1l44.7,4.17a.74.74,0,0,0,.74-.76.77.77,0,0,0-.62-.81l-44.69-4.18a.74.74,0,0,0-.77.72A.77.77,0,0,0,379.73,183.1Z" transform="translate(0 0)"/><path class="cls-73" d="M210.24,181.7l36.18,13.12a.69.69,0,0,0,.89-.5.8.8,0,0,0-.45-1l-36.17-13.16a.71.71,0,0,0-.91.51A.82.82,0,0,0,210.24,181.7Z" transform="translate(0 0)"/><path class="cls-74" d="M380.28,182.88l33.13-34.74a.85.85,0,0,0,0-1.11.66.66,0,0,0-1,0L379.3,181.73a.85.85,0,0,0,0,1.12A.66.66,0,0,0,380.28,182.88Z" transform="translate(0 0)"/><path class="cls-75" d="M247,194.77l25.91-14.83a.84.84,0,0,0,.31-1.08.69.69,0,0,0-1-.35h0l-25.9,14.87a.82.82,0,0,0-.3,1.05A.67.67,0,0,0,247,194.77Z" transform="translate(0 0)"/><path class="cls-76" d="M246.74,167.65,272.26,180a.7.7,0,0,0,.92-.48.84.84,0,0,0-.35-1L247.3,166.22a.68.68,0,0,0-.92.41A.82.82,0,0,0,246.74,167.65Z" transform="translate(0 0)"/><path class="cls-77" d="M373.13,259l7.37-76.56a.78.78,0,0,0-.63-.87.74.74,0,0,0-.78.7h0l-7.36,76.56a.76.76,0,0,0,.68.82A.73.73,0,0,0,373.13,259Z" transform="translate(0 0)"/><path class="cls-78" d="M483,97.07l-7.86,19.26a.84.84,0,0,0,.36,1.06.69.69,0,0,0,1-.4l7.83-19.28a.82.82,0,0,0-.35-1A.68.68,0,0,0,483,97.07Z" transform="translate(0 0)"/><path class="cls-79" d="M484.21,96.9,458.09,61.11a.67.67,0,0,0-1-.06.87.87,0,0,0-.1,1.07l26.15,35.76a.66.66,0,0,0,1,.11A.84.84,0,0,0,484.21,96.9Z" transform="translate(0 0)"/><path class="cls-80" d="M374.32,190.36l8.63,5a.67.67,0,0,0,.95-.33.82.82,0,0,0-.3-1.05l-8.61-5a.7.7,0,0,0-1,.41A.86.86,0,0,0,374.32,190.36Z" transform="translate(0 0)"/><path class="cls-81" d="M374.7,190.45l49.83-3.18a.76.76,0,0,0,.67-.83.74.74,0,0,0-.75-.74h0l-49.84,3.14a.79.79,0,0,0-.65.89A.76.76,0,0,0,374.7,190.45Z" transform="translate(0 0)"/><path class="cls-82" d="M375.17,190.21l38.26-42.09a.85.85,0,0,0,0-1.12.66.66,0,0,0-1,0l-38.28,42.06a.87.87,0,0,0,0,1.14A.68.68,0,0,0,375.17,190.21Z" transform="translate(0 0)"/><path class="cls-83" d="M375.23,190.14l5.13-7.34a.85.85,0,0,0-.13-1.11.67.67,0,0,0-1,.14l-5.15,7.32a.87.87,0,0,0,.13,1.13A.68.68,0,0,0,375.23,190.14Z" transform="translate(0 0)"/><path class="cls-84" d="M210.48,181.74,272.56,180a.77.77,0,0,0,.7-.82.76.76,0,0,0-.74-.78h0l-62.08,1.71a.77.77,0,0,0-.7.82A.76.76,0,0,0,210.48,181.74Z" transform="translate(0 0)"/><path class="cls-3" d="M458.19,61.3l-11-28.15a.69.69,0,0,0-.95-.41.83.83,0,0,0-.37,1.05l11,28.15a.7.7,0,0,0,1,.42A.84.84,0,0,0,458.19,61.3Z" transform="translate(0 0)"/><path class="cls-85" d="M456.85,61.9l18.28,55a.7.7,0,0,0,.95.42.83.83,0,0,0,.4-1l-18.28-55a.71.71,0,0,0-.93-.48.83.83,0,0,0-.43,1Z" transform="translate(0 0)"/><path class="cls-86" d="M210.38,181.73,271.84,190a.75.75,0,0,0,.79-.74.8.8,0,0,0-.61-.87l-61.46-8.24a.74.74,0,0,0-.8.7.79.79,0,0,0,.63.89Z" transform="translate(0 0)"/><path class="cls-87" d="M441.14,0l4.66,33.59a.73.73,0,0,0,.82.67.79.79,0,0,0,.6-.91L442.61,0Z" transform="translate(0 0)"/><path class="cls-3" d="M271.83,179.17l-.62,10a.77.77,0,0,0,.72.82.76.76,0,0,0,.73-.71l.61-10a.76.76,0,0,0-.72-.8A.75.75,0,0,0,271.83,179.17Z" transform="translate(0 0)"/><path class="cls-88" d="M279.26,140.92l-7.42,38.14a.8.8,0,0,0,.55,1,.72.72,0,0,0,.86-.61l7.43-38.13a.81.81,0,0,0-.58-.95A.73.73,0,0,0,279.26,140.92Z" transform="translate(0 0)"/><path class="cls-89" d="M391.16,3.44l55,30.74a.69.69,0,0,0,1-.35.84.84,0,0,0-.32-1.07h0L391.82,2a.71.71,0,0,0-1,.41A.86.86,0,0,0,391.16,3.44Z" transform="translate(0 0)"/><path class="cls-90" d="M485.76,153.59l6.13,44.14a.73.73,0,0,0,.84.64.79.79,0,0,0,.59-.89l-6.11-44.14a.74.74,0,0,0-.88-.62A.81.81,0,0,0,485.76,153.59Z" transform="translate(0 0)"/><path class="cls-91" d="M487.19,153.22l-10.69-36.8a.7.7,0,0,0-.92-.48.82.82,0,0,0-.45,1l10.67,36.81a.71.71,0,0,0,1,.46A.84.84,0,0,0,487.19,153.22Z" transform="translate(0 0)"/><path class="cls-92" d="M279.25,141l-8,48.09a.81.81,0,0,0,.58.94.74.74,0,0,0,.85-.65h0l8-48.09a.81.81,0,0,0-.59-.95A.74.74,0,0,0,279.25,141Z" transform="translate(0 0)"/><polygon class="cls-93" points="534.27 0 540 7.54 540 5.02 536.2 0 534.27 0"/><path class="cls-94" d="M486.43,154.28,540,158.91v-1.64l-53.45-4.62a.77.77,0,0,0-.77.78A.8.8,0,0,0,486.43,154.28Z" transform="translate(0 0)"/><path class="cls-95" d="M249.7.42H0V224c23.31,14.69,49.6,23,77.43,23C173.32,247,251,148.86,251,27.79Q251,13.89,249.7.42Z" transform="translate(0 0)"/><path class="cls-96" d="M198.54.42c14.39,102.73,85.45,180.76,171,180.76S526,103.15,540.44.42Z" transform="translate(0 0)"/><path class="cls-97" d="M174.27,265.65a277.08,277.08,0,0,0,2.66-38.44C176.93,106.14,99.2,8,3.32,8,2.21,8,1.1,8,0,8v257.6Z" transform="translate(0 0)"/><path class="cls-3" d="M223.92,238a1,1,0,0,1-1.54-.43,1.69,1.69,0,0,1,.34-2,1,1,0,0,1,1.54.43A1.68,1.68,0,0,1,223.92,238Z" transform="translate(0 0)"/><path class="cls-3" d="M232.35,264.87a1,1,0,0,1-1.58-.44,1.73,1.73,0,0,1,.35-2,1,1,0,0,1,1.58.44A1.73,1.73,0,0,1,232.35,264.87Z" transform="translate(0 0)"/><path class="cls-3" d="M198.78,251.58a1,1,0,0,1-1.6-.45,1.75,1.75,0,0,1,.35-2,1,1,0,0,1,1.6.45A1.75,1.75,0,0,1,198.78,251.58Z" transform="translate(0 0)"/><path class="cls-3" d="M233.53,214.6a1,1,0,0,1-1.6-.45,1.76,1.76,0,0,1,.35-2.06,1,1,0,0,1,1.6.45A1.76,1.76,0,0,1,233.53,214.6Z" transform="translate(0 0)"/><path class="cls-3" d="M138.79,222.37a1,1,0,0,1-1.61-.45,1.76,1.76,0,0,1,.35-2.06,1,1,0,0,1,1.61.45A1.76,1.76,0,0,1,138.79,222.37Z" transform="translate(0 0)"/><path class="cls-3" d="M86.82,254.94a1,1,0,0,1-1.61-.45,1.77,1.77,0,0,1,.35-2.07,1,1,0,0,1,1.61.45A1.77,1.77,0,0,1,86.82,254.94Z" transform="translate(0 0)"/><path class="cls-3" d="M124.63,259.43A1,1,0,0,1,123,259a1.77,1.77,0,0,1,.35-2.07,1,1,0,0,1,1.61.45A1.77,1.77,0,0,1,124.63,259.43Z" transform="translate(0 0)"/><path class="cls-3" d="M215.83,155.38a1,1,0,0,1-1.62-.46,1.78,1.78,0,0,1,.36-2.08,1,1,0,0,1,1.62.46A1.78,1.78,0,0,1,215.83,155.38Z" transform="translate(0 0)"/><path class="cls-3" d="M176.86,188.87a1,1,0,0,1-1.63-.46,1.79,1.79,0,0,1,.36-2.09,1,1,0,0,1,1.63.46A1.79,1.79,0,0,1,176.86,188.87Z" transform="translate(0 0)"/><path class="cls-3" d="M131.84,223a1,1,0,0,1-1.63-.46,1.79,1.79,0,0,1,.36-2.1,1,1,0,0,1,1.63.46A1.79,1.79,0,0,1,131.84,223Z" transform="translate(0 0)"/><path class="cls-3" d="M89.68,251.55a1,1,0,0,1-1.64-.46,1.79,1.79,0,0,1,.36-2.1,1,1,0,0,1,1.64.46A1.79,1.79,0,0,1,89.68,251.55Z" transform="translate(0 0)"/><path class="cls-3" d="M71.88,245.22a1,1,0,0,1-1.64-.46,1.8,1.8,0,0,1,.36-2.1,1,1,0,0,1,1.64.46A1.8,1.8,0,0,1,71.88,245.22Z" transform="translate(0 0)"/><path class="cls-3" d="M41.82,258.57a1,1,0,0,1-1.65-.46,1.81,1.81,0,0,1,.36-2.12,1,1,0,0,1,1.65.46A1.81,1.81,0,0,1,41.82,258.57Z" transform="translate(0 0)"/><path class="cls-3" d="M270.9,247.85a1.05,1.05,0,0,1-1.65-.46,1.81,1.81,0,0,1,.36-2.12,1.05,1.05,0,0,1,1.65.46A1.81,1.81,0,0,1,270.9,247.85Z" transform="translate(0 0)"/><path class="cls-3" d="M156.51,250.58a1.05,1.05,0,0,1-1.65-.47,1.81,1.81,0,0,1,.36-2.12,1.05,1.05,0,0,1,1.65.47A1.81,1.81,0,0,1,156.51,250.58Z" transform="translate(0 0)"/><path class="cls-3" d="M99.14,253.13a1.05,1.05,0,0,1-1.65-.47,1.81,1.81,0,0,1,.36-2.12,1.05,1.05,0,0,1,1.65.47A1.81,1.81,0,0,1,99.14,253.13Z" transform="translate(0 0)"/><path class="cls-3" d="M290.92,250.19a1.06,1.06,0,0,1-1.66-.47,1.82,1.82,0,0,1,.37-2.13,1.06,1.06,0,0,1,1.66.47A1.82,1.82,0,0,1,290.92,250.19Z" transform="translate(0 0)"/><path class="cls-3" d="M89.78,246.21a1.06,1.06,0,0,1-1.67-.47,1.83,1.83,0,0,1,.37-2.14,1.06,1.06,0,0,1,1.67.47A1.83,1.83,0,0,1,89.78,246.21Z" transform="translate(0 0)"/><path class="cls-3" d="M111.84,265.64a1.08,1.08,0,0,1-1.69-.48,1.86,1.86,0,0,1,.37-2.17,1.08,1.08,0,0,1,1.69.48A1.86,1.86,0,0,1,111.84,265.64Z" transform="translate(0 0)"/><path class="cls-3" d="M77.16,241.25a1.08,1.08,0,0,1-1.7-.48,1.86,1.86,0,0,1,.37-2.18,1.08,1.08,0,0,1,1.7.48A1.86,1.86,0,0,1,77.16,241.25Z" transform="translate(0 0)"/><path class="cls-3" d="M157.43,202.9a1.13,1.13,0,0,1-1.77-.5,1.94,1.94,0,0,1,.39-2.27,1.13,1.13,0,0,1,1.77.5A1.94,1.94,0,0,1,157.43,202.9Z" transform="translate(0 0)"/><path class="cls-3" d="M246.35,224.5a1.17,1.17,0,0,1-1.84-.52,2,2,0,0,1,.4-2.35,1.17,1.17,0,0,1,1.84.52A2,2,0,0,1,246.35,224.5Z" transform="translate(0 0)"/><path class="cls-3" d="M192.88,151.53A1.17,1.17,0,0,1,191,151a2,2,0,0,1,.4-2.36,1.17,1.17,0,0,1,1.84.52A2,2,0,0,1,192.88,151.53Z" transform="translate(0 0)"/><path class="cls-3" d="M114.51,263.17a1.17,1.17,0,0,1-1.85-.52,2,2,0,0,1,.41-2.37,1.17,1.17,0,0,1,1.85.52A2,2,0,0,1,114.51,263.17Z" transform="translate(0 0)"/><path class="cls-3" d="M93.94,216.63a1.18,1.18,0,0,1-1.86-.52,2,2,0,0,1,.41-2.38,1.18,1.18,0,0,1,1.86.52A2,2,0,0,1,93.94,216.63Z" transform="translate(0 0)"/><path class="cls-3" d="M110,254.11a1.2,1.2,0,0,1-1.88-.53,2.06,2.06,0,0,1,.41-2.41,1.2,1.2,0,0,1,1.88.53A2.06,2.06,0,0,1,110,254.11Z" transform="translate(0 0)"/><path class="cls-3" d="M319.7,196.8a1.2,1.2,0,0,1-1.88-.53,2.06,2.06,0,0,1,.41-2.41,1.2,1.2,0,0,1,1.88.53A2.06,2.06,0,0,1,319.7,196.8Z" transform="translate(0 0)"/><path class="cls-3" d="M163.25,236.56a1.2,1.2,0,0,1-1.88-.53,2.06,2.06,0,0,1,.41-2.41,1.2,1.2,0,0,1,1.88.53A2.06,2.06,0,0,1,163.25,236.56Z" transform="translate(0 0)"/><path class="cls-3" d="M71.5,261.29a1.2,1.2,0,0,1-1.89-.53,2.07,2.07,0,0,1,.41-2.42,1.2,1.2,0,0,1,1.89.53A2.07,2.07,0,0,1,71.5,261.29Z" transform="translate(0 0)"/><path class="cls-3" d="M218,253.23a1.22,1.22,0,0,1-1.91-.54,2.1,2.1,0,0,1,.42-2.45,1.22,1.22,0,0,1,1.91.54A2.1,2.1,0,0,1,218,253.23Z" transform="translate(0 0)"/><path class="cls-3" d="M169.65,201.24a1.22,1.22,0,0,1-1.92-.54,2.11,2.11,0,0,1,.42-2.47,1.22,1.22,0,0,1,1.92.54A2.11,2.11,0,0,1,169.65,201.24Z" transform="translate(0 0)"/><path class="cls-3" d="M133.09,208.46a1.22,1.22,0,0,1-1.92-.54,2.11,2.11,0,0,1,.42-2.47,1.22,1.22,0,0,1,1.92.54A2.11,2.11,0,0,1,133.09,208.46Z" transform="translate(0 0)"/><path class="cls-3" d="M246.41,193.77a1.23,1.23,0,0,1-1.93-.54,2.12,2.12,0,0,1,.42-2.48,1.23,1.23,0,0,1,1.93.54A2.12,2.12,0,0,1,246.41,193.77Z" transform="translate(0 0)"/><path class="cls-3" d="M312.49,31.85a1.23,1.23,0,0,1-1.93-.54,2.12,2.12,0,0,1,.42-2.48,1.23,1.23,0,0,1,1.93.54A2.12,2.12,0,0,1,312.49,31.85Z" transform="translate(0 0)"/><path class="cls-3" d="M375.23,183.14a1.24,1.24,0,0,1-1.95-.55,2.13,2.13,0,0,1,.43-2.5,1.24,1.24,0,0,1,1.95.55A2.13,2.13,0,0,1,375.23,183.14Z" transform="translate(0 0)"/><path class="cls-3" d="M287.07,245.4a1.25,1.25,0,0,1-2-.55,2.15,2.15,0,0,1,.43-2.52,1.25,1.25,0,0,1,2,.55A2.15,2.15,0,0,1,287.07,245.4Z" transform="translate(0 0)"/><path class="cls-98" d="M232.3,263.34l-8.41-26.83a.57.57,0,0,0-.8-.42.87.87,0,0,0-.33,1l8.41,26.83a.57.57,0,0,0,.79.43A.87.87,0,0,0,232.3,263.34Z" transform="translate(0 0)"/><path class="cls-99" d="M224.9,266.5l7-2.1a.81.81,0,0,0,.45-.94c-.08-.42-.4-.68-.73-.58l-12,3.63Z" transform="translate(0 0)"/><path class="cls-100" d="M198,251.08l33.58,13.31c.32.13.66-.1.76-.52a.84.84,0,0,0-.4-1l-33.58-13.31c-.32-.13-.66.1-.76.52a.84.84,0,0,0,.4,1Z" transform="translate(0 0)"/><path class="cls-101" d="M232.34,263.66l1.17-50.29a.72.72,0,0,0-.6-.79.7.7,0,0,0-.61.74l-1.17,50.29a.72.72,0,0,0,.59.8A.7.7,0,0,0,232.34,263.66Z" transform="translate(0 0)"/><path class="cls-3" d="M197.86,266.5l.9-16.11a.74.74,0,0,0-.56-.84c-.34,0-.63.29-.65.72l-.91,16.23Z" transform="translate(0 0)"/><path class="cls-102" d="M198.54,250.93l34.75-37a.94.94,0,0,0,.08-1.1.52.52,0,0,0-.86-.1h0l-34.75,37a.94.94,0,0,0-.08,1.1A.52.52,0,0,0,198.54,250.93Z" transform="translate(0 0)"/><path class="cls-103" d="M137.62,220.77l-14.16,37.06a.89.89,0,0,0,.3,1,.55.55,0,0,0,.8-.35l14.16-37.06a.89.89,0,0,0-.3-1A.55.55,0,0,0,137.62,220.77Z" transform="translate(0 0)"/><path class="cls-104" d="M233.47,213.07l-17.71-59.23a.58.58,0,0,0-.79-.45.86.86,0,0,0-.35,1h0l17.71,59.23a.58.58,0,0,0,.79.45A.86.86,0,0,0,233.47,213.07Z" transform="translate(0 0)"/><path class="cls-105" d="M86.14,254.46l37.81,4.49c.34,0,.63-.3.65-.73a.75.75,0,0,0-.54-.83L86.25,252.9c-.33,0-.63.28-.66.71A.75.75,0,0,0,86.14,254.46Z" transform="translate(0 0)"/><path class="cls-106" d="M202.78,266.5h1.28a1,1,0,0,0,0-.22L198.71,250a.57.57,0,0,0-.8-.4.88.88,0,0,0-.32,1Z" transform="translate(0 0)"/><path class="cls-107" d="M195.68,266.5l3.06-16a.81.81,0,0,0-.46-.93c-.32-.09-.64.16-.72.56l-3.13,16.36Z" transform="translate(0 0)"/><path class="cls-108" d="M175.87,187l-38.06,33.52a.93.93,0,0,0-.16,1.09.53.53,0,0,0,.85.2l38.06-33.52a.93.93,0,0,0,.16-1.09A.53.53,0,0,0,175.87,187Z" transform="translate(0 0)"/><path class="cls-109" d="M127.52,266.5H129l-4.46-8.76a.53.53,0,0,0-.84-.23.92.92,0,0,0-.18,1.08Z" transform="translate(0 0)"/><path class="cls-3" d="M91.56,266.5H93l-6.27-13.23a.54.54,0,0,0-.84-.26.92.92,0,0,0-.2,1.07Z" transform="translate(0 0)"/><path class="cls-3" d="M138.13,220.33l-7,.56a.74.74,0,0,0-.57.83c0,.43.31.76.64.73l7-.56a.74.74,0,0,0,.57-.83C138.75,220.63,138.46,220.31,138.13,220.33Z" transform="translate(0 0)"/><path class="cls-110" d="M108.61,266.5l15.61-7.6a.87.87,0,0,0,.34-1,.58.58,0,0,0-.77-.44l-18.61,9.06Z" transform="translate(0 0)"/><path class="cls-111" d="M86.49,254.36l45-32a.91.91,0,0,0,.23-1.06.55.55,0,0,0-.82-.3l-45,32a.91.91,0,0,0-.23,1.06A.55.55,0,0,0,86.49,254.36Z" transform="translate(0 0)"/><path class="cls-3" d="M86.61,254.25l2.85-3.41a.94.94,0,0,0,0-1.1.52.52,0,0,0-.86,0l-2.85,3.41a.94.94,0,0,0,0,1.1A.52.52,0,0,0,86.61,254.25Z" transform="translate(0 0)"/><path class="cls-112" d="M124.59,258.36l7.2-36.5a.81.81,0,0,0-.46-.93c-.32-.09-.63.15-.72.55l-7.2,36.5a.82.82,0,0,0,.44.95c.33.11.66-.15.74-.57Z" transform="translate(0 0)"/><path class="cls-113" d="M127.2,266.5h1.42l-4.1-8.73a.54.54,0,0,0-.84-.27.92.92,0,0,0-.21,1.07Z" transform="translate(0 0)"/><path class="cls-114" d="M88.94,251l35,7.9c.33.06.64-.23.69-.66a.79.79,0,0,0-.48-.88l-35-7.91c-.33-.07-.65.21-.71.63A.79.79,0,0,0,88.94,251Z" transform="translate(0 0)"/><path class="cls-115" d="M71,244.63l15,9.74a.55.55,0,0,0,.82-.34.9.9,0,0,0-.27-1.05l-15-9.74a.55.55,0,0,0-.82.34A.9.9,0,0,0,71,244.63Z" transform="translate(0 0)"/><path class="cls-116" d="M176.56,188.25l39-33.48a.93.93,0,0,0,.17-1.08.53.53,0,0,0-.84-.21l-39,33.48a.93.93,0,0,0-.17,1.08A.53.53,0,0,0,176.56,188.25Z" transform="translate(0 0)"/><path class="cls-117" d="M126.12,266.5h1.32l-2.88-8.64a.57.57,0,0,0-.8-.41.88.88,0,0,0-.32,1Z" transform="translate(0 0)"/><path class="cls-118" d="M156.34,248.8l-17.7-28.18a.52.52,0,0,0-.86-.1.94.94,0,0,0-.09,1.08l17.7,28.18a.52.52,0,0,0,.86.1A.94.94,0,0,0,156.34,248.8Z" transform="translate(0 0)"/><path class="cls-119" d="M100,266.5l31.68-44.3a.94.94,0,0,0,0-1.1.52.52,0,0,0-.86,0L98.32,266.5Z" transform="translate(0 0)"/><path class="cls-3" d="M92.8,266.5h1.29L89.62,250c-.11-.41-.46-.61-.78-.47a.85.85,0,0,0-.37,1Z" transform="translate(0 0)"/><path class="cls-120" d="M175.91,186.92,130.9,221a.92.92,0,0,0-.19,1.08.54.54,0,0,0,.81.27l45-34.08a.92.92,0,0,0,.19-1.08A.54.54,0,0,0,175.91,186.92Z" transform="translate(0 0)"/><path class="cls-121" d="M98.42,251.07l-12.3,1.84a.76.76,0,0,0-.53.87c0,.43.34.74.68.69l12.3-1.84a.76.76,0,0,0,.53-.87C99.06,251.32,98.76,251,98.42,251.07Z" transform="translate(0 0)"/><path class="cls-122" d="M155.73,248.53l-31.86,8.88a.8.8,0,0,0-.47.93c.07.42.4.69.72.6L156,250.05a.8.8,0,0,0,.47-.93C156.38,248.7,156.06,248.43,155.73,248.53Z" transform="translate(0 0)"/><path class="cls-123" d="M89.26,266.5h1.79l-19.4-23.14a.52.52,0,0,0-.86,0,.94.94,0,0,0,0,1.1Z" transform="translate(0 0)"/><path class="cls-124" d="M89.33,251l42.17-28.59a.9.9,0,0,0,.25-1.06.55.55,0,0,0-.82-.33L88.76,249.58a.9.9,0,0,0-.24,1.06A.55.55,0,0,0,89.33,251Z" transform="translate(0 0)"/><path class="cls-3" d="M71.07,244.69,88.88,251c.33.11.66-.14.74-.56a.83.83,0,0,0-.42-.95l-17.8-6.33c-.32-.12-.66.13-.75.54A.83.83,0,0,0,71.07,244.69Z" transform="translate(0 0)"/><path class="cls-125" d="M155.66,266.5l.81-17.16a.74.74,0,0,0-.57-.83c-.34,0-.62.3-.64.73l-.81,17.26Z" transform="translate(0 0)"/><path class="cls-126" d="M86.76,254l2.93-8.78a.87.87,0,0,0-.33-1,.57.57,0,0,0-.79.4l-2.93,8.78a.87.87,0,0,0,.33,1A.57.57,0,0,0,86.76,254Z" transform="translate(0 0)"/><path class="cls-3" d="M96.62,266.5,99.09,252a.8.8,0,0,0-.48-.92c-.32-.08-.64.18-.71.59L95.37,266.5Z" transform="translate(0 0)"/><path class="cls-127" d="M71.37,243.17l-33.45-9.7c-.33-.09-.65.18-.72.6a.81.81,0,0,0,.45.92l33.45,9.7c.33.1.65-.17.73-.59A.81.81,0,0,0,71.37,243.17Z" transform="translate(0 0)"/><path class="cls-128" d="M89.59,249.94,71,199a.56.56,0,0,0-.81-.38.89.89,0,0,0-.29,1l18.56,51a.56.56,0,0,0,.81.38.89.89,0,0,0,.29-1Z" transform="translate(0 0)"/><path class="cls-129" d="M156.26,248.7l-24.66-27.61a.52.52,0,0,0-.86.08.94.94,0,0,0,.06,1.1l24.66,27.61a.52.52,0,0,0,.86-.08A.94.94,0,0,0,156.26,248.7Z" transform="translate(0 0)"/><path class="cls-130" d="M155.7,250,201,266.5h3a.76.76,0,0,0-.43-.67L156,248.54c-.33-.11-.66.14-.74.55A.83.83,0,0,0,155.7,250Z" transform="translate(0 0)"/><path class="cls-131" d="M98.85,252.48l32.71-30.17a.93.93,0,0,0,.14-1.09.53.53,0,0,0-.85-.18L98.14,251.21A.93.93,0,0,0,98,252.3.53.53,0,0,0,98.85,252.48Z" transform="translate(0 0)"/><path class="cls-132" d="M154.18,266.5l2.28-17.08a.78.78,0,0,0-.51-.89c-.32-.06-.63.21-.69.63l-2.32,17.34Z" transform="translate(0 0)"/><path class="cls-3" d="M98.57,251.07l-9.45-1.57c-.33,0-.63.27-.67.69A.77.77,0,0,0,89,251l9.45,1.58c.33.06.64-.25.68-.67A.77.77,0,0,0,98.57,251.07Z" transform="translate(0 0)"/><path class="cls-133" d="M71.85,243.92l-.76-44.63a.69.69,0,0,0-.64-.74.72.72,0,0,0-.58.78L70.63,244a.7.7,0,0,0,.63.76A.72.72,0,0,0,71.85,243.92Z" transform="translate(0 0)"/><path class="cls-134" d="M71,243.2,41,256.54a.86.86,0,0,0-.36,1,.59.59,0,0,0,.76.47l30.07-13.34a.86.86,0,0,0,.36-1A.59.59,0,0,0,71,243.2Z" transform="translate(0 0)"/><path class="cls-135" d="M170.65,266.5h1.88l-16.27-17.81a.52.52,0,0,0-.86.11.94.94,0,0,0,.07,1.08Z" transform="translate(0 0)"/><path class="cls-3" d="M71.1,244.7l27.26,7.91c.33.1.65-.17.73-.59a.81.81,0,0,0-.46-.93l-27.26-7.91c-.33-.1-.65.17-.73.59A.81.81,0,0,0,71.1,244.7Z" transform="translate(0 0)"/><path class="cls-3" d="M37.18,234.38l3.39,23c.06.42.38.7.71.62a.79.79,0,0,0,.49-.91l-3.39-23c-.07-.42-.39-.7-.72-.61A.79.79,0,0,0,37.18,234.38Z" transform="translate(0 0)"/><path class="cls-136" d="M151.34,266.5l5.09-16.93a.86.86,0,0,0-.35-1,.58.58,0,0,0-.79.45L150,266.5Z" transform="translate(0 0)"/><path class="cls-137" d="M43.93,266.5h1.26L38.37,234c-.09-.42-.42-.66-.75-.55a.82.82,0,0,0-.43,1Z" transform="translate(0 0)"/><path class="cls-138" d="M93.14,266.5H94.4l-4.69-21.81c-.09-.42-.42-.66-.75-.55a.83.83,0,0,0-.43,1Z" transform="translate(0 0)"/><path class="cls-139" d="M41.74,266.5l0-9.22a.63.63,0,1,0-1.22,0l0,9.23Z" transform="translate(0 0)"/><path class="cls-140" d="M70,198.88l-29.31,58a.92.92,0,0,0,.18,1.08.53.53,0,0,0,.84-.23l29.31-58a.92.92,0,0,0-.18-1.08A.53.53,0,0,0,70,198.88Z" transform="translate(0 0)"/><path class="cls-3" d="M42.92,266.5h1.28L41.75,257c-.11-.41-.45-.63-.77-.49a.85.85,0,0,0-.38,1Z" transform="translate(0 0)"/><path class="cls-141" d="M91.36,266.5l-1.71-16.34c0-.43-.36-.72-.69-.66a.77.77,0,0,0-.52.87l1.69,16.13Z" transform="translate(0 0)"/><path class="cls-142" d="M99,251.4,71,198.86a.53.53,0,0,0-.85-.19.93.93,0,0,0-.16,1.08l28,52.54a.53.53,0,0,0,.85.2A.93.93,0,0,0,99,251.4Z" transform="translate(0 0)"/><path class="cls-143" d="M89.65,250.28l.09-5.37a.71.71,0,0,0-.61-.78.7.7,0,0,0-.61.75l-.09,5.37A.71.71,0,0,0,89,251,.7.7,0,0,0,89.65,250.28Z" transform="translate(0 0)"/><path class="cls-144" d="M84.14,266.5h1.54l-14-23a.52.52,0,0,0-.85-.14.94.94,0,0,0-.11,1.1Z" transform="translate(0 0)"/><path class="cls-145" d="M71.21,244.72l17.89,1a.69.69,0,0,0,.63-.75.73.73,0,0,0-.58-.81h0l-17.89-1a.69.69,0,0,0-.63.75A.73.73,0,0,0,71.21,244.72Z" transform="translate(0 0)"/><path class="cls-146" d="M257.56,266.5l13.15-19.43a.94.94,0,0,0-.06-1.1.52.52,0,0,0-.86.08L255.95,266.5Z" transform="translate(0 0)"/><path class="cls-147" d="M206.54,266.5l-3-.69c-.33-.08-.65.2-.71.63,0,0,0,0,0,.06Z" transform="translate(0 0)"/><path class="cls-3" d="M270.2,247.34l20,2.33c.34,0,.63-.29.65-.72a.75.75,0,0,0-.54-.84l-20-2.33c-.34,0-.63.29-.66.72A.75.75,0,0,0,270.2,247.34Z" transform="translate(0 0)"/><path class="cls-148" d="M69.94,199.67l18.65,45.6a.55.55,0,0,0,.82.33.9.9,0,0,0,.26-1.05h0L71,198.94a.55.55,0,0,0-.82-.33A.9.9,0,0,0,69.94,199.67Z" transform="translate(0 0)"/><path class="cls-149" d="M89,244.14l-48,12.38a.8.8,0,0,0-.48.92c.07.42.39.7.72.61h0l48-12.38a.8.8,0,0,0,.48-.92C89.66,244.32,89.34,244.05,89,244.14Z" transform="translate(0 0)"/><path class="cls-3" d="M95.49,266.5l3.58-14.42a.84.84,0,0,0-.4-1c-.32-.13-.66.1-.76.51l-3.7,14.89Z" transform="translate(0 0)"/><path class="cls-3" d="M98.8,251.16l-9.37-6.94a.55.55,0,0,0-.83.3.91.91,0,0,0,.22,1l9.37,6.94a.54.54,0,0,0,.83-.29A.91.91,0,0,0,98.8,251.16Z" transform="translate(0 0)"/><path class="cls-150" d="M37.11,266.5l4.56-8.79a.93.93,0,0,0-.17-1.08.53.53,0,0,0-.84.22l-5,9.65Z" transform="translate(0 0)"/><path class="cls-151" d="M154.51,266.5l2-17.1a.77.77,0,0,0-.51-.89c-.33-.06-.64.23-.69.66l-2,17.32Z" transform="translate(0 0)"/><path class="cls-37" d="M111.46,263.61l-22.14-14a.56.56,0,0,0-.81.37.89.89,0,0,0,.27,1L110.91,265a.56.56,0,0,0,.82-.36A.9.9,0,0,0,111.46,263.61Z" transform="translate(0 0)"/><path class="cls-152" d="M152.64,266.5l3.81-17a.83.83,0,0,0-.42-1c-.32-.12-.66.12-.75.53l-3.9,17.43Z" transform="translate(0 0)"/><path class="cls-3" d="M91.58,266.5l-1.85-21.68c0-.43-.34-.74-.67-.69a.76.76,0,0,0-.54.86l1.84,21.51Z" transform="translate(0 0)"/><path class="cls-153" d="M77.11,239.77l-6-40.61c-.06-.42-.38-.7-.71-.62a.79.79,0,0,0-.48.91l6,40.61c.06.43.39.71.72.63A.8.8,0,0,0,77.11,239.77Z" transform="translate(0 0)"/><path class="cls-154" d="M76.28,239.18,41,256.55a.87.87,0,0,0-.33,1,.58.58,0,0,0,.76.44l35.33-17.35a.88.88,0,0,0,.33-1A.58.58,0,0,0,76.28,239.18Z" transform="translate(0 0)"/><path class="cls-155" d="M111.56,263.69,98.86,251.22a.53.53,0,0,0-.85.15.94.94,0,0,0,.11,1.1h0l12.69,12.48a.53.53,0,0,0,.86-.15A.94.94,0,0,0,111.56,263.69Z" transform="translate(0 0)"/><path class="cls-156" d="M61.4,266.5,77,240.4a.94.94,0,0,0-.11-1.1.53.53,0,0,0-.86.15L59.86,266.5Z" transform="translate(0 0)"/><path class="cls-157" d="M76.26,240.64l22,11.92a.57.57,0,0,0,.8-.42.87.87,0,0,0-.32-1l-22-11.93a.58.58,0,0,0-.8.44A.88.88,0,0,0,76.26,240.64Z" transform="translate(0 0)"/><path class="cls-158" d="M109.4,266.5l2.08-1.5a.92.92,0,0,0,.22-1.08.55.55,0,0,0-.82-.29l-4,2.87Z" transform="translate(0 0)"/><path class="cls-159" d="M111.53,263.67,89.47,244.26a.53.53,0,0,0-.85.21.93.93,0,0,0,.16,1.08L110.84,265a.54.54,0,0,0,.85-.21A.94.94,0,0,0,111.53,263.67Z" transform="translate(0 0)"/><path class="cls-160" d="M76.32,240.67l12.63,5c.32.13.66-.1.76-.52a.84.84,0,0,0-.4-1h0l-12.62-5c-.33-.12-.67.11-.76.53A.85.85,0,0,0,76.32,240.67Z" transform="translate(0 0)"/><path class="cls-161" d="M112,266.5h1.7l-2-2.73a.52.52,0,0,0-.87,0,1,1,0,0,0,0,1.11Z" transform="translate(0 0)"/><path class="cls-162" d="M110.9,265l2.19,1.49h2.62l-4.24-2.88a.55.55,0,0,0-.83.33A.91.91,0,0,0,110.9,265Z" transform="translate(0 0)"/><path class="cls-163" d="M111.48,263.63,76.8,239.23a.55.55,0,0,0-.83.31.91.91,0,0,0,.24,1.07h0L110.89,265a.55.55,0,0,0,.83-.31.91.91,0,0,0-.24-1.07Z" transform="translate(0 0)"/><path class="cls-164" d="M17.35,266.5h1.32L1.21,202.61c-.12-.42-.47-.63-.79-.48a.87.87,0,0,0-.38,1Z" transform="translate(0 0)"/><path class="cls-165" d="M93.2,214.32l-60.81,1.47a.79.79,0,0,0-.63.88.76.76,0,0,0,.66.81L93.23,216a.79.79,0,0,0,.66-.88A.78.78,0,0,0,93.2,214.32Z" transform="translate(0 0)"/><path class="cls-166" d="M192.3,149.25l-39.91-10.62c-.36-.1-.72.2-.8.67a.88.88,0,0,0,.52,1L192,150.93c.36.09.71-.21.78-.67A.88.88,0,0,0,192.3,149.25Z" transform="translate(0 0)"/><path class="cls-167" d="M113.28,266.5l1.14-4.51a.93.93,0,0,0-.43-1.08c-.35-.15-.73.1-.84.55l-1.27,5Z" transform="translate(0 0)"/><path class="cls-168" d="M114.37,261.3,93.8,214.76a.6.6,0,0,0-.92-.32,1,1,0,0,0-.25,1.17l20.58,46.54a.59.59,0,0,0,.91.31A1,1,0,0,0,114.37,261.3Z" transform="translate(0 0)"/><path class="cls-3" d="M114.35,261.26l-4.46-9.09a.6.6,0,0,0-.94-.26,1,1,0,0,0-.21,1.19l4.48,9.07a.59.59,0,0,0,.92.27,1,1,0,0,0,.21-1.18Z" transform="translate(0 0)"/><path class="cls-169" d="M162.24,234.28l-48.72,26.65a1,1,0,0,0-.34,1.13.62.62,0,0,0,.87.45l48.73-26.62a1,1,0,0,0,.36-1.15A.64.64,0,0,0,162.24,234.28Z" transform="translate(0 0)"/><path class="cls-170" d="M107.74,266.5,110,252.82a.88.88,0,0,0-.54-1c-.36-.09-.71.2-.79.66l-2.29,14Z" transform="translate(0 0)"/><path class="cls-171" d="M70.74,260.69l43,1.89a.76.76,0,0,0,.69-.83.8.8,0,0,0-.64-.89l-43-1.93a.79.79,0,0,0-.7.86A.82.82,0,0,0,70.74,260.69Z" transform="translate(0 0)"/><path class="cls-172" d="M92.63,215.6l16.1,37.47a.61.61,0,0,0,.93.32,1,1,0,0,0,.26-1.16L93.8,214.76a.6.6,0,0,0-.91-.34A1,1,0,0,0,92.63,215.6Z" transform="translate(0 0)"/><path class="cls-173" d="M71.34,260.29l22.44-44.64a1,1,0,0,0-.23-1.19.59.59,0,0,0-.9.25L70.19,259.34a1,1,0,0,0,.22,1.21A.6.6,0,0,0,71.34,260.29Z" transform="translate(0 0)"/><path class="cls-174" d="M41.49,266.5l29.37-5.82a.87.87,0,0,0,.57-1c-.06-.48-.41-.81-.78-.73L32.6,266.5Z" transform="translate(0 0)"/><path class="cls-175" d="M162.34,234.24,109.15,251.8a.91.91,0,0,0-.49,1.06c.09.47.46.75.83.63l53.2-17.55a.92.92,0,0,0,.48-1.07C163.06,234.4,162.7,234.13,162.34,234.24Z" transform="translate(0 0)"/><path class="cls-176" d="M117.11,151.49,92.61,214.8a1,1,0,0,0,.3,1.16.61.61,0,0,0,.9-.39l24.53-63.29a1,1,0,0,0-.31-1.18A.63.63,0,0,0,117.11,151.49Z" transform="translate(0 0)"/><path class="cls-177" d="M70.86,260.68l38.55-7.17a.87.87,0,0,0,.56-1c-.06-.46-.39-.79-.76-.73l-38.55,7.16a.87.87,0,0,0-.58,1c.05.48.4.81.78.74Z" transform="translate(0 0)"/><path class="cls-178" d="M132.23,206.07l-39.12,8.26a.86.86,0,0,0-.56,1c.06.47.41.79.77.71h0l39.13-8.2a.89.89,0,0,0,.57-1C133,206.32,132.61,206,132.23,206.07Z" transform="translate(0 0)"/><path class="cls-179" d="M217.38,250.87l-54.72-16.63c-.37-.1-.73.19-.81.66a.91.91,0,0,0,.5,1l54.71,16.66c.37.11.75-.18.83-.66A.92.92,0,0,0,217.38,250.87Z" transform="translate(0 0)"/><path class="cls-180" d="M131.76,206.47l-23,45.7a1,1,0,0,0,.21,1.2.6.6,0,0,0,.93-.26l23-45.68a1.06,1.06,0,0,0-.21-1.24.61.61,0,0,0-1,.27Z" transform="translate(0 0)"/><path class="cls-181" d="M168.22,199.54l-6.38,35.35a.91.91,0,0,0,.51,1c.37.11.73-.18.82-.65l6.41-35.34a.92.92,0,0,0-.54-1.06C168.68,198.78,168.32,199.07,168.22,199.54Z" transform="translate(0 0)"/><path class="cls-182" d="M131.93,207.67l30.18,28.12a.59.59,0,0,0,1-.21,1,1,0,0,0-.15-1.21l-30.16-28.15a.6.6,0,0,0-1,.2A1.07,1.07,0,0,0,131.93,207.67Z" transform="translate(0 0)"/><path class="cls-183" d="M169.31,199l-51.18-47.85a.6.6,0,0,0-1,.22,1.06,1.06,0,0,0,.15,1.21l51.17,47.87a.6.6,0,0,0,1-.21A1.07,1.07,0,0,0,169.31,199Z" transform="translate(0 0)"/><path class="cls-184" d="M374.34,180.73l-55.5,13.75a.9.9,0,0,0-.52,1c.08.45.42.75.78.67l55.51-13.69a.92.92,0,0,0,.56-1.06c-.07-.49-.44-.81-.83-.72Z" transform="translate(0 0)"/><path class="cls-185" d="M133,206.66,118.38,151.6c-.13-.46-.52-.7-.88-.53a1,1,0,0,0-.42,1.1l14.6,55.07c.13.47.53.71.89.54A1,1,0,0,0,133,206.66Z" transform="translate(0 0)"/><path class="cls-186" d="M168.45,200.42l48.32,52a.6.6,0,0,0,1-.14,1.07,1.07,0,0,0-.08-1.22l-48.32-52a.6.6,0,0,0-1,.11,1.08,1.08,0,0,0,.09,1.26Z" transform="translate(0 0)"/><path class="cls-187" d="M245.06,191.79l-28.43,59.47a1,1,0,0,0,.24,1.22.61.61,0,0,0,.94-.29l28.44-59.47a1,1,0,0,0-.25-1.23A.62.62,0,0,0,245.06,191.79Z" transform="translate(0 0)"/><path class="cls-188" d="M168.8,198.86l-36.56,7.21a.89.89,0,0,0-.58,1c.06.49.41.82.79.75L169,200.62a.89.89,0,0,0,.58-1C169.53,199.12,169.18,198.78,168.8,198.86Z" transform="translate(0 0)"/><path class="cls-189" d="M286.8,243.21l-40.65-51.59a.6.6,0,0,0-1,0,1.09,1.09,0,0,0,0,1.24l40.63,51.61a.61.61,0,0,0,1,0A1.1,1.1,0,0,0,286.8,243.21Z" transform="translate(0 0)"/><text class="cls-190" transform="translate(30.18 78.61)">Enabling businesses<tspan x="0" y="33">for contemporary </tspan><tspan x="0" y="66">success.</tspan></text><text class="cls-191" transform="translate(30.18 172.25)">Unlocking Growth and Success with<tspan x="0" y="13.2">Integrated Software, Data Management,</tspan><tspan x="0" y="26.4">and Development Services for Businesses </tspan><tspan x="0" y="39.6">Embracing the Digital Era.</tspan></text></g></g></svg>