<svg xmlns="http://www.w3.org/2000/svg" viewBox="0 0 48 48"><defs><style>.cls-1{fill:#1e0f00;}</style></defs><title>Asset 231</title><g id="Layer_2" data-name="Layer 2"><g id="_1" data-name="1"><path class="cls-1" d="M24,48A24,24,0,1,1,48,24,24,24,0,0,1,24,48ZM24,2A22,22,0,1,0,46,24,22,22,0,0,0,24,2Z"/><rect class="cls-1" x="4" y="23" width="4" height="2"/><rect class="cls-1" x="40" y="23" width="4" height="2"/><rect class="cls-1" x="23" y="4" width="2" height="4"/><rect class="cls-1" x="23" y="40" width="2" height="4"/><rect class="cls-1" x="6.41" y="32" width="4" height="2" transform="translate(-15.37 8.62) rotate(-29.99)"/><rect class="cls-1" x="37.59" y="14" width="4" height="2" transform="translate(-2.2 21.8) rotate(-29.99)"/><rect class="cls-1" x="13" y="38.59" width="4" height="2" transform="translate(-26.79 32.79) rotate(-60.01)"/><rect class="cls-1" x="31" y="7.41" width="4" height="2" transform="translate(9.22 32.79) rotate(-60.01)"/><rect class="cls-1" x="14" y="6.41" width="2" height="4" transform="translate(-2.2 8.63) rotate(-30)"/><rect class="cls-1" x="32" y="37.59" width="2" height="4" transform="translate(-15.37 21.81) rotate(-30)"/><rect class="cls-1" x="7.41" y="13" width="2" height="4" transform="translate(-8.78 14.78) rotate(-60)"/><rect class="cls-1" x="38.59" y="31" width="2" height="4" transform="translate(-8.79 50.78) rotate(-60)"/><path class="cls-1" d="M24,34a1,1,0,0,1-.45-.11A1,1,0,0,1,23,33V29l-6.4,4.8A1,1,0,0,1,15,33V15a1,1,0,0,1,1.6-.8L23,19V15a1,1,0,0,1,1.6-.8l12,9a1,1,0,0,1,0,1.6l-12,9A1,1,0,0,1,24,34Zm0-8a1,1,0,0,1,.45.11A1,1,0,0,1,25,27v4l9.33-7L25,17v4a1,1,0,0,1-1.6.8L17,17V31l6.4-4.8A1,1,0,0,1,24,26Z"/></g></g></svg>