<svg xmlns="http://www.w3.org/2000/svg" viewBox="0 0 500 500"><defs><style>.cls-1{fill:#fff;}.cls-14,.cls-2{fill:#e2e7ff;}.cls-2{opacity:0.38;}.cls-3{fill:#61a27d;}.cls-4{fill:#578b71;}.cls-5{fill:#7cc97d;}.cls-6{fill:#a9a7e7;}.cls-7{fill:#24adb2;}.cls-8{fill:#26c6da;}.cls-9{fill:#e1543c;}.cls-10{fill:#ff634d;}.cls-11{fill:#eb594d;}.cls-12{fill:#202f7c;}.cls-13{fill:#4f57a0;}.cls-15{fill:#243fa7;}.cls-16{fill:#ff8d68;}.cls-17{fill:#c2d3eb;}.cls-18{fill:#ffc757;}.cls-19{fill:#201360;}.cls-20,.cls-21,.cls-30,.cls-33,.cls-36,.cls-37,.cls-40,.cls-42,.cls-43{fill:none;}.cls-20{stroke:#1b2048;stroke-width:0.83px;}.cls-20,.cls-21,.cls-30,.cls-33,.cls-37,.cls-40,.cls-42,.cls-43{stroke-miterlimit:10;}.cls-21{stroke:#e66657;stroke-width:1.28px;}.cls-22{fill:#2e60be;}.cls-23{fill:#26c6f8;}.cls-24{fill:#cae5ff;}.cls-25{fill:#387ab6;}.cls-26{fill:#dce4ff;}.cls-27{fill:#fba894;}.cls-28{fill:#713336;}.cls-29{fill:#505e83;opacity:0.53;}.cls-30{stroke:#87b8eb;stroke-width:0.36px;}.cls-31{fill:#6787ff;}.cls-32,.cls-35{fill:#bfd9ff;}.cls-33{stroke:#a9a7e7;stroke-width:0.75px;}.cls-34{fill:#edf4ff;}.cls-35{opacity:0.9;}.cls-36{stroke:#a9c2ff;stroke-linecap:round;stroke-linejoin:round;stroke-width:1.08px;}.cls-37{stroke:#84aee5;stroke-width:0.36px;}.cls-38{fill:#ffa402;}.cls-39{fill:#c2d4d9;}.cls-40{stroke:#202f7c;stroke-width:1.1px;}.cls-41{fill:#7a82cc;}.cls-42{stroke:#4f57a0;}.cls-43{stroke:#fff;stroke-width:2px;}</style></defs><title>careerImg</title><g id="BACKGROUND"><rect class="cls-1" width="500" height="500"/></g><g id="OBJECTS"><path class="cls-2" d="M234.82,63c100.06,5.38,104.36,113,93.6,154.93s71,51.64,80.69,120.5-53.79,97.91-99,99-80.69-25.82-88.22-59.17-29-49.49-66.7-55.95-105.44-57-93.6-122.65c0,0,2.77-69.83,68.32-116.2C174,52.22,234.82,63,234.82,63Z" transform="translate(0 1)"/><path class="cls-3" d="M170.1,227.85s-2.73-34.76,7.5-57.93c4.09-5.45,6.82-3.41,6.82-3.41s1.36,14.31-2,27.94-5.45,40.21-5.45,40.21Z" transform="translate(0 1)"/><path class="cls-4" d="M168.06,225.13s-.68-16.36-17.72-30.67-20.45-14.31-20.45-14.31,13.63-.68,23.17,5.45,12.95,23.17,13.63,25.9,4.77,13.63,4.77,13.63Z" transform="translate(0 1)"/><path class="cls-4" d="M179.11,227.63s3.19-16.06,22.23-27.57,22.41-11,22.41-11-13.36-2.77-23.74,1.82-16.37,20.9-17.46,23.49-6.81,12.73-6.81,12.73Z" transform="translate(0 1)"/><path class="cls-5" d="M171.46,225.13s-17.72-58.62-33.4-72.25c.68-2,19.08,4.09,24.54,19.08s6.82,37.49,8.86,43.62a100.22,100.22,0,0,0,4.77,11.59" transform="translate(0 1)"/><path class="cls-5" d="M170.1,227.85s6.82-32,24.54-42.94c1.36,4.09-18.4,37.49-16.36,52.48S170.1,227.85,170.1,227.85Z" transform="translate(0 1)"/><path class="cls-6" d="M160.37,264h26.21c1.61-10.93,3-20.76,3.22-24.52a35.63,35.63,0,0,0-3.39-17H160.54a35.63,35.63,0,0,0-3.39,17C157.4,243.2,158.76,253,160.37,264Z" transform="translate(0 1)"/><rect class="cls-7" x="350.97" y="199.68" width="48.07" height="65.04"/><rect class="cls-8" x="346.03" y="199.68" width="48.07" height="65.04"/><rect class="cls-9" x="334.01" y="193.09" width="48.07" height="71.63"/><rect class="cls-10" x="321.99" y="193.09" width="55.14" height="71.63"/><rect class="cls-11" x="367.71" y="193.09" width="9.43" height="71.63"/><path class="cls-12" d="M101.9,210s-7.54,3.77-10.84,14.61,14.61,40.06,14.61,38.65,17.91-9.43,17.91-9.43l-9-33Z" transform="translate(0 1)"/><polyline class="cls-13" points="290.25 268.2 280.29 241.89 255.4 241.89 265.36 268.2"/><polyline class="cls-14" points="199.93 247.1 341.45 247.1 343.93 233.83 202.4 233.83"/><path class="cls-15" d="M214.93,165.65,202.4,232.83H343.93l12.24-65.63a4.24,4.24,0,0,0-4.17-5H219.1A4.24,4.24,0,0,0,214.93,165.65Z" transform="translate(0 1)"/><polygon class="cls-1" points="284.64 258.71 322.11 230.79 285.35 228.67 250.71 255.53 284.64 258.71"/><path class="cls-16" d="M274.16,248.64l9.43-5.18s9.1-3.77,9.37-3.77,1.06.88.09,2.74-3.53,2.3-3.53,2.3l-1.68,4.68,8.72-1.24,2-.47a39.25,39.25,0,0,1-2,4.36,25.77,25.77,0,0,1-3.89,2.95s-6.24,5.18-8.48,5.77-10,.94-10,.94l-4.95-.12-4.59.94a21.34,21.34,0,0,1-2-10.49Z" transform="translate(0 1)"/><polygon class="cls-14" points="330 271.32 357.34 449.46 363.94 449.46 346.03 270.38 330 271.32"/><polygon class="cls-14" points="385.61 271.32 412.95 449.46 419.55 449.46 401.64 270.38 385.61 271.32"/><polygon class="cls-17" points="225.38 271.32 198.04 449.46 191.45 449.46 209.35 270.38 225.38 271.32"/><polygon class="cls-17" points="169.77 271.32 142.43 449.46 135.84 449.46 153.74 270.38 169.77 271.32"/><rect class="cls-6" x="159.4" y="269.43" width="246.01" height="8.48"/><path class="cls-18" d="M410.12,272.2H166.94a4.71,4.71,0,0,1-4.71-4.71h0a4.71,4.71,0,0,1,4.71-4.71H410.12a4.71,4.71,0,0,1,4.71,4.71h0A4.71,4.71,0,0,1,410.12,272.2Z" transform="translate(0 1)"/><path class="cls-19" d="M175.09,430.56s1.55-3.79,8-3.11,7.26,1.87,8.16,5,3.29,6.52,4.8,7.18,7.12,4.1,11.6,4.63,5.1,3.21,4.18,4.49-17.65,3.09-21.38,2.78c0,0-12.59.37-15.6-.47S174.9,431.8,175.09,430.56Z" transform="translate(0 1)"/><path class="cls-16" d="M176.8,403.42,174.86,433A32.93,32.93,0,0,1,183,437c5.18,3.8,9.42-.8,9.42-.8l1.17-18.59Z" transform="translate(0 1)"/><path class="cls-12" d="M214.3,351.38l-19.09,82s-9.9,1.41-21.91-4.24c0,0,10.6-77.05,11.31-82S212.89,347.14,214.3,351.38Z" transform="translate(0 1)"/><path class="cls-16" d="M136.93,139.22s7.84,1.46,13,13,3.91,36.87,1.2,40-11.63,2.61-24.15-.62c-13.23-3.41-18.5-16.59-21.41-25.31C100,149.6,113.62,131.12,136.93,139.22Z" transform="translate(0 1)"/><path class="cls-16" d="M115.18,206.77l4.51-21.59s11.6-4.24,19.52,3.16l2.69,3.29.92,13.8A79.12,79.12,0,0,1,115.18,206.77Z" transform="translate(0 1)"/><path class="cls-19" d="M114.93,339.53a195.67,195.67,0,0,0,55.21,6.37c30-1,33.92-9.51,34.85-17.61s-22.37-13-32.5-15.69S127.7,300,118.32,310.09,106.77,332.62,114.93,339.53Z" transform="translate(0 1)"/><path class="cls-19" d="M245.07,430.56s1.55-3.79,8-3.11,7.26,1.87,8.16,5,3.29,6.52,4.8,7.18,7.12,4.1,11.6,4.63,5.1,3.21,4.18,4.49-17.65,3.09-21.38,2.78c0,0-12.59.37-15.6-.47S244.88,431.8,245.07,430.56Z" transform="translate(0 1)"/><path class="cls-16" d="M237.63,405.58l7.07,28.75s5.66-1.41,9,1.41,9.43.94,9.43.94l-5.18-22.62Z" transform="translate(0 1)"/><path class="cls-12" d="M179.19,309.44c1.41,0,49.48,16,58.91,23.09,9.43,7.54,24.51,91.55,25.45,93.43s-13.67,7.07-23.09,5.66c-.47-1.89-22.62-72.69-22.62-77.41,0,0-37.7-1.89-53.73-4.71s-26.86-3.3-33.46-20.74,32-18.85,32-18.85Z" transform="translate(0 1)"/><path class="cls-14" d="M261.43,247.46s9.19-.24,9.9.71,4,9.43.94,13L269.68,263h-8Z" transform="translate(0 1)"/><path class="cls-14" d="M113.57,203.63l2.47-6.36s14.85-4.59,27.57,1.06a25.28,25.28,0,0,1,4.95,8.13Z" transform="translate(0 1)"/><path class="cls-12" d="M110.39,204.34s1.89-3.3,5.18-3.77,18.38-2.36,28.28.47a16.9,16.9,0,0,1,5.66,3.3s14.14,4.71,18.85,7.54,6.13,24.51,7.07,31.58-1.89,14.61-1.89,14.61,11.31,46.19,11.31,52.78-3.77,14.14-17,18.85-49,2.83-61.27-4.71c-3.77-7.54-9.43-97.08-10.37-105.57S110.39,204.34,110.39,204.34Z" transform="translate(0 1)"/><path class="cls-12" d="M160.58,210s3.53-2.12,12,3.53,31.81,26.86,34.64,28.28S264.49,246,264.49,246s7.78,9.9-.71,17.67c0,0-52.55,2.12-62.44,1.41s-42.89-19.79-42.89-19.79S145,225.55,160.58,210Z" transform="translate(0 1)"/><path class="cls-20" d="M149.25,241.19s44.07,23.14,49.21,23.87,24.61,0,24.61,0" transform="translate(0 1)"/><path class="cls-20" d="M208.74,247.06s1.47,8.08-3.67,12.85" transform="translate(0 1)"/><path class="cls-20" d="M212,244.86s4.41,7,2.2,12.12" transform="translate(0 1)"/><path class="cls-20" d="M148.88,232s-3.67-12.85,9.18-21.3" transform="translate(0 1)"/><path class="cls-20" d="M101.5,219.89s-2.57,22.77-2.57,33.42" transform="translate(0 1)"/><path class="cls-20" d="M114.73,204.83s16.89-1.47,30.85,0" transform="translate(0 1)"/><path class="cls-20" d="M225.27,352.83s8.08-2.57,11-15.06" transform="translate(0 1)"/><path class="cls-20" d="M230.78,353.93s4.77-1.47,7-8.08" transform="translate(0 1)"/><line class="cls-20" x1="201.4" y1="369.26" x2="189.28" y2="429.85"/><path class="cls-19" d="M148.21,154.5a10.9,10.9,0,0,1-4.24,10.6l.35,7.07s2.12,6.36.71,7.07-1.77-.35-1.77-.35-4.59-7.42-6-7.78,3.18,9.9,3.18,9.9-4.59,7.07-13.08,8.13l1.77-2.47a17.78,17.78,0,0,1-9.9,2.12c-6-.35-10.6-9.54-10.6-9.54s1.06,2.47,0,3.53-7.07-8.13-7.42-19.79l-1.77,3.53A68.13,68.13,0,0,1,103,149.2c3.18-9.19,17.32-15.91,25.1-15.91s15.55.71,17.67,0,1.06,5.3,1.06,5.3a24,24,0,0,0,1.41-4.59c1.41-1.06,3.53,7.42,2.83,10.6l-.71,3.18s2.47-3.18,2.83-4.95C154.57,142.48,154.22,150.26,148.21,154.5Z" transform="translate(0 1)"/><path class="cls-10" d="M143.08,172.11s-1.43-4.73-5.35-2.24,1.65,13.63,4.93,12.67S143.94,173.91,143.08,172.11Z" transform="translate(0 1)"/><polyline class="cls-21" points="286.53 255.06 296.54 253.06 298.55 248.7"/><path class="cls-21" d="M296.19,252.29s-5.07,4.24-5.77,4.6a40.45,40.45,0,0,1-3.89,1.18" transform="translate(0 1)"/><path class="cls-21" d="M141.49,184.07s-1.41,4.95,7.07,7.78" transform="translate(0 1)"/><polygon class="cls-22" points="334.71 222.31 259.31 222.31 268.74 173.29 344.14 173.29 334.71 222.31"/><path class="cls-23" d="M235.08,189.26a2.28,2.28,0,0,0,2.24,2.71h82.09a2.28,2.28,0,0,0,2.24-1.85l1.21-6.28H236.12Z" transform="translate(0 1)"/><path class="cls-24" d="M329.37,135.59H247.28a2.28,2.28,0,0,0-2.24,1.85l-8.92,46.4h86.73l8.76-45.54A2.28,2.28,0,0,0,329.37,135.59Z" transform="translate(0 1)"/><path class="cls-25" d="M273.25,192c1.08-3,1.75-5.11,1.75-5.11s2.48-12.94-8.55-9.62a18.15,18.15,0,0,0-5.63,8.95c-.56,1.89-1.23,3.9-1.88,5.79Z" transform="translate(0 1)"/><path class="cls-26" d="M296.09,192c-.2-6.38-.6-11.5-1.29-12.88-2-3.71-10.3-7.09-10.3-7.09l-11.31,1.69s-4.73,1.35-6.25,4.73c-.51,1.13-1.75,6.65-3.06,13.55Z" transform="translate(0 1)"/><path class="cls-16" d="M275.13,164.38a43.06,43.06,0,0,1-2.19,8.75s-.41,2.87,5.61,1.64,5.2-4.24,5.2-4.24v-11.9Z" transform="translate(0 1)"/><path class="cls-16" d="M266.68,151.87s.07,11.31,3.31,16.76c2.22,2.29,9.77-1.31,12.95-6.17s3.12-12.18.6-16.25-10.8-2.85-13.23-1.44S266.54,150.06,266.68,151.87Z" transform="translate(0 1)"/><path class="cls-27" d="M281.95,158.26s2.13-3.29,3.56-1.33-3.51,6-3.89,4.44A5.42,5.42,0,0,1,281.95,158.26Z" transform="translate(0 1)"/><path class="cls-28" d="M266.68,151.87s-4-3.49.82-8c2.73-2.05,4.1-.55,7-1.09s8.07,0,10,3,1.23,10,.68,10.66-2.19,1.09-2.19,2.32-.27,2.19-.68,2.19-.41-2.05-.41-3.55a23.6,23.6,0,0,0-1-6.43c-.68-2.05-3.83-1.91-5.06-1.64S273.79,152.76,266.68,151.87Z" transform="translate(0 1)"/><path class="cls-29" d="M281.58,155.27l.23-.1h0Z" transform="translate(0 1)"/><path class="cls-28" d="M281.81,155.17c0,.22.74,6.77-1.86,8.6s-2.81-.51-5-.84-3.88-.23-4.84,1.18-.68,2-1.46,1.63c-.17.45,1,3.21,2.81,3.94s6.08-1.52,8-3.21,3.09-2.76,3.43-4.22.17-4.28.56-6.25C283.72,154.51,282.36,154.94,281.81,155.17ZM272,167.25c-2.59-.56-2.25-2.59.39-3.43,0,0,2.81-1.29,3.77.68C276.52,165.79,274.55,167.82,272,167.25Z" transform="translate(0 1)"/><path class="cls-1" d="M283.75,169.67a13.72,13.72,0,0,1-8.69,4.64c-1.1-.42-1.69-2.45-1.69-2.45l-.84,1.27a9.56,9.56,0,0,0,0,3.54c.51.08,2.36-1.18,2.36-1.18s1.27,1.77,2.19,2.11,6.84-3.63,7.43-5.57A4.78,4.78,0,0,0,283.75,169.67Z" transform="translate(0 1)"/><path class="cls-25" d="M297,192c-.29-6.29-.67-11.1-1-12.09-1.35-3.15-6.41-7.2-11.42-7.88,0,0-1.88,8.68-3.73,20Z" transform="translate(0 1)"/><path class="cls-25" d="M267.82,192c2.65-11.26,4.7-17.94,4.7-17.94a11.88,11.88,0,0,0-6.08,3.21c-1,2-2.57,7.81-4.19,14.73Z" transform="translate(0 1)"/><path class="cls-25" d="M295.94,192c.18-6-.15-11.59-1.14-12.88-3.21-2.7-6.58-2.53-8.27.51-.92,1.66-2.15,7.46-3.07,12.37Z" transform="translate(0 1)"/><path class="cls-30" d="M274.89,175.5c-1,3.9-1.75,7.84-2.47,11.79" transform="translate(0 1)"/><path class="cls-31" d="M343.89,133.3c-2.34,9.37-11.83,17-21.2,17s-15.08-7.6-12.74-17,11.83-17,21.2-17S346.23,123.93,343.89,133.3Z" transform="translate(0 1)"/><path class="cls-31" d="M347.34,151.54a6.34,6.34,0,0,1-5.8,4.64,3.51,3.51,0,0,1-3.49-4.64,6.34,6.34,0,0,1,5.8-4.64A3.51,3.51,0,0,1,347.34,151.54Z" transform="translate(0 1)"/><path class="cls-1" d="M322.55,141.93a1.61,1.61,0,0,1-1.32-.61l-4.39-5.84a2.23,2.23,0,0,1,.74-3,2.07,2.07,0,0,1,3,0l3.28,4.37,11.71-9.37a2.07,2.07,0,0,1,3,0,2.23,2.23,0,0,1-.74,3l-13.56,10.85A2.65,2.65,0,0,1,322.55,141.93Z" transform="translate(0 1)"/><path class="cls-32" d="M202.22,105h-5.55a1.91,1.91,0,0,1-1.89-2.52l1.38-5.55a3.45,3.45,0,0,1,3.15-2.52h5.55a1.91,1.91,0,0,1,1.89,2.52l-1.38,5.55A3.45,3.45,0,0,1,202.22,105Z" transform="translate(0 1)"/><path class="cls-33" d="M198.16,121.29h-5.55a1.91,1.91,0,0,1-1.89-2.52l1.38-5.55a3.45,3.45,0,0,1,3.15-2.52h5.55a1.91,1.91,0,0,1,1.89,2.52l-1.38,5.55A3.45,3.45,0,0,1,198.16,121.29Z" transform="translate(0 1)"/><path class="cls-8" d="M215.82,121.29h-5.55a1.91,1.91,0,0,1-1.89-2.52l1.38-5.55a3.45,3.45,0,0,1,3.15-2.52h5.55a1.91,1.91,0,0,1,1.89,2.52L219,118.76A3.45,3.45,0,0,1,215.82,121.29Z" transform="translate(0 1)"/><path class="cls-1" d="M233.48,121.29h-5.55a1.91,1.91,0,0,1-1.89-2.52l1.38-5.55a3.45,3.45,0,0,1,3.15-2.52h5.55a1.91,1.91,0,0,1,1.89,2.52l-1.38,5.55A3.45,3.45,0,0,1,233.48,121.29Z" transform="translate(0 1)"/><path class="cls-8" d="M194,137.94h-5.55a1.91,1.91,0,0,1-1.89-2.52l1.38-5.55a3.45,3.45,0,0,1,3.15-2.52h5.55a1.91,1.91,0,0,1,1.89,2.52l-1.38,5.55A3.45,3.45,0,0,1,194,137.94Z" transform="translate(0 1)"/><path class="cls-1" d="M189.57,155.73H184a1.91,1.91,0,0,1-1.89-2.52l1.38-5.55a3.45,3.45,0,0,1,3.15-2.52h5.55a1.91,1.91,0,0,1,1.89,2.52l-1.38,5.55A3.45,3.45,0,0,1,189.57,155.73Z" transform="translate(0 1)"/><path class="cls-34" d="M211.67,137.94h-5.55a1.91,1.91,0,0,1-1.89-2.52l1.38-5.55a3.45,3.45,0,0,1,3.15-2.52h5.55a1.91,1.91,0,0,1,1.89,2.52l-1.38,5.55A3.45,3.45,0,0,1,211.67,137.94Z" transform="translate(0 1)"/><path class="cls-33" d="M203.93,169h-5.55a1.91,1.91,0,0,1-1.89-2.52l1.38-5.55a3.45,3.45,0,0,1,3.15-2.52h5.55a1.91,1.91,0,0,1,1.89,2.52l-1.38,5.55A3.45,3.45,0,0,1,203.93,169Z" transform="translate(0 1)"/><path class="cls-24" d="M370.92,147.41h-2a.7.7,0,0,1-.7-.93l.51-2a1.27,1.27,0,0,1,1.16-.93h2a.7.7,0,0,1,.7.93l-.51,2A1.27,1.27,0,0,1,370.92,147.41Z" transform="translate(0 1)"/><path class="cls-24" d="M369.43,153.39h-2a.7.7,0,0,1-.7-.93l.51-2a1.27,1.27,0,0,1,1.16-.93h2a.7.7,0,0,1,.7.93l-.51,2A1.27,1.27,0,0,1,369.43,153.39Z" transform="translate(0 1)"/><path class="cls-24" d="M375.92,153.39h-2a.7.7,0,0,1-.7-.93l.51-2a1.27,1.27,0,0,1,1.16-.93h2a.7.7,0,0,1,.7.93l-.51,2A1.27,1.27,0,0,1,375.92,153.39Z" transform="translate(0 1)"/><path class="cls-24" d="M382.4,153.39h-2a.7.7,0,0,1-.7-.93l.51-2a1.27,1.27,0,0,1,1.16-.93h2a.7.7,0,0,1,.7.93l-.51,2A1.27,1.27,0,0,1,382.4,153.39Z" transform="translate(0 1)"/><path class="cls-24" d="M367.91,159.5h-2a.7.7,0,0,1-.7-.93l.51-2a1.27,1.27,0,0,1,1.16-.93h2a.7.7,0,0,1,.7.93l-.51,2A1.27,1.27,0,0,1,367.91,159.5Z" transform="translate(0 1)"/><path class="cls-24" d="M366.28,166h-2a.7.7,0,0,1-.7-.93l.51-2a1.27,1.27,0,0,1,1.16-.93h2a.7.7,0,0,1,.7.93l-.51,2A1.27,1.27,0,0,1,366.28,166Z" transform="translate(0 1)"/><path class="cls-24" d="M374.39,159.5h-2a.7.7,0,0,1-.7-.93l.51-2a1.27,1.27,0,0,1,1.16-.93h2a.7.7,0,0,1,.7.93l-.51,2A1.27,1.27,0,0,1,374.39,159.5Z" transform="translate(0 1)"/><path class="cls-24" d="M371.55,170.89h-2a.7.7,0,0,1-.7-.93l.51-2a1.27,1.27,0,0,1,1.16-.93h2a.7.7,0,0,1,.7.93l-.51,2A1.27,1.27,0,0,1,371.55,170.89Z" transform="translate(0 1)"/><path class="cls-35" d="M370.27,224.62h-67a1.08,1.08,0,0,1-1-1.35l6.25-24a1.08,1.08,0,0,1,1-.8h67a1.08,1.08,0,0,1,1,1.35l-6.25,24A1.08,1.08,0,0,1,370.27,224.62Z" transform="translate(0 1)"/><line class="cls-36" x1="312.46" y1="204.58" x2="335.77" y2="204.58"/><line class="cls-36" x1="310.67" y1="215.34" x2="333.98" y2="215.34"/><line class="cls-36" x1="320.47" y1="211.28" x2="343.78" y2="211.28"/><line class="cls-36" x1="311.86" y1="208.17" x2="318.86" y2="208.17"/><line class="cls-36" x1="310.91" y1="211.28" x2="317.9" y2="211.28"/><line class="cls-36" x1="339.48" y1="204.58" x2="347.79" y2="204.58"/><path class="cls-37" d="M343.55,219.39H331.14a.1.1,0,0,1-.09-.12l.56-2.13a.1.1,0,0,1,.09-.07h12.41a.1.1,0,0,1,.09.12l-.56,2.13A.1.1,0,0,1,343.55,219.39Z" transform="translate(0 1)"/><path class="cls-37" d="M328.13,219.39H315.72a.1.1,0,0,1-.09-.12l.56-2.13a.1.1,0,0,1,.09-.07h12.41a.1.1,0,0,1,.09.12l-.56,2.13A.1.1,0,0,1,328.13,219.39Z" transform="translate(0 1)"/><path class="cls-25" d="M365.36,216.3c-.64-.85-3.22-1.46-3.93-2.31a2.68,2.68,0,0,1-.28-1.92,2.65,2.65,0,0,0,.59-.47,11.4,11.4,0,0,0,.7-1.23.4.4,0,0,0,.3.12c.34,0,1.63-1.77,1.3-2.17-.19-.23-.5,0-.73.18.34-.78.58-1.38.58-1.38h0c0-.1.06-.2.09-.3a2.81,2.81,0,0,0-2.79-3.72,5.08,5.08,0,0,0-4.64,3.72c0,.1,0,.2-.06.3h0s-.06.6-.11,1.38c-.12-.22-.33-.42-.63-.18-.54.41-.12,2.16.21,2.17a.64.64,0,0,0,.36-.12,7.54,7.54,0,0,0,.08,1.23,1.51,1.51,0,0,0,.48.58,4.18,4.18,0,0,1-1.19,1.81c-1.14.85-4,1.46-5.08,2.31a9.82,9.82,0,0,0-2,3.43h17C365.67,219.28,365.93,217.06,365.36,216.3Z" transform="translate(0 1)"/><path class="cls-1" d="M279.43,216.05h-55c-4.83,0-7.76-3.91-6.56-8.74h0c1.2-4.83,6.09-8.74,10.92-8.74h55c4.83,0,7.76,3.91,6.56,8.74h0C289.14,212.14,284.25,216.05,279.43,216.05Z" transform="translate(0 1)"/><path class="cls-38" d="M230.28,209.6l-2.36,1.1c-.22.1-.41-.06-.32-.28l1-2.32a.23.23,0,0,0,0-.24l-1.28-1.64c-.12-.15,0-.42.26-.46l2.41-.34a.37.37,0,0,0,.24-.15l1.57-2.11c.15-.2.43-.2.48,0l.52,2.11a.19.19,0,0,0,.16.15l2.25.34c.21,0,.23.3,0,.46l-2.1,1.64a.35.35,0,0,0-.14.24l-.18,2.32a.34.34,0,0,1-.46.28l-1.81-1.1A.27.27,0,0,0,230.28,209.6Z" transform="translate(0 1)"/><path class="cls-38" d="M241.89,209.6l-2.36,1.1c-.22.1-.41-.06-.32-.28l1-2.32a.23.23,0,0,0,0-.24l-1.28-1.64c-.12-.15,0-.42.26-.46l2.41-.34a.37.37,0,0,0,.24-.15l1.57-2.11c.15-.2.43-.2.48,0l.52,2.11a.19.19,0,0,0,.16.15l2.25.34c.21,0,.23.3,0,.46l-2.1,1.64a.35.35,0,0,0-.14.24l-.18,2.32a.34.34,0,0,1-.46.28l-1.81-1.1A.27.27,0,0,0,241.89,209.6Z" transform="translate(0 1)"/><path class="cls-38" d="M253.5,209.6l-2.36,1.1c-.22.1-.41-.06-.32-.28l1-2.32a.23.23,0,0,0,0-.24l-1.28-1.64c-.12-.15,0-.42.26-.46l2.41-.34a.37.37,0,0,0,.24-.15l1.57-2.11c.15-.2.43-.2.48,0l.52,2.11a.19.19,0,0,0,.16.15l2.25.34c.21,0,.23.3,0,.46l-2.1,1.64a.35.35,0,0,0-.14.24l-.18,2.32a.34.34,0,0,1-.46.28l-1.81-1.1A.27.27,0,0,0,253.5,209.6Z" transform="translate(0 1)"/><path class="cls-38" d="M265.1,209.6l-2.36,1.1c-.22.1-.41-.06-.32-.28l1-2.32a.23.23,0,0,0,0-.24l-1.28-1.64c-.12-.15,0-.42.26-.46l2.41-.34a.37.37,0,0,0,.24-.15l1.57-2.11c.15-.2.43-.2.48,0l.52,2.11a.19.19,0,0,0,.16.15l2.25.34c.21,0,.23.3,0,.46l-2.1,1.64a.35.35,0,0,0-.14.24l-.18,2.32a.34.34,0,0,1-.46.28l-1.81-1.1A.27.27,0,0,0,265.1,209.6Z" transform="translate(0 1)"/><path class="cls-39" d="M276.71,209.6l-2.36,1.1c-.22.1-.41-.06-.32-.28l1-2.32a.23.23,0,0,0,0-.24l-1.28-1.64c-.12-.15,0-.42.26-.46l2.41-.34a.37.37,0,0,0,.24-.15l1.57-2.11c.15-.2.43-.2.48,0l.52,2.11a.19.19,0,0,0,.16.15l2.25.34c.21,0,.23.3,0,.46l-2.1,1.64a.35.35,0,0,0-.14.24l-.18,2.32a.34.34,0,0,1-.46.28L277,209.6A.27.27,0,0,0,276.71,209.6Z" transform="translate(0 1)"/><ellipse class="cls-12" cx="144.24" cy="177" rx="4.54" ry="6.34"/><path class="cls-40" d="M144.93,176.55s12.67,14,12.67,16.25-4.13,1.93-4.13,1.93" transform="translate(0 1)"/><circle class="cls-12" cx="152.78" cy="195.73" r="1.65"/><path class="cls-13" d="M122.4,359.16c4.5,7.76,18.62,13.43,35.35,13.43s30.85-5.67,35.35-13.43Z" transform="translate(0 1)"/><polygon class="cls-6" points="217.84 320.33 209.35 359.45 204.17 359.45 208.88 321.27 217.84 320.33"/><path class="cls-41" d="M157.45,314.21h68.4a7.54,7.54,0,0,1,7.54,7.54v1.89a0,0,0,0,1,0,0H157.45a0,0,0,0,1,0,0v-9.43A0,0,0,0,1,157.45,314.21Z"/><path class="cls-6" d="M95.31,354.21,76.93,265.81A5.66,5.66,0,0,1,82.46,259h60.82a7.07,7.07,0,0,1,6.92,5.63l18.62,89.57" transform="translate(0 1)"/><path class="cls-6" d="M220.2,363.9H104.71a8.77,8.77,0,0,1-8.42-6.31l-1-3.38H220.2Z" transform="translate(0 1)"/><rect class="cls-14" x="154.21" y="369.35" width="9.19" height="82"/><polygon class="cls-13" points="163.41 384.54 154.22 391.97 154.22 369.35 163.41 369.35 163.41 384.54"/><polygon class="cls-14" points="163.12 439.13 159.76 439.13 158.92 439.13 155.56 439.13 121.11 452.81 197.57 452.81 163.12 439.13"/><line class="cls-42" x1="85.03" y1="266.06" x2="139.69" y2="266.06"/><line class="cls-42" x1="145.36" y1="272.39" x2="154.69" y2="319.39"/><line class="cls-42" x1="156.36" y1="327.72" x2="158.36" y2="341.39"/><path class="cls-24" d="M411.2,186.06h-44a3.69,3.69,0,0,1-3.65-4.27l.33-2.11a3.69,3.69,0,0,1,3.65-3.12h44a3.69,3.69,0,0,1,3.65,4.27l-.33,2.11A3.69,3.69,0,0,1,411.2,186.06Z" transform="translate(0 1)"/><line class="cls-43" x1="369.03" y1="182.39" x2="407.03" y2="182.39"/><path class="cls-10" d="M250.86,131.39h-12c-5.71,0-11.32,4.63-12.53,10.33h0c-1.21,5.71,2.43,10.33,8.14,10.33h2.6a9.59,9.59,0,0,0,9.79,6,13.23,13.23,0,0,1-1.57-6h1.18c5.71,0,11.32-4.63,12.53-10.33h0C260.21,136,256.57,131.39,250.86,131.39Z" transform="translate(0 1)"/><line class="cls-43" x1="233.76" y1="140.72" x2="245.09" y2="140.72"/><line class="cls-43" x1="232.8" y1="145.22" x2="251.22" y2="145.22"/></g></svg>