<svg xmlns="http://www.w3.org/2000/svg" viewBox="0 0 670.25 395.14"><defs><style>.cls-1{fill:#233b75;opacity:0.15;}.cls-17,.cls-2,.cls-39,.cls-41{fill:#0d2e63;}.cls-2,.cls-21,.cls-22{opacity:0.8;}.cls-23,.cls-24,.cls-3{fill:none;stroke:#fff;stroke-miterlimit:10;}.cls-21,.cls-4{fill:#0a3791;}.cls-25,.cls-26,.cls-34,.cls-42,.cls-46,.cls-47,.cls-48,.cls-49,.cls-5,.cls-6{fill:#fff;}.cls-6{font-size:7.24px;}.cls-34,.cls-42,.cls-47,.cls-48,.cls-49,.cls-6{font-family:Nexa-Bold, Nexa-Bold;}.cls-7{letter-spacing:0em;}.cls-8{letter-spacing:-0.01em;}.cls-9{letter-spacing:-0.02em;}.cls-10{letter-spacing:-0.01em;}.cls-11{letter-spacing:-0.01em;}.cls-12{letter-spacing:-0.01em;}.cls-13{letter-spacing:-0.02em;}.cls-14{letter-spacing:-0.01em;}.cls-15{letter-spacing:-0.02em;}.cls-16{letter-spacing:-0.01em;}.cls-17{opacity:0.7;}.cls-18{letter-spacing:-0.02em;}.cls-19{letter-spacing:-0.02em;}.cls-20{letter-spacing:-0.01em;}.cls-22,.cls-33{fill:#2c62b7;}.cls-23{stroke-width:3px;}.cls-24{stroke-width:0.88px;}.cls-25{opacity:0.37;}.cls-26{font-size:5px;font-family:Nexa-Light, Nexa-Light;}.cls-27{letter-spacing:-0.02em;}.cls-28{letter-spacing:-0.02em;}.cls-29{letter-spacing:-0.03em;}.cls-30{letter-spacing:-0.01em;}.cls-31{letter-spacing:-0.01em;}.cls-32{letter-spacing:-0.01em;}.cls-34{font-size:4.39px;}.cls-35{letter-spacing:0em;}.cls-36{letter-spacing:-0.01em;}.cls-37{letter-spacing:-0.02em;}.cls-38{letter-spacing:-0.01em;}.cls-40{letter-spacing:-0.02em;}.cls-41{opacity:0.4;}.cls-42{font-size:7.01px;}.cls-43{letter-spacing:-0.03em;}.cls-44{letter-spacing:-0.06em;}.cls-45{letter-spacing:-0.03em;}.cls-46{opacity:0.31;}.cls-47{font-size:20px;}.cls-48{font-size:13px;}.cls-49{font-size:10px;}</style></defs><title>companyFeatures</title><g id="OBJECTS"><circle class="cls-1" cx="326.94" cy="206.93" r="116.18"/><circle id="_Path_" data-name="&lt;Path&gt;" class="cls-2" cx="326.94" cy="206.93" r="83.04"/><circle id="_Path_2" data-name="&lt;Path&gt;" class="cls-3" cx="326.94" cy="206.93" r="93.96"/><circle id="_Path_3" data-name="&lt;Path&gt;" class="cls-3" cx="326.94" cy="206.93" r="87.82"/><polyline id="_Path_4" data-name="&lt;Path&gt;" class="cls-3" points="367.72 122.57 453.65 22.48 472.16 22.48"/><g id="_Group_" data-name="&lt;Group&gt;"><circle class="cls-4" cx="369.55" cy="120.72" r="6.06"/><path class="cls-5" d="M407.94,167a5.56,5.56,0,1,1-5.56,5.56,5.56,5.56,0,0,1,5.56-5.56m0-1a6.56,6.56,0,1,0,6.56,6.56,6.57,6.57,0,0,0-6.56-6.56Z" transform="translate(-38.39 -51.86)"/></g><g id="_Group_2" data-name="&lt;Group&gt;"><text class="cls-6" transform="translate(477.09 45.67)"><tspan class="cls-7">L</tspan><tspan x="4.21" y="0">o</tspan><tspan class="cls-8" x="8.47" y="0">r</tspan><tspan x="11.56" y="0">em ipsum dolo</tspan><tspan class="cls-9" x="61.83" y="0">r</tspan><tspan x="64.85" y="0" xml:space="preserve"> sit amet, </tspan><tspan class="cls-10" x="98.69" y="0">c</tspan><tspan x="102.29" y="0">onsectetu</tspan><tspan class="cls-9" x="136.99" y="0">r</tspan><tspan x="140" y="0" xml:space="preserve"> adipiscing elit. </tspan><tspan class="cls-11" x="0" y="8.69">S</tspan><tspan x="4.74" y="8.69">uspendisse.</tspan><tspan class="cls-12" x="0" y="26.07">M</tspan><tspan x="6.41" y="26.07">ae</tspan><tspan class="cls-12" x="15.23" y="26.07">c</tspan><tspan x="18.83" y="26.07">enas porttito</tspan><tspan class="cls-9" x="64.38" y="26.07">r</tspan><tspan class="cls-13" x="67.4" y="26.07"> </tspan><tspan class="cls-14" x="69.07" y="26.07">f</tspan><tspan x="71.83" y="26.07">elis non </tspan><tspan class="cls-12" x="99.94" y="26.07">c</tspan><tspan x="103.54" y="26.07">ongue</tspan><tspan class="cls-15" x="125.28" y="26.07"> </tspan><tspan x="126.94" y="26.07">tempus. </tspan><tspan class="cls-12" x="156.85" y="26.07">M</tspan><tspan x="163.26" y="26.07">orbi </tspan><tspan x="0" y="34.76">justo lectus, orna</tspan><tspan class="cls-16" x="59.52" y="34.76">r</tspan><tspan x="62.61" y="34.76">e eu nulla sit amet.</tspan></text></g><rect id="_Rectangle_" data-name="&lt;Rectangle&gt;" class="cls-17" x="472.16" y="14.54" width="92.66" height="15.89"/><polyline id="_Path_5" data-name="&lt;Path&gt;" class="cls-3" points="293.21 119.2 230.4 7.95 208.24 7.95"/><g id="_Group_3" data-name="&lt;Group&gt;"><circle class="cls-4" cx="291.67" cy="117.01" r="6.06"/><path class="cls-5" d="M330.06,163.31a5.56,5.56,0,1,1-5.56,5.56,5.56,5.56,0,0,1,5.56-5.56m0-1a6.56,6.56,0,1,0,6.56,6.56,6.57,6.57,0,0,0-6.56-6.56Z" transform="translate(-38.39 -51.86)"/></g><g id="_Group_4" data-name="&lt;Group&gt;"><text class="cls-6" transform="translate(105.84 31.13)"><tspan class="cls-7">L</tspan><tspan x="4.21" y="0">o</tspan><tspan class="cls-8" x="8.47" y="0">r</tspan><tspan x="11.56" y="0">em ipsum dolo</tspan><tspan class="cls-9" x="61.83" y="0">r</tspan><tspan x="64.85" y="0" xml:space="preserve"> sit amet, </tspan><tspan class="cls-12" x="4.21" y="8.69">c</tspan><tspan x="7.81" y="8.69">onsectetu</tspan><tspan class="cls-9" x="42.52" y="8.69">r</tspan><tspan x="45.53" y="8.69" xml:space="preserve"> adipiscing elit. </tspan><tspan class="cls-11" x="51.33" y="17.38">S</tspan><tspan x="56.06" y="17.38">uspendisse.</tspan><tspan class="cls-12" x="-1.25" y="34.76">M</tspan><tspan x="5.16" y="34.76">ae</tspan><tspan class="cls-12" x="13.98" y="34.76">c</tspan><tspan x="17.58" y="34.76">enas porttito</tspan><tspan class="cls-18" x="63.14" y="34.76">r</tspan><tspan class="cls-19" x="66.15" y="34.76"> </tspan><tspan class="cls-20" x="67.82" y="34.76">f</tspan><tspan x="70.59" y="34.76">elis non </tspan><tspan class="cls-12" x="0.96" y="43.44">c</tspan><tspan x="4.56" y="43.44">ongue</tspan><tspan class="cls-15" x="26.3" y="43.44"> </tspan><tspan x="27.96" y="43.44">tempus. </tspan><tspan class="cls-12" x="57.88" y="43.44">M</tspan><tspan x="64.29" y="43.44">orbi justo </tspan><tspan x="-12.46" y="52.13">lectus, orna</tspan><tspan class="cls-8" x="28.27" y="52.13">r</tspan><tspan x="31.36" y="52.13">e eu nulla sit amet.</tspan></text></g><rect id="_Rectangle_2" data-name="&lt;Rectangle&gt;" class="cls-17" x="115.58" width="92.66" height="15.89"/><polyline id="_Path_6" data-name="&lt;Path&gt;" class="cls-3" points="234.48 190.09 157.89 149.11 96.9 149.11"/><g id="_Group_5" data-name="&lt;Group&gt;"><circle class="cls-4" cx="232.98" cy="188.96" r="6.06"/><path class="cls-5" d="M271.36,235.26a5.56,5.56,0,1,1-5.56,5.56,5.56,5.56,0,0,1,5.56-5.56m0-1a6.56,6.56,0,1,0,6.56,6.56,6.57,6.57,0,0,0-6.56-6.56Z" transform="translate(-38.39 -51.86)"/></g><text class="cls-6" transform="translate(8.43 172.27)"><tspan class="cls-7">L</tspan><tspan x="4.21" y="0">o</tspan><tspan class="cls-8" x="8.47" y="0">r</tspan><tspan x="11.56" y="0">em ipsum dolo</tspan><tspan class="cls-9" x="61.83" y="0">r</tspan><tspan x="64.85" y="0" xml:space="preserve"> sit amet, </tspan><tspan class="cls-12" x="98.69" y="0">c</tspan><tspan x="102.29" y="0">onsectetu</tspan><tspan class="cls-9" x="136.99" y="0">r</tspan><tspan x="140" y="0"> </tspan><tspan x="0" y="8.69">adipiscing elit. </tspan><tspan class="cls-11" x="51.36" y="8.69">S</tspan><tspan x="56.09" y="8.69">uspendisse.</tspan><tspan class="cls-12" x="0" y="26.07">M</tspan><tspan x="6.41" y="26.07">ae</tspan><tspan class="cls-12" x="15.23" y="26.07">c</tspan><tspan x="18.83" y="26.07">enas porttito</tspan><tspan class="cls-18" x="64.38" y="26.07">r</tspan><tspan class="cls-19" x="67.39" y="26.07"> </tspan><tspan class="cls-20" x="69.07" y="26.07">f</tspan><tspan x="71.83" y="26.07">elis non </tspan><tspan class="cls-12" x="99.93" y="26.07">c</tspan><tspan x="103.53" y="26.07">ongue</tspan><tspan class="cls-15" x="125.27" y="26.07"> </tspan><tspan x="126.93" y="26.07">tempus. </tspan><tspan class="cls-12" x="0" y="34.75">M</tspan><tspan x="6.41" y="34.75">orbi justo lectus, orna</tspan><tspan class="cls-8" x="81.54" y="34.75">r</tspan><tspan x="84.63" y="34.75">e eu nulla sit amet.</tspan></text><rect id="_Rectangle_3" data-name="&lt;Rectangle&gt;" class="cls-17" y="141.16" width="96.46" height="15.89"/><path class="cls-2" d="M602.89,351.83A45.55,45.55,0,0,1,591,380.59l17.51,17.51a70.19,70.19,0,0,0,19.16-46.27Z" transform="translate(-38.39 -51.86)"/><path class="cls-21" d="M588,383.51a45.64,45.64,0,0,1-61.65,0L508.88,401a70.4,70.4,0,0,0,96.67,0Z" transform="translate(-38.39 -51.86)"/><path class="cls-22" d="M523.48,380.59a45.72,45.72,0,1,1,79.42-32.89h24.74A70.46,70.46,0,1,0,506,398.1Z" transform="translate(-38.39 -51.86)"/><circle class="cls-23" cx="518.8" cy="297.9" r="30.6"/><circle class="cls-21" cx="518.8" cy="297.9" r="25.88"/><line class="cls-24" x1="630.08" y1="251.8" x2="559.63" y2="251.8"/><circle class="cls-5" cx="559.63" cy="251.8" r="2.06"/><path class="cls-25" d="M609,249.68h50.33a0,0,0,0,1,0,0v27a8.25,8.25,0,0,1-8.25,8.25H609a0,0,0,0,1,0,0v-35.2A0,0,0,0,1,609,249.68Z"/><text class="cls-26" transform="translate(612.54 266.02)"><tspan class="cls-27">L</tspan><tspan x="2.73" y="0">o</tspan><tspan class="cls-28" x="5.72" y="0">r</tspan><tspan x="7.62" y="0">em ipsum dolo</tspan><tspan class="cls-29" x="42.56" y="0">r</tspan><tspan x="44.45" y="0"> </tspan><tspan x="0" y="7.27">sit am</tspan><tspan class="cls-30" x="14.6" y="7.27">e</tspan><tspan x="17.49" y="7.27">t, </tspan><tspan class="cls-31" x="0" y="14.54">c</tspan><tspan x="2.55" y="14.54">onsec</tspan><tspan class="cls-32" x="16.59" y="14.54">t</tspan><tspan class="cls-30" x="18.44" y="14.54">e</tspan><tspan x="21.33" y="14.54">tue</tspan><tspan class="cls-29" x="29.15" y="14.54">r</tspan><tspan x="31.04" y="14.54"> </tspan></text><path class="cls-33" d="M613.24,245.47h41.92a4.21,4.21,0,0,1,4.21,4.21v9.16a0,0,0,0,1,0,0H609a0,0,0,0,1,0,0v-9.16A4.21,4.21,0,0,1,613.24,245.47Z"/><line class="cls-24" x1="634.7" y1="306.59" x2="576.27" y2="306.59"/><circle class="cls-5" cx="576.27" cy="306.59" r="2.06"/><path class="cls-25" d="M609,304.49h50.33a0,0,0,0,1,0,0v27a8.25,8.25,0,0,1-8.25,8.25H609a0,0,0,0,1,0,0v-35.2A0,0,0,0,1,609,304.49Z"/><text class="cls-34" transform="translate(612.54 320.4)"><tspan class="cls-35">L</tspan><tspan x="2.55" y="0">o</tspan><tspan class="cls-36" x="5.14" y="0">r</tspan><tspan x="7.01" y="0">em ipsum dolo</tspan><tspan class="cls-37" x="37.49" y="0">r</tspan><tspan x="39.31" y="0"> </tspan><tspan x="0" y="7.27">sit amet, </tspan><tspan class="cls-38" x="0" y="14.54">c</tspan><tspan x="2.18" y="14.54">onsectetue</tspan><tspan class="cls-37" x="25.77" y="14.54">r</tspan><tspan x="27.6" y="14.54"> </tspan></text><path class="cls-39" d="M613.24,300.28h41.92a4.21,4.21,0,0,1,4.21,4.21v9.16a0,0,0,0,1,0,0H609a0,0,0,0,1,0,0v-9.16A4.21,4.21,0,0,1,613.24,300.28Z"/><line class="cls-24" x1="634.7" y1="361.38" x2="524.07" y2="361.38"/><circle class="cls-5" cx="524.07" cy="361.38" r="2.06"/><path class="cls-25" d="M689.51,446.14H647.42v-33.2h50.33v27C697.76,444.45,694.07,448.14,689.51,446.14Z" transform="translate(-38.39 -51.86)"/><text class="cls-34" transform="translate(612.54 374.99)"><tspan class="cls-35">L</tspan><tspan x="2.55" y="0">o</tspan><tspan class="cls-36" x="5.14" y="0">r</tspan><tspan x="7.01" y="0">em ipsum dolo</tspan><tspan class="cls-37" x="37.49" y="0">r</tspan><tspan x="39.31" y="0"> </tspan><tspan x="0" y="7.27">sit amet, </tspan><tspan class="cls-38" x="0" y="14.54">c</tspan><tspan x="2.18" y="14.54">onsectetue</tspan><tspan class="cls-37" x="25.77" y="14.54">r</tspan><tspan x="27.6" y="14.54"> </tspan></text><path class="cls-4" d="M613.24,354.87h41.92a4.21,4.21,0,0,1,4.21,4.21v9.16a0,0,0,0,1,0,0H609a0,0,0,0,1,0,0v-9.16A4.21,4.21,0,0,1,613.24,354.87Z"/><polyline id="_Path_7" data-name="&lt;Path&gt;" class="cls-3" points="420.32 227.44 458.98 181.03 472.16 181.03"/><g id="_Group_6" data-name="&lt;Group&gt;"><circle class="cls-4" cx="420.32" cy="227.44" r="6.06"/><path class="cls-5" d="M458.71,273.74a5.56,5.56,0,1,1-5.56,5.56,5.56,5.56,0,0,1,5.56-5.56m0-1a6.56,6.56,0,1,0,6.56,6.56,6.57,6.57,0,0,0-6.56-6.56Z" transform="translate(-38.39 -51.86)"/></g><rect id="_Rectangle_4" data-name="&lt;Rectangle&gt;" class="cls-17" x="472.16" y="173.09" width="92.66" height="15.89"/><g id="_Group_7" data-name="&lt;Group&gt;"><text class="cls-6" transform="translate(477.09 204.25)"><tspan class="cls-12">M</tspan><tspan x="6.41" y="0">ae</tspan><tspan class="cls-12" x="15.23" y="0">c</tspan><tspan x="18.83" y="0">enas porttito</tspan><tspan class="cls-9" x="64.38" y="0">r</tspan><tspan class="cls-13" x="67.4" y="0"> </tspan><tspan class="cls-14" x="69.07" y="0">f</tspan><tspan x="71.83" y="0">elis non </tspan><tspan class="cls-12" x="99.94" y="0">c</tspan><tspan x="103.54" y="0">ongue</tspan><tspan class="cls-15" x="125.28" y="0"> </tspan><tspan x="126.94" y="0">tempus. </tspan><tspan class="cls-12" x="156.85" y="0">M</tspan><tspan x="163.26" y="0">orbi </tspan><tspan x="0" y="8.69">justo lectus, orna</tspan><tspan class="cls-16" x="59.52" y="8.69">r</tspan><tspan x="62.61" y="8.69">e eu nulla sit amet.</tspan></text></g><g id="_Group_8" data-name="&lt;Group&gt;"><text class="cls-6" transform="translate(236.16 368.89)"><tspan class="cls-7">L</tspan><tspan x="4.21" y="0">o</tspan><tspan class="cls-8" x="8.47" y="0">r</tspan><tspan x="11.56" y="0">em ipsum dolo</tspan><tspan class="cls-9" x="61.83" y="0">r</tspan><tspan x="64.85" y="0" xml:space="preserve"> sit amet, </tspan><tspan class="cls-10" x="98.69" y="0">c</tspan><tspan x="102.29" y="0">onsectetu</tspan><tspan class="cls-9" x="136.99" y="0">r</tspan><tspan x="140" y="0" xml:space="preserve"> adipiscing elit. </tspan><tspan class="cls-11" x="9.36" y="8.69">S</tspan><tspan x="14.1" y="8.69">uspendisse. </tspan><tspan class="cls-12" x="56.72" y="8.69">M</tspan><tspan x="63.13" y="8.69">ae</tspan><tspan class="cls-12" x="71.95" y="8.69">c</tspan><tspan x="75.55" y="8.69">enas porttito</tspan><tspan class="cls-9" x="121.11" y="8.69">r</tspan><tspan class="cls-40" x="124.12" y="8.69"> </tspan><tspan class="cls-14" x="125.79" y="8.69">f</tspan><tspan x="128.56" y="8.69">elis non </tspan><tspan class="cls-12" x="156.66" y="8.69">c</tspan><tspan x="160.26" y="8.69">ongue </tspan><tspan x="5.64" y="17.38">tempus. </tspan><tspan class="cls-12" x="35.56" y="17.38">M</tspan><tspan x="41.97" y="17.38">orbi justo lectus, orna</tspan><tspan class="cls-16" x="117.1" y="17.38">r</tspan><tspan x="120.19" y="17.38">e eu nulla sit amet.</tspan></text></g><rect id="_Rectangle_5" data-name="&lt;Rectangle&gt;" class="cls-17" x="270.58" y="337.76" width="116.71" height="15.89"/><line id="_Path_8" data-name="&lt;Path&gt;" class="cls-3" x1="328.93" y1="337.76" x2="328.93" y2="300.89"/><g id="_Group_9" data-name="&lt;Group&gt;"><circle class="cls-4" cx="328.93" cy="303.45" r="6.06"/><path class="cls-5" d="M367.32,349.76a5.56,5.56,0,1,1-5.56,5.56,5.56,5.56,0,0,1,5.56-5.56m0-1a6.56,6.56,0,1,0,6.56,6.56,6.57,6.57,0,0,0-6.56-6.56Z" transform="translate(-38.39 -51.86)"/></g><path class="cls-33" d="M179.11,294.93H53a6.21,6.21,0,0,1-6.21-6.21h0A6.21,6.21,0,0,1,53,282.5H179.11a6.21,6.21,0,0,1,6.21,6.21h0A6.21,6.21,0,0,1,179.11,294.93Z" transform="translate(-38.39 -51.86)"/><path class="cls-41" d="M179.11,282.5a6.21,6.21,0,1,1,0,12.43h62.82a4.7,4.7,0,0,0,4.7-4.7V282.5Z" transform="translate(-38.39 -51.86)"/><text class="cls-42" transform="translate(161.45 239.39)"><tspan class="cls-43">D</tspan><tspan class="cls-44" x="5.06" y="0">AT</tspan><tspan class="cls-45" x="13.82" y="0">A</tspan><tspan x="18.98" y="0" xml:space="preserve"> 01</tspan></text><rect class="cls-46" x="8.43" y="253.06" width="138.5" height="12.43" rx="5.78" ry="5.78"/><path class="cls-41" d="M179.54,304.92a5.78,5.78,0,0,1,5.78,5.78v.86a5.78,5.78,0,0,1-5.78,5.78h62.39a4.7,4.7,0,0,0,4.7-4.7v-7.73Z" transform="translate(-38.39 -51.86)"/><rect class="cls-4" x="8.43" y="253.06" width="103.88" height="12.43" rx="5.78" ry="5.78"/><text class="cls-42" transform="translate(161.45 261.81)"><tspan class="cls-43">D</tspan><tspan class="cls-44" x="5.06" y="0">AT</tspan><tspan class="cls-45" x="13.82" y="0">A</tspan><tspan x="18.98" y="0" xml:space="preserve"> 02</tspan></text><path class="cls-46" d="M179.11,339.77H53a6.21,6.21,0,0,1-6.21-6.21h0A6.21,6.21,0,0,1,53,327.34H179.11a6.21,6.21,0,0,1,6.21,6.21h0A6.21,6.21,0,0,1,179.11,339.77Z" transform="translate(-38.39 -51.86)"/><path class="cls-41" d="M179.11,327.34a6.21,6.21,0,1,1,0,12.43h62.82a4.7,4.7,0,0,0,4.7-4.7v-7.73Z" transform="translate(-38.39 -51.86)"/><path class="cls-39" d="M109.86,339.77H53a6.21,6.21,0,0,1-6.21-6.21h0A6.21,6.21,0,0,1,53,327.34h56.82a6.21,6.21,0,0,1,6.21,6.21h0A6.21,6.21,0,0,1,109.86,339.77Z" transform="translate(-38.39 -51.86)"/><text class="cls-42" transform="translate(161.45 284.23)"><tspan class="cls-43">D</tspan><tspan class="cls-44" x="5.06" y="0">AT</tspan><tspan class="cls-45" x="13.82" y="0">A</tspan><tspan x="18.98" y="0" xml:space="preserve"> 03</tspan></text><rect class="cls-46" x="8.43" y="297.9" width="138.5" height="12.43" rx="5.78" ry="5.78"/><path class="cls-41" d="M179.54,349.51a5.78,5.78,0,0,1,5.78,5.78v.86a5.78,5.78,0,0,1-5.78,5.78h62.39a4.7,4.7,0,0,0,4.7-4.7v-7.73Z" transform="translate(-38.39 -51.86)"/><rect class="cls-33" x="8.43" y="297.9" width="34.63" height="12.43" rx="5.78" ry="5.78"/><text class="cls-42" transform="translate(161.45 306.22)"><tspan class="cls-43">D</tspan><tspan class="cls-44" x="5.06" y="0">AT</tspan><tspan class="cls-45" x="13.82" y="0">A</tspan><tspan x="18.98" y="0" xml:space="preserve"> 04</tspan></text><text class="cls-47" transform="translate(261.36 203.72)">Machine Minds<tspan x="0" y="24" xml:space="preserve">   Innovations</tspan></text><text class="cls-48" transform="translate(475.59 27.43)">MILESTONES</text><text class="cls-48" transform="translate(482.09 185.9)">STATISTICS</text><text class="cls-48" transform="translate(499.85 300.89)">DATA</text><text class="cls-49" transform="translate(612.54 256.14)">DATA 01</text><text class="cls-49" transform="translate(612.54 310.23)">DATA 02</text><text class="cls-49" transform="translate(612.54 365.08)">DATA 03</text><text class="cls-48" transform="translate(276.55 350.01)">ACHIEVEMENTS</text><text class="cls-48" transform="translate(7.9 154.3)">OBJECTIVES</text><text class="cls-48" transform="translate(124.82 12.93)">ABOUT US</text></g></svg>