<svg xmlns="http://www.w3.org/2000/svg" viewBox="0 0 356.96 408.92"><defs><style>.cls-1{fill:#2e318f;}</style></defs><title>documentAvatar</title><g id="object"><path class="cls-1" d="M514.53,359.31V213H239V587H450.23v-53.3A8.74,8.74,0,0,1,459,525h55.56V407.07L532,387.22v155.2a8.75,8.75,0,0,1-2.55,6.16L503,575.14l0,0L476,601.92a8.76,8.76,0,0,1-6.15,2.54H230.25a8.74,8.74,0,0,1-8.73-8.73V204.27a8.74,8.74,0,0,1,8.73-8.73h293a8.74,8.74,0,0,1,8.73,8.73v135.2Z" transform="translate(-221.52 -195.54)"/><rect class="cls-1" x="80.21" y="105.6" width="180.04" height="25.92"/><rect class="cls-1" x="49.51" y="148.58" width="210.74" height="25.92"/><polygon class="cls-1" points="260.25 191.56 260.25 200.99 245.75 217.48 49.51 217.48 49.51 191.56 260.25 191.56"/><path class="cls-1" d="M451.82,430.08v.49L429.45,456H419.39L409,444.73a4.39,4.39,0,0,0-2.16-1.28l-40.08-9.87-1-.13a4.35,4.35,0,0,0-3.2,7.29l7.72,8.42,6.28,6.84H271V430.08Z" transform="translate(-221.52 -195.54)"/><path class="cls-1" d="M577.39,335.62,532,387.22l-17.46,19.85-77.91,88.55a15.78,15.78,0,0,1-23.47.24L376.57,456l-6.28-6.84-7.72-8.42a4.35,4.35,0,0,1,3.2-7.29l1,.13,40.08,9.87a4.39,4.39,0,0,1,2.16,1.28L419.39,456l5.14,5.6,4.92-5.6,22.37-25.43L467.27,413l14.5-16.49,32.76-37.22L532,339.47l21.72-24.69a4.33,4.33,0,0,1,3-1.46H557a4.32,4.32,0,0,1,2.87,1.08L577,329.49A4.33,4.33,0,0,1,577.39,335.62Z" transform="translate(-221.52 -195.54)"/></g></svg>