<svg xmlns="http://www.w3.org/2000/svg" xmlns:xlink="http://www.w3.org/1999/xlink" viewBox="0 0 576.17 288"><defs><style>.cls-1{isolation:isolate;}.cls-2{fill:#101257;}.cls-3{opacity:0.71;}.cls-4{fill:#fc355d;}.cls-5{opacity:0.49;}.cls-6{fill:#00e29d;}.cls-7{opacity:0.4;}.cls-8{font-size:31px;}.cls-10,.cls-11,.cls-12,.cls-29,.cls-30,.cls-8,.cls-9{fill:#fff;}.cls-8,.cls-9{font-family:Nexa-Bold, Nexa-Bold;}.cls-9{font-size:21px;}.cls-11{font-size:13.59px;font-family:Poppins-Bold, Poppins;}.cls-11,.cls-12{font-weight:700;}.cls-12{font-size:9.95px;font-family:Orqquidea-Sans_DEMO-Bold, Orqquidea-Sans_(DEMO);}.cls-13{letter-spacing:-0.02em;}.cls-14{fill:#4086ba;}.cls-15{fill:url(#linear-gradient);}.cls-16{fill:url(#linear-gradient-2);}.cls-17{fill:#d36d1a;}.cls-18{fill:#962b6f;}.cls-19{fill:url(#linear-gradient-3);}.cls-20,.cls-21{opacity:0.7;}.cls-20{mix-blend-mode:multiply;fill:url(#linear-gradient-4);}.cls-21{mix-blend-mode:screen;fill:url(#linear-gradient-5);}.cls-22{fill:#f97828;}.cls-23{fill:#4388bb;}.cls-24{fill:url(#linear-gradient-6);}.cls-25{fill:url(#linear-gradient-7);}.cls-26{fill:url(#linear-gradient-8);}.cls-27{fill:url(#linear-gradient-9);}.cls-28{fill:url(#linear-gradient-10);}.cls-29{font-size:13.28px;font-family:Norwester-Regular, Norwester;}.cls-30{font-size:11px;font-family:Helvetica, Helvetica;}</style><linearGradient id="linear-gradient" x1="497.71" y1="124.3" x2="503.39" y2="154.7" gradientUnits="userSpaceOnUse"><stop offset="0" stop-color="#fffff9"/><stop offset="1" stop-color="#cecec9"/></linearGradient><linearGradient id="linear-gradient-2" x1="497.75" y1="124.51" x2="503.21" y2="153.65" gradientUnits="userSpaceOnUse"><stop offset="0" stop-color="#f7c443"/><stop offset="1" stop-color="#ea9e2f"/></linearGradient><linearGradient id="linear-gradient-3" x1="478.38" y1="118.72" x2="498.52" y2="135.99" gradientUnits="userSpaceOnUse"><stop offset="0" stop-color="#ea9e2f"/><stop offset="1" stop-color="#f7c443"/></linearGradient><linearGradient id="linear-gradient-4" x1="509.18" y1="118.46" x2="482.3" y2="146.56" gradientUnits="userSpaceOnUse"><stop offset="0" stop-color="#fffff9" stop-opacity="0"/><stop offset="1" stop-color="#bf6bff"/></linearGradient><linearGradient id="linear-gradient-5" x1="505.45" y1="116.7" x2="509.71" y2="127.98" gradientUnits="userSpaceOnUse"><stop offset="0" stop-color="#fffff9" stop-opacity="0"/><stop offset="1" stop-color="#fa7926"/></linearGradient><linearGradient id="linear-gradient-6" x1="474.96" y1="118.88" x2="503.73" y2="118.88" gradientUnits="userSpaceOnUse"><stop offset="0" stop-color="#aadcf3"/><stop offset="1" stop-color="#4086ba"/></linearGradient><linearGradient id="linear-gradient-7" x1="474.96" y1="139.74" x2="503.73" y2="139.74" xlink:href="#linear-gradient-6"/><linearGradient id="linear-gradient-8" x1="470.9" y1="129.31" x2="506.82" y2="129.31" xlink:href="#linear-gradient-6"/><linearGradient id="linear-gradient-9" x1="468.52" y1="124.09" x2="497.29" y2="124.09" gradientUnits="userSpaceOnUse"><stop offset="0" stop-color="#ffc510"/><stop offset="1" stop-color="#fa7926"/></linearGradient><linearGradient id="linear-gradient-10" x1="468.52" y1="134.52" x2="487.82" y2="134.52" xlink:href="#linear-gradient-9"/></defs><title>home-banner</title><g class="cls-1"><g id="Layer_1" data-name="Layer 1"><rect class="cls-2" width="576" height="288"/><g class="cls-3"><g id="triangle36"><path class="cls-4" d="M28.95,141.08a.09.09,0,0,1-.09-.07.1.1,0,0,1,0-.11L76,105.46a.09.09,0,0,1,.1,0l50.63,30.31a.1.1,0,0,1,0,.11.09.09,0,0,1-.08.08L29,141.08Zm47.14-35.43L29.26,140.87l97.13-5.1Z" transform="translate(0)"/></g><g id="triangle36-2" data-name="triangle36"><path class="cls-4" d="M333.06,223.79h0L268.44,203a.1.1,0,0,1-.06-.11.1.1,0,0,1,.1-.08l67.39,8a.09.09,0,0,1,.06,0,.1.1,0,0,1,0,.08l-2.79,12.84a.1.1,0,0,1,0,.06ZM269.46,203.1,333,223.57l2.75-12.63Z" transform="translate(0)"/></g><g id="triangle36-3" data-name="triangle36"><path class="cls-4" d="M151.21,204.13a.09.09,0,0,1-.09-.07.1.1,0,0,1,0-.11l60.7-47.12a.09.09,0,0,1,.11,0l56.56,46a.1.1,0,0,1,0,.11.09.09,0,0,1-.09.07l-117.26,1.15Zm60.7-47.1-60.41,46.9,116.71-1.14Z" transform="translate(0)"/></g><g id="triangle36-4" data-name="triangle36"><path class="cls-4" d="M151.21,204.13l-.05,0a.1.1,0,0,1,0-.1l14.26-67.67a.1.1,0,0,1,0-.07.08.08,0,0,1,.08,0l46.44,20.55a.1.1,0,0,1,.06.08.1.1,0,0,1,0,.09l-60.7,47.12Zm14.33-67.63-14.18,67.3,60.37-46.87Z" transform="translate(0)"/></g><g id="triangle36-5" data-name="triangle36"><path class="cls-4" d="M151.21,204.13a.09.09,0,0,1-.09-.06l-24.5-68.19a.1.1,0,0,1,0-.09.09.09,0,0,1,.08,0h0l38.76.51a.09.09,0,0,1,.07,0,.1.1,0,0,1,0,.08L151.3,204.06a.09.09,0,0,1-.08.08Zm-24.36-68.18,24.34,67.75,14.17-67.24Z" transform="translate(0)"/></g><g id="triangle36-6" data-name="triangle36"><path class="cls-4" d="M28.95,141.08h0a.09.09,0,0,1-.06,0l-5.94-10a.1.1,0,0,1,0-.08.1.1,0,0,1,.05-.06L76,105.45a.09.09,0,0,1,.12,0,.1.1,0,0,1,0,.13L29,141.07ZM23.15,131,29,140.85,75.25,106Z" transform="translate(0)"/></g><g id="triangle36-7" data-name="triangle36"><path class="cls-4" d="M29,140.93l-5.94-10a.09.09,0,0,0-.12,0L.44,143.09v.22L23,131.1l5.83,9.84L.44,151.11v.21L29,141.08A.09.09,0,0,0,29,141,.1.1,0,0,0,29,140.93Z" transform="translate(0)"/></g><g id="triangle36-8" data-name="triangle36"><path class="cls-4" d="M.76,52.86a.09.09,0,0,0-.08-.07.1.1,0,0,0-.09.06l-.14.37v.51l.21-.55L22.9,130.92.44,143.09v.22l22.61-12.26a.1.1,0,0,0,0-.12Z" transform="translate(0)"/></g><g id="triangle36-9" data-name="triangle36"><path class="cls-4" d="M547.09,246.13h0a.09.09,0,0,1-.07-.07l-10.13-49.57a.1.1,0,0,1,0-.09.09.09,0,0,1,.08,0l39.11,7.71a.09.09,0,0,1,.07.06.1.1,0,0,1,0,.09l-29,41.87A.09.09,0,0,1,547.09,246.13Zm-10-49.55,10.05,49.22,28.77-41.57Z" transform="translate(0)"/></g><g id="triangle36-10" data-name="triangle36"><path class="cls-4" d="M457.71,288a.09.09,0,0,1-.07,0,.1.1,0,0,1,0-.12L536.9,196.4a.09.09,0,0,1,.09,0,.1.1,0,0,1,.07.07L547.18,246a.1.1,0,0,1-.05.11L457.75,288Zm79.21-91.33-78.84,91L547,246Z" transform="translate(0)"/></g><g id="triangle36-11" data-name="triangle36"><path class="cls-4" d="M283.83,241a.09.09,0,0,1-.08-.06l-15.36-38a.1.1,0,0,1,0-.1.09.09,0,0,1,.09,0l64.59,20.8a.1.1,0,0,1,0,.19L283.86,241Zm-15.2-38,15.25,37.74,48.87-17.08Z" transform="translate(0)"/></g><g id="triangle36-12" data-name="triangle36"><path class="cls-4" d="M283.83,241h0L151.19,204.13a.1.1,0,0,1-.07-.11.09.09,0,0,1,.09-.09l117.26-1.15h0a.09.09,0,0,1,.08.06l15.36,38a.1.1,0,0,1,0,.1A.09.09,0,0,1,283.83,241ZM151.9,204.13l131.77,36.63L268.41,203Z" transform="translate(0)"/></g><g id="triangle36-13" data-name="triangle36"><path class="cls-4" d="M268.47,203l-.06,0-56.56-46a.1.1,0,0,1,0-.08.1.1,0,0,1,0-.08L282,103.92a.09.09,0,0,1,.1,0,.1.1,0,0,1,0,.1L268.56,202.9a.1.1,0,0,1-.06.08Zm-56.41-46.07,56.34,45.79L282,104.21Z" transform="translate(0)"/></g><g id="triangle36-14" data-name="triangle36"><path class="cls-4" d="M211.91,157h0a.1.1,0,0,1,0-.1L221.24,77a.1.1,0,0,1,0-.07.08.08,0,0,1,.08,0l60.75,27a.1.1,0,0,1,.06.08.1.1,0,0,1,0,.09L212,157Zm9.5-79.84L212,156.7,281.9,104Z" transform="translate(0)"/></g><g id="triangle36-15" data-name="triangle36"><path class="cls-4" d="M211.91,157h0l-46.44-20.55a.1.1,0,0,1-.05-.07.1.1,0,0,1,0-.09L221.27,77a.09.09,0,0,1,.1,0,.1.1,0,0,1,.05.1L212,156.92a.1.1,0,0,1,0,.07Zm-46.28-20.68,46.2,20.44,9.38-79.47Z" transform="translate(0)"/></g><g id="triangle36-16" data-name="triangle36"><path class="cls-4" d="M557.22,151.36h0l-199.37-10a.1.1,0,0,1-.09-.09.1.1,0,0,1,.08-.1l191.69-33.39a.09.09,0,0,1,.1.08l7.68,43.41a.1.1,0,0,1,0,.08A.09.09,0,0,1,557.22,151.36ZM358.73,141.19l198.38,10L549.47,108Z" transform="translate(0)"/></g><g id="triangle36-17" data-name="triangle36"><path class="cls-4" d="M537,196.56h0L357.83,141.34a.1.1,0,0,1-.07-.11.1.1,0,0,1,.09-.08l199.37,10a.09.09,0,0,1,.07,0,.1.1,0,0,1,0,.09l-20.25,45.21A.09.09,0,0,1,537,196.56ZM358.63,141.38l178.29,55,20.16-45Z" transform="translate(0)"/></g><g id="triangle36-18" data-name="triangle36"><path class="cls-4" d="M357.85,141.34a.09.09,0,0,1-.08-.06.1.1,0,0,1,0-.12L492.57,33a.09.09,0,0,1,.13,0l56.91,74.74a.1.1,0,0,1,0,.1.09.09,0,0,1-.07.06L357.87,141.34ZM492.61,33.24,358.21,141.08l191.16-33.3Z" transform="translate(0)"/></g><g id="triangle36-19" data-name="triangle36"><path class="cls-4" d="M335.86,210.95a.09.09,0,0,1-.07,0,.1.1,0,0,1,0-.09l22-69.61a.09.09,0,0,1,.11-.06L537,196.37a.1.1,0,0,1,.07.1.09.09,0,0,1-.09.09L335.86,210.95Zm22.06-69.58L336,210.74,536.44,196.4Z" transform="translate(0)"/></g><g id="triangle36-20" data-name="triangle36"><path class="cls-4" d="M357.85,141.34h0a.1.1,0,0,1-.06-.07l-14.32-55a.1.1,0,0,1,.06-.12L492.6,33a.09.09,0,0,1,.11,0,.1.1,0,0,1,0,.12L357.91,141.32Zm-14.2-55,14.26,54.74L492.12,33.39Z" transform="translate(0)"/></g><g id="triangle36-21" data-name="triangle36"><path class="cls-4" d="M357.85,141.34h0L282,104.09a.1.1,0,0,1-.05-.1.1.1,0,0,1,.07-.09l61.45-17.72a.09.09,0,0,1,.11.07l14.32,55a.1.1,0,0,1,0,.1ZM282.35,104l75.36,37L343.47,86.4Z" transform="translate(0)"/></g><g id="triangle36-22" data-name="triangle36"><path class="cls-4" d="M335.86,210.95h0l-67.39-8a.09.09,0,0,1-.08-.07.1.1,0,0,1,0-.1l89.38-61.64a.09.09,0,0,1,.11,0,.1.1,0,0,1,0,.11l-22,69.61A.09.09,0,0,1,335.86,210.95Zm-67.12-8.13,67.06,7.92,21.89-69.27Z" transform="translate(0)"/></g><g id="triangle36-23" data-name="triangle36"><path class="cls-4" d="M268.47,203l0,0a.1.1,0,0,1,0-.1L282,104a.1.1,0,0,1,0-.07.09.09,0,0,1,.08,0l75.77,37.24a.1.1,0,0,1,.05.08.1.1,0,0,1,0,.09L268.52,203Zm13.69-98.84-13.57,98.54,89.07-61.43Z" transform="translate(0)"/></g><g id="triangle36-24" data-name="triangle36"><path class="cls-4" d="M576.07,204.27h0L537,196.56a.1.1,0,0,1,0-.19l30,.77.05,0,9.08,6.94a.1.1,0,0,1,0,.12A.09.09,0,0,1,576.07,204.27Zm-38-7.68,37.56,7.4L567,197.33Z" transform="translate(0)"/></g><g id="triangle36-25" data-name="triangle36"><path class="cls-4" d="M567,197.33h0l-30-.77a.09.09,0,0,1-.08,0,.1.1,0,0,1,0-.09l20.25-45.21a.09.09,0,0,1,.09-.05.09.09,0,0,1,.08.08l9.78,46a.1.1,0,0,1,0,.08A.09.09,0,0,1,567,197.33Zm-29.88-1,29.77.76-9.69-45.58Z" transform="translate(0)"/></g><g id="triangle36-26" data-name="triangle36"><path class="cls-4" d="M457.71,288h0l-75.77-28a.1.1,0,0,1,0-.18l155-63.44a.09.09,0,0,1,.11,0,.1.1,0,0,1,0,.12L457.78,288A.09.09,0,0,1,457.71,288Zm-75.5-28.1,75.47,27.89,78.95-91.08Z" transform="translate(0)"/></g><g id="triangle36-27" data-name="triangle36"><path class="cls-4" d="M381.94,260a.09.09,0,0,1-.06,0l-46.09-49.06a.1.1,0,0,1,0-.1.09.09,0,0,1,.08-.06L537,196.37s.09,0,.1.08a.1.1,0,0,1-.06.11L382,260Zm-45.88-49.07L382,259.79l154.4-63.19Z" transform="translate(0)"/></g><g id="triangle36-28" data-name="triangle36"><path class="cls-4" d="M381.94,260l-.05,0L333,223.77a.1.1,0,0,1,0-.1l2.79-12.84a.1.1,0,0,1,.06-.07.09.09,0,0,1,.09,0L382,259.84a.1.1,0,0,1,0,.13A.09.09,0,0,1,381.94,260Zm-48.78-36.36,48,35.55L335.91,211Z" transform="translate(0)"/></g><g id="triangle36-29" data-name="triangle36"><path class="cls-4" d="M151.21,204.13h0L37,172.42a.1.1,0,0,1-.07-.09.1.1,0,0,1,.06-.1l89.73-36.47a.09.09,0,0,1,.12.06L151.29,204a.1.1,0,0,1,0,.1A.09.09,0,0,1,151.21,204.13ZM37.28,172.3l113.78,31.59L126.66,136Z" transform="translate(0)"/></g><g id="triangle36-30" data-name="triangle36"><path class="cls-4" d="M10.79,230.47a.09.09,0,0,1-.07,0,.1.1,0,0,1,0-.1l26.19-58a.09.09,0,0,1,.11-.05l114.23,31.71a.1.1,0,0,1,.07.1.1.1,0,0,1-.08.09L10.81,230.46Zm26.24-58L11,230.24,150.78,204Z" transform="translate(0)"/></g><g id="triangle36-31" data-name="triangle36"><path class="cls-4" d="M37,172.42h0a.1.1,0,0,1,0-.06l-8-31.34a.1.1,0,0,1,0-.08.09.09,0,0,1,.07,0l97.76-5.14a.09.09,0,0,1,.09.08.1.1,0,0,1-.06.11L37,172.41Zm-7.91-31.34,8,31.11L126.14,136Z" transform="translate(0)"/></g><g id="triangle36-32" data-name="triangle36"><path class="cls-4" d="M29,141a.1.1,0,0,0,0-.06.08.08,0,0,0-.07,0L.44,151.11v.21l28.45-10.21,8,31.1L.44,169.77v.2L37,172.42h0a.09.09,0,0,0,.07,0,.1.1,0,0,0,0-.09Z" transform="translate(0)"/></g><g id="triangle36-33" data-name="triangle36"><path class="cls-4" d="M37,172.25a.09.09,0,0,0-.11,0L.44,193v.22l36.33-20.69-26,57.71L.44,227.91v.2l10.33,2.35h0a.09.09,0,0,0,.08-.06l26.19-58A.1.1,0,0,0,37,172.25Z" transform="translate(0)"/></g><g id="triangle36-34" data-name="triangle36"><path class="cls-4" d="M37,172.22.44,169.77v.2l36.21,2.43L.44,193v.22L37,172.41a.1.1,0,0,0,0-.11A.09.09,0,0,0,37,172.22Z" transform="translate(0)"/></g></g><g class="cls-5"><g id="triangle36-35" data-name="triangle36"><path class="cls-6" d="M101.75,230.16.44,206.77V207l100.81,23.27L14.72,254.44.44,236.58v.36L14.6,254.64a.11.11,0,0,0,.08,0h0l87-24.3a.12.12,0,0,0,.08-.12A.12.12,0,0,0,101.75,230.16Z" transform="translate(0)"/></g><g id="triangle36-36" data-name="triangle36"><path class="cls-6" d="M101.78,230.17.44,162.85v.28L101.13,230,.44,206.77V207L101.7,230.39h0a.11.11,0,0,0,.1-.07A.12.12,0,0,0,101.78,230.17Z" transform="translate(0)"/></g><g id="triangle36-37" data-name="triangle36"><path class="cls-6" d="M139.86,189.24.44,162.39v.24l139.17,26.8-37.9,40.69L.44,162.85v.28l101.23,67.25.06,0a.1.1,0,0,0,.08,0l38.11-40.92a.12.12,0,0,0,0-.12A.11.11,0,0,0,139.86,189.24Z" transform="translate(0)"/></g><g id="triangle36-38" data-name="triangle36"><path class="cls-6" d="M190.74,171a.11.11,0,0,1-.1-.08.12.12,0,0,1,0-.13l33.2-25.21a.1.1,0,0,1,.12,0l35.65,21.56a.12.12,0,0,1,.05.13.11.11,0,0,1-.1.09L190.75,171Zm33.2-25.19-32.83,24.93,68.1-3.61Z" transform="translate(0)"/></g><g id="triangle36-39" data-name="triangle36"><path class="cls-6" d="M404.91,229.84h0L359.39,215a.12.12,0,0,1-.08-.14.11.11,0,0,1,.12-.09l47.46,5.66a.11.11,0,0,1,.08,0,.13.13,0,0,1,0,.09l-2,9.13a.12.12,0,0,1-.05.08Zm-44.32-14.66,44.24,14.39,1.91-8.88Z" transform="translate(0)"/></g><g id="triangle36-40" data-name="triangle36"><path class="cls-6" d="M139.84,189.47a.11.11,0,0,1-.08,0L64.27,90.24a.13.13,0,0,1,0-.13.1.1,0,0,1,.11-.06l106.47,18.08a.11.11,0,0,1,.08.06.12.12,0,0,1,0,.1l-31,81.11a.11.11,0,0,1-.08.07ZM64.62,90.32l75.19,98.8,30.86-80.79Z" transform="translate(0)"/></g><g id="triangle36-41" data-name="triangle36"><path class="cls-6" d="M139.92,189.28,64.43,90.09a.11.11,0,0,0-.08,0,.1.1,0,0,0-.08,0L.44,161v.34l63.9-71,75.23,98.84L.44,162.39v.24l139.38,26.84h0a.11.11,0,0,0,.09-.06A.13.13,0,0,0,139.92,189.28Z" transform="translate(0)"/></g><g id="triangle36-42" data-name="triangle36"><path class="cls-6" d="M139.84,225.82a.1.1,0,0,1-.07,0l-9.84-9.68a.12.12,0,0,1,0-.13l9.84-26.67a.1.1,0,0,1,.12-.07.12.12,0,0,1,.09.12v36.35a.12.12,0,0,1-.07.11ZM130.13,216l9.6,9.45V190Z" transform="translate(0)"/></g><g id="triangle36-43" data-name="triangle36"><path class="cls-6" d="M101.73,230.39a.11.11,0,0,1-.1-.09.12.12,0,0,1,.06-.14L130,215.92a.1.1,0,0,1,.12,0l9.84,9.68a.12.12,0,0,1,0,.12.11.11,0,0,1-.09.08l-38.11,4.57ZM130,216.16l-27.61,13.91,37.22-4.46Z" transform="translate(0)"/></g><g id="triangle36-44" data-name="triangle36"><path class="cls-6" d="M101.73,230.39a.11.11,0,0,1-.09-.05.12.12,0,0,1,0-.15l38.11-40.92a.1.1,0,0,1,.14,0,.12.12,0,0,1,0,.14l-9.84,26.67a.12.12,0,0,1-.06.06l-28.28,14.25Zm37.82-40.55-37.3,40,27.67-13.94Z" transform="translate(0)"/></g><g id="triangle36-45" data-name="triangle36"><path class="cls-6" d="M276.84,215.86a.11.11,0,0,1-.1-.08.12.12,0,0,1,0-.13l42.75-33.52a.1.1,0,0,1,.13,0l39.84,32.7a.12.12,0,0,1,0,.13.11.11,0,0,1-.1.08l-82.58.82Zm42.75-33.49-42.41,33.25,81.92-.81Z" transform="translate(0)"/></g><g id="triangle36-46" data-name="triangle36"><path class="cls-6" d="M276.84,215.86l-.06,0a.12.12,0,0,1,0-.12l10-48.13a.12.12,0,0,1,.06-.08.1.1,0,0,1,.09,0l32.7,14.61a.12.12,0,0,1,.07.09.12.12,0,0,1,0,.11l-42.75,33.52ZM287,167.78l-10,47.69,42.36-33.21Z" transform="translate(0)"/></g><g id="triangle36-47" data-name="triangle36"><path class="cls-6" d="M276.84,215.86a.11.11,0,0,1-.1-.08l-17.25-48.49a.13.13,0,0,1,0-.11.1.1,0,0,1,.09-.05l27.29.37a.11.11,0,0,1,.08,0,.13.13,0,0,1,0,.1l-10,48.13a.11.11,0,0,1-.1.09Zm-17.09-48.49,17.06,48,9.93-47.61Z" transform="translate(0)"/></g><g id="triangle36-48" data-name="triangle36"><path class="cls-6" d="M190.74,171h0a.11.11,0,0,1-.07-.05l-4.18-7.12a.12.12,0,0,1,0-.1.12.12,0,0,1,.06-.07l37.38-18.09a.11.11,0,0,1,.14,0,.12.12,0,0,1,0,.15L190.8,171Zm-4-7.19,4.05,6.91,32.18-24.44Z" transform="translate(0)"/></g><g id="triangle36-49" data-name="triangle36"><path class="cls-6" d="M139.84,189.47a.11.11,0,0,1-.1-.07.12.12,0,0,1,.05-.15l46.72-25.57a.1.1,0,0,1,.14,0l4.18,7.12a.12.12,0,0,1,0,.1.11.11,0,0,1-.07.07l-50.9,18.45Zm46.68-25.54-45.3,24.8,49.35-17.89Z" transform="translate(0)"/></g><g id="triangle36-50" data-name="triangle36"><path class="cls-6" d="M139.84,189.47a.1.1,0,0,1-.07,0,.13.13,0,0,1,0-.13l31-81.11a.11.11,0,0,1,.11-.07.11.11,0,0,1,.1.08l15.74,55.53a.12.12,0,0,1-.05.14l-46.72,25.57Zm31-80.88-30.76,80.51,46.38-25.39Z" transform="translate(0)"/></g><g id="triangle36-51" data-name="triangle36"><path class="cls-6" d="M555.65,245.73h0a.11.11,0,0,1-.08-.09l-7.13-35.26a.12.12,0,0,1,0-.11.1.1,0,0,1,.1,0l27.54,5.48a.11.11,0,0,1,.08.07.13.13,0,0,1,0,.11l-20.41,29.78A.11.11,0,0,1,555.65,245.73Zm-7-35.23,7,34.83,20.16-29.42Z" transform="translate(0)"/></g><g id="triangle36-52" data-name="triangle36"><path class="cls-6" d="M492.7,275.51a.11.11,0,0,1-.09,0,.12.12,0,0,1,0-.15l55.82-65a.1.1,0,0,1,.11,0,.11.11,0,0,1,.08.09l7.13,35.26a.12.12,0,0,1-.06.13L492.74,275.5Zm55.76-64.9-55.32,64.45,62.39-29.51Z" transform="translate(0)"/></g><g id="triangle36-53" data-name="triangle36"><path class="cls-6" d="M370.24,242.08a.11.11,0,0,1-.1-.07l-10.82-27a.12.12,0,0,1,0-.12.11.11,0,0,1,.11,0l45.49,14.8a.12.12,0,0,1,0,.22l-34.67,12.24Zm-10.63-27,10.69,26.71,34.25-12.09Z" transform="translate(0)"/></g><g id="triangle36-54" data-name="triangle36"><path class="cls-6" d="M370.24,242.08h0l-93.4-26.22a.12.12,0,0,1-.08-.13.11.11,0,0,1,.11-.1l82.58-.82a.13.13,0,0,1,.1.07l10.82,27a.13.13,0,0,1,0,.12A.11.11,0,0,1,370.24,242.08Zm-92.58-26.23,92.39,25.94L359.35,215Z" transform="translate(0)"/></g><g id="triangle36-55" data-name="triangle36"><path class="cls-6" d="M359.42,215l-.07,0-39.84-32.7a.12.12,0,0,1,0-.1.12.12,0,0,1,0-.09L369,144.5a.1.1,0,0,1,.12,0,.12.12,0,0,1,.05.12l-9.59,70.33a.12.12,0,0,1-.07.09Zm-39.65-32.81,39.57,32.48,9.53-69.86Z" transform="translate(0)"/></g><g id="triangle36-56" data-name="triangle36"><path class="cls-6" d="M319.59,182.35l-.06,0a.12.12,0,0,1-.05-.12l6.64-56.81a.12.12,0,0,1,.05-.09.1.1,0,0,1,.1,0l42.79,19.18a.12.12,0,0,1,.07.1.12.12,0,0,1,0,.11l-49.43,37.63Zm6.73-56.76L319.73,182l49.06-37.36Z" transform="translate(0)"/></g><g id="triangle36-57" data-name="triangle36"><path class="cls-6" d="M319.59,182.35h0l-32.7-14.61a.12.12,0,0,1-.06-.09.12.12,0,0,1,0-.11l39.34-42.2a.11.11,0,0,1,.12,0,.12.12,0,0,1,.06.12l-6.64,56.81a.12.12,0,0,1-.05.09Zm-32.51-14.77,32.42,14.49,6.58-56.32Z" transform="translate(0)"/></g><g id="triangle36-58" data-name="triangle36"><path class="cls-6" d="M562.78,178.33h0L422.37,171.2a.11.11,0,0,1-.1-.11.12.12,0,0,1,.09-.12l135-23.75a.11.11,0,0,1,.12.09l5.41,30.87a.12.12,0,0,1,0,.1A.11.11,0,0,1,562.78,178.33ZM423.42,171l139.23,7.06-5.36-30.61Z" transform="translate(0)"/></g><g id="triangle36-59" data-name="triangle36"><path class="cls-6" d="M548.52,210.48h0L422.34,171.2a.12.12,0,0,1-.08-.13.11.11,0,0,1,.11-.1l140.41,7.12a.11.11,0,0,1,.09.06.13.13,0,0,1,0,.11l-14.26,32.15A.11.11,0,0,1,548.52,210.48ZM423.29,171.25l125.16,39,14.15-31.9Z" transform="translate(0)"/></g><g id="triangle36-60" data-name="triangle36"><path class="cls-6" d="M422.37,171.2a.11.11,0,0,1-.1-.07.12.12,0,0,1,0-.14l94.92-76.91a.1.1,0,0,1,.15,0l40.08,53.16a.12.12,0,0,1,0,.12.11.11,0,0,1-.08.07l-135,23.75Zm94.9-76.86-94.48,76.55,134.37-23.64Z" transform="translate(0)"/></g><g id="triangle36-61" data-name="triangle36"><path class="cls-6" d="M406.88,220.71a.11.11,0,0,1-.09,0,.12.12,0,0,1,0-.11L422.27,171a.11.11,0,0,1,.13-.08l126.14,39.27a.12.12,0,0,1,.08.13.11.11,0,0,1-.1.1L406.89,220.71Zm15.56-49.48L407,220.46l140.85-10.17Z" transform="translate(0)"/></g><g id="triangle36-62" data-name="triangle36"><path class="cls-6" d="M422.37,171.2h0a.11.11,0,0,1-.07-.08L412.19,132a.12.12,0,0,1,.07-.14l105-37.81a.11.11,0,0,1,.13.06.12.12,0,0,1,0,.15l-94.92,76.91Zm-9.95-39.13,10,38.82,94.25-76.37Z" transform="translate(0)"/></g><g id="triangle36-63" data-name="triangle36"><path class="cls-6" d="M422.37,171.2h0L369,144.7a.12.12,0,0,1-.06-.12.12.12,0,0,1,.08-.1l43.28-12.6a.11.11,0,0,1,.13.08l10.08,39.09a.12.12,0,0,1,0,.12A.1.1,0,0,1,422.37,171.2Zm-53-26.58,52.87,26.25-10-38.74Z" transform="translate(0)"/></g><g id="triangle36-64" data-name="triangle36"><path class="cls-6" d="M406.88,220.71h0L359.41,215a.11.11,0,0,1-.09-.09.12.12,0,0,1,0-.13L422.31,171a.1.1,0,0,1,.13,0,.12.12,0,0,1,0,.13L407,220.63A.11.11,0,0,1,406.88,220.71Zm-47.14-5.86,47.07,5.62,15.36-49.1Z" transform="translate(0)"/></g><g id="triangle36-65" data-name="triangle36"><path class="cls-6" d="M359.42,215l-.06,0a.12.12,0,0,1,0-.12l9.59-70.33a.12.12,0,0,1,.06-.09.1.1,0,0,1,.1,0L422.42,171a.12.12,0,0,1,.06.1.12.12,0,0,1,0,.11L359.48,215Zm9.68-70.28-9.53,69.92,62.58-43.59Z" transform="translate(0)"/></g><g id="triangle36-66" data-name="triangle36"><path class="cls-6" d="M576.06,216h0l-27.54-5.48a.12.12,0,0,1-.09-.13.11.11,0,0,1,.11-.11h0l21.15.55.06,0,6.39,4.93a.12.12,0,0,1,0,.14A.11.11,0,0,1,576.06,216Zm-26.17-5.44,25.71,5.12-6-4.6Z" transform="translate(0)"/></g><g id="triangle36-67" data-name="triangle36"><path class="cls-6" d="M569.66,211h0l-21.15-.55a.11.11,0,0,1-.09-.06.13.13,0,0,1,0-.11l14.26-32.15a.11.11,0,0,1,.2,0l6.89,32.7a.13.13,0,0,1,0,.1A.1.1,0,0,1,569.66,211Zm-21-.78,20.84.54-6.78-32.22Z" transform="translate(0)"/></g><g id="triangle36-68" data-name="triangle36"><path class="cls-6" d="M492.7,275.51h0L439.3,255.59a.12.12,0,0,1,0-.22l109.18-45.12a.1.1,0,0,1,.13,0,.12.12,0,0,1,0,.15l-55.82,65A.11.11,0,0,1,492.7,275.51Zm-53-20,53,19.78,55.45-64.61Z" transform="translate(0)"/></g><g id="triangle36-69" data-name="triangle36"><path class="cls-6" d="M439.34,255.6a.11.11,0,0,1-.08,0l-32.46-34.89a.13.13,0,0,1,0-.12.11.11,0,0,1,.09-.08l141.64-10.23a.1.1,0,0,1,.11.09.12.12,0,0,1-.07.13L439.38,255.59Zm-32.21-34.91,32.24,34.65L547.8,210.53Z" transform="translate(0)"/></g><g id="triangle36-70" data-name="triangle36"><path class="cls-6" d="M439.34,255.6l-.06,0-34.43-25.76a.12.12,0,0,1,0-.12l2-9.13a.11.11,0,0,1,.08-.09.1.1,0,0,1,.11,0l32.46,34.89a.13.13,0,0,1,0,.16A.11.11,0,0,1,439.34,255.6ZM405,229.67l33.36,25-31.45-33.81Z" transform="translate(0)"/></g><g id="triangle36-71" data-name="triangle36"><path class="cls-6" d="M276.84,215.86h0L196.37,193.3a.12.12,0,0,1-.08-.11.12.12,0,0,1,.07-.12l63.19-25.94a.1.1,0,0,1,.14.07l17.25,48.49a.12.12,0,0,1,0,.12A.1.1,0,0,1,276.84,215.86Zm-80.09-22.69,79.91,22.4L259.53,167.4Z" transform="translate(0)"/></g><g id="triangle36-72" data-name="triangle36"><path class="cls-6" d="M178,234.59a.11.11,0,0,1-.09,0,.13.13,0,0,1,0-.12l18.44-41.28a.11.11,0,0,1,.13-.06l80.45,22.55a.12.12,0,0,1,.08.12.11.11,0,0,1-.09.11L178,234.59Zm18.5-41.26-18.31,41,98.19-18.6Z" transform="translate(0)"/></g><g id="triangle36-73" data-name="triangle36"><path class="cls-6" d="M196.4,193.31h0a.12.12,0,0,1-.06-.07l-5.66-22.29a.13.13,0,0,1,0-.1.11.11,0,0,1,.08,0l68.85-3.65a.11.11,0,0,1,.11.09.12.12,0,0,1-.07.13L196.44,193.3ZM190.88,171l5.59,22,62.44-25.63Z" transform="translate(0)"/></g><g id="triangle36-74" data-name="triangle36"><path class="cls-6" d="M196.4,193.31h0l-56.56-3.84a.11.11,0,0,1-.1-.1.12.12,0,0,1,.07-.13l50.9-18.45a.1.1,0,0,1,.09,0,.12.12,0,0,1,.05.07l5.66,22.29a.13.13,0,0,1,0,.11A.11.11,0,0,1,196.4,193.31Zm-56-4,55.85,3.79-5.58-22Z" transform="translate(0)"/></g><g id="triangle36-75" data-name="triangle36"><path class="cls-6" d="M178,234.59h0l-38.11-8.77a.11.11,0,0,1-.09-.1.12.12,0,0,1,.06-.12l56.56-32.52a.1.1,0,0,1,.13,0,.13.13,0,0,1,0,.14l-18.44,41.28A.11.11,0,0,1,178,234.59Zm-37.8-8.93,37.74,8.68,18.26-40.88Z" transform="translate(0)"/></g><g id="triangle36-76" data-name="triangle36"><path class="cls-6" d="M139.84,225.82l-.06,0a.12.12,0,0,1-.05-.1V189.35a.12.12,0,0,1,0-.09.13.13,0,0,1,.08,0l56.56,3.84a.11.11,0,0,1,.1.09.12.12,0,0,1-.06.13l-56.56,32.52Zm.11-36.34v36L196,193.28Z" transform="translate(0)"/></g></g><g class="cls-7"><circle class="cls-4" cx="442.09" cy="184.77" r="1.98"/><circle class="cls-4" cx="76.52" cy="252.17" r="3.71"/><path class="cls-4" d="M203.34,242.89a1.29,1.29,0,1,1-1.29,1.29,1.29,1.29,0,0,1,1.29-1.29m0-1.4a2.69,2.69,0,1,0,2.69,2.69,2.69,2.69,0,0,0-2.69-2.69Z" transform="translate(0)"/><path class="cls-4" d="M187.58,89.5a1.17,1.17,0,1,1-1.17,1.17,1.17,1.17,0,0,1,1.17-1.17m0-1.28A2.45,2.45,0,1,0,190,90.67a2.45,2.45,0,0,0-2.45-2.45Z" transform="translate(0)"/><path class="cls-4" d="M35,74.09a3,3,0,1,1-3,3,3,3,0,0,1,3-3M35,73a4.07,4.07,0,1,0,4.07,4.07A4.07,4.07,0,0,0,35,73Z" transform="translate(0)"/><path class="cls-4" d="M314.19,52.2a3.25,3.25,0,1,1-3.25,3.25,3.25,3.25,0,0,1,3.25-3.25m0-1.15a4.4,4.4,0,1,0,4.4,4.4,4.4,4.4,0,0,0-4.4-4.4Z" transform="translate(0)"/></g><g class="cls-7"><circle class="cls-6" cx="156.52" cy="57.34" r="3.01"/><circle class="cls-6" cx="523.31" cy="89.34" r="3.71"/><path class="cls-6" d="M466.94,42.33a1.29,1.29,0,1,1-1.29,1.29,1.29,1.29,0,0,1,1.29-1.29m0-1.4a2.69,2.69,0,1,0,2.69,2.69,2.69,2.69,0,0,0-2.69-2.69Z" transform="translate(0)"/><path class="cls-6" d="M363.09,193.37a1.17,1.17,0,1,1-1.17,1.17,1.17,1.17,0,0,1,1.17-1.17m0-1.28a2.45,2.45,0,1,0,2.45,2.45,2.45,2.45,0,0,0-2.45-2.45Z" transform="translate(0)"/><path class="cls-6" d="M146,122.41a3,3,0,1,1-3,3,3,3,0,0,1,3-3m0-1.06a4.07,4.07,0,1,0,4.07,4.07,4.07,4.07,0,0,0-4.07-4.07Z" transform="translate(0)"/><path class="cls-6" d="M52,160.69a3.25,3.25,0,1,1-3.25,3.25A3.25,3.25,0,0,1,52,160.69m0-1.15a4.4,4.4,0,1,0,4.4,4.4,4.4,4.4,0,0,0-4.4-4.4Z" transform="translate(0)"/></g><text class="cls-8" transform="translate(35.02 79.18)">Empowering Your<tspan x="0" y="37.2">Digital Vision: </tspan><tspan x="0" y="74.4">Unleashing Software </tspan><tspan x="0" y="111.6">Solutions</tspan></text><text class="cls-9" transform="translate(400.69 81.17)">Trusted By</text><path class="cls-10" d="M432.12,121.88a4.84,4.84,0,0,0-4.33,2.21,4.53,4.53,0,0,1-3.83,2h-4a4.54,4.54,0,0,1-3.83-2,4.85,4.85,0,0,0-4.33-2.21,4.91,4.91,0,0,0-4.59,4.75,4.85,4.85,0,0,0,8.61,3.17,4.23,4.23,0,0,1,3.29-1.47h5.73a4.23,4.23,0,0,1,3.29,1.47,4.85,4.85,0,0,0,8.61-3.17A4.91,4.91,0,0,0,432.12,121.88ZM412,129.31a2.59,2.59,0,1,1,2.59-2.59A2.59,2.59,0,0,1,412,129.31Zm19.81,0a2.59,2.59,0,1,1,2.59-2.59A2.59,2.59,0,0,1,431.85,129.31Z" transform="translate(0)"/><path class="cls-10" d="M393,128.66a1.14,1.14,0,0,0,1.12-1.33,1.18,1.18,0,0,0-1.18-.94h-1.31a4.15,4.15,0,0,1-3.46-2,4.84,4.84,0,0,0-4.33-2.21,4.91,4.91,0,0,0-4.59,4.75,4.85,4.85,0,0,0,8.61,3.17,3.83,3.83,0,0,1,2.94-1.47Zm-8.89,1a2.59,2.59,0,1,1,2.59-2.59A2.59,2.59,0,0,1,384.15,129.65Z" transform="translate(0)"/><path class="cls-10" d="M409.05,117.54a10.4,10.4,0,0,1,6.44,2.26,1.51,1.51,0,0,0,1.88-2.37A13.36,13.36,0,1,0,419,136.77a1.51,1.51,0,0,0-2.26-2,10.34,10.34,0,1,1-7.73-17.22Z" transform="translate(0)"/><path class="cls-10" d="M426.81,130.64a1.52,1.52,0,0,0-1.83,1.12,16.39,16.39,0,0,1-31.89-.12,1.51,1.51,0,1,0-2.95.69,19.42,19.42,0,0,0,37.78.14A1.51,1.51,0,0,0,426.81,130.64Z" transform="translate(0)"/><path class="cls-10" d="M391.53,123.9a1.51,1.51,0,0,0,1.9-1,16.4,16.4,0,0,1,31.09-.5l.05.16a1.51,1.51,0,0,0,2.86-1l-.05-.17a19.43,19.43,0,0,0-36.83.59A1.51,1.51,0,0,0,391.53,123.9Z" transform="translate(0)"/><text class="cls-11" transform="translate(393.53 165.49)">CRX</text><text class="cls-12" transform="translate(475.32 166.86)"><tspan class="cls-13">C</tspan><tspan x="6.45" y="0">ONNECT</tspan></text><path class="cls-14" d="M476.9,116s0-1.72,7.06-1.25v1.32s-7-.79-7.06,1.52Z" transform="translate(0)"/><path class="cls-14" d="M476.9,136.85s0-1.72,7.06-1.25v1.32s-7-.79-7.06,1.52Z" transform="translate(0)"/><path class="cls-14" d="M473.33,126.42s0-1.72,7.06-1.25v1.32s-7-.79-7.06,1.52Z" transform="translate(0)"/><circle class="cls-15" cx="498.67" cy="129.44" r="22.21"/><path class="cls-16" d="M513.27,137.92a3.38,3.38,0,1,1,0-1.88h5.65a21.22,21.22,0,0,0,1-5.79h-.63a3.38,3.38,0,1,1,0-1.88h.62a21.2,21.2,0,0,0-1.09-5.73h-5.58a3.38,3.38,0,1,1,0-1.88h4.84a21.28,21.28,0,1,0,.1,17.17Z" transform="translate(0)"/><path class="cls-17" d="M470.47,121.21s.11-1.23,7.06-1.23v1.23c-3.4,0-7.06.49-7.06,1.58Z" transform="translate(0)"/><polygon class="cls-17" points="480.21 121.21 477.53 121.21 477.39 119.97 480.21 119.97 480.21 121.21"/><path class="cls-17" d="M470.47,131.64s.11-1.23,7.06-1.23v1.23c-3.4,0-7.06.49-7.06,1.58Z" transform="translate(0)"/><polygon class="cls-18" points="480.21 131.64 477.53 131.64 477.39 130.41 480.21 130.41 480.21 131.64"/><path class="cls-19" d="M491.82,109.29a21.29,21.29,0,0,0,0,40.3,23.6,23.6,0,0,0,0-40.3Z" transform="translate(0)"/><circle class="cls-20" cx="498.67" cy="129.44" r="20.15"/><path class="cls-21" d="M498.67,109.29a20.08,20.08,0,0,0-5.62.8,23.56,23.56,0,0,1,10.08,19c.41,0,.82.06,1.24.06a14.44,14.44,0,0,0,12.78-7.7A20.15,20.15,0,0,0,498.67,109.29Z" transform="translate(0)"/><circle class="cls-22" cx="510.02" cy="121.69" r="1.49"/><circle class="cls-22" cx="510.02" cy="136.98" r="1.49"/><circle class="cls-23" cx="516.07" cy="129.31" r="1.49"/><path class="cls-24" d="M502.29,115.5a3.38,3.38,0,0,0-3.24,2.44H481.56c-3.07-.06-4.66-1.06-4.66-1.94v1.94s-.08,1.65,4.33,1.86v0H499a3.38,3.38,0,1,0,3.24-4.32Zm0,4.87a1.49,1.49,0,1,1,1.49-1.49A1.5,1.5,0,0,1,502.29,120.37Z" transform="translate(0)"/><path class="cls-25" d="M502.29,136.36a3.38,3.38,0,0,0-3.24,2.44H481.56c-3.07-.06-4.66-1.06-4.66-1.94v1.94s-.08,1.65,4.33,1.86v0H499a3.38,3.38,0,1,0,3.24-4.32Zm0,4.87a1.49,1.49,0,1,1,1.49-1.49A1.5,1.5,0,0,1,502.29,141.23Z" transform="translate(0)"/><path class="cls-26" d="M505.87,125.93a3.38,3.38,0,0,0-3.24,2.44h-24c-3.49.07-5.3-1-5.3-1.94v1.94s-.08,1.78,4.87,1.88h24.43a3.38,3.38,0,1,0,3.24-4.32Zm0,4.87a1.49,1.49,0,1,1,1.49-1.49A1.5,1.5,0,0,1,505.87,130.8Z" transform="translate(0)"/><path class="cls-27" d="M495.86,120.72a3.38,3.38,0,0,0-3.24,2.44H475.86c-3.49.07-5.4-1-5.4-1.95v1.94s-.14,1.78,4.83,1.88h17.31a3.38,3.38,0,1,0,3.24-4.32Zm0,4.87a1.49,1.49,0,1,1,1.49-1.49A1.5,1.5,0,0,1,495.86,125.59Z" transform="translate(0)"/><path class="cls-28" d="M495.86,131.14a3.38,3.38,0,0,0-3.24,2.44H475.09c-3-.09-4.62-1.07-4.62-1.94v1.94s-.14,1.78,4.86,1.88h17.29a3.38,3.38,0,1,0,3.24-4.32Zm0,4.87a1.49,1.49,0,1,1,1.49-1.49A1.5,1.5,0,0,1,495.86,136Z" transform="translate(0)"/><path class="cls-10" d="M476.54,195.51a2.56,2.56,0,0,0-.5.05l-9.18-15.89a2.55,2.55,0,1,0-4.3-2.26H444.42a2.55,2.55,0,1,0-4.12,2.42l-9.09,15.74a2.55,2.55,0,1,0,0,5l9,15.67a2.55,2.55,0,1,0,4.14,2.49h8.05a1.29,1.29,0,0,0,2.34,0h7.78a2.55,2.55,0,1,0,4.32-2.32L476,200.55a2.55,2.55,0,1,0,.5-5Zm-11.14-3.77,8.88,5.13a2.53,2.53,0,0,0-.29,1h-8.6Zm8.6,6.53a2.53,2.53,0,0,0,.29,1l-8.14,4.7a1.29,1.29,0,0,0-.74-.45v-5.23Zm-10.15,6.5a1.29,1.29,0,0,0,.09.46l-4.45,2.57-5.5-9.53h11v5.22A1.29,1.29,0,0,0,463.85,204.76Zm-21.58-.15v-5.33a1.29,1.29,0,0,0,1.12-1h9.88l-5.26,9.1-.17,0a.75.75,0,0,0-.5.2Zm6.11,3,5.25-9.1,5.5,9.53-5.5,3.18-5.05-2.92a.75.75,0,0,0-.2-.69Zm4.75-22.34a.74.74,0,0,0,1,0l4,2.33a1.28,1.28,0,0,0,.38,1.54l-4.93,8.54-5.5-9.53Zm6.23,4.16a1.29,1.29,0,0,0,1-.54L465,191.5v6.35H454l4.93-8.54A1.29,1.29,0,0,0,459.36,189.39Zm5.63-9V191l-4.4-2.54a1.26,1.26,0,0,0-.4-1.38l4-6.87A2.54,2.54,0,0,0,465,180.4Zm-1.2-.34-3.95,6.83a1.28,1.28,0,0,0-1.44.33l-4.05-2.34a.7.7,0,0,0,0-.37l8.73-5A2.56,2.56,0,0,0,463.78,180.05Zm-19.45-1.41h18.31a2.53,2.53,0,0,0,.22.49l-8.69,5a.75.75,0,0,0-1.08,0l-8.9-5.14A2.53,2.53,0,0,0,444.34,178.64Zm-.37.72,8.92,5.15a.7.7,0,0,0,0,.37l-5,2.88-4.52-7.83A2.56,2.56,0,0,0,444,179.36Zm-1.7,1a2.53,2.53,0,0,0,.77-.24l4.52,7.83L442.27,191Zm5.5,7.95,5.5,9.53H443.4a1.29,1.29,0,0,0-1.14-1.13V191.5Zm-6.93,9.53h-7.62a2.53,2.53,0,0,0-.28-1l8.92-5.15v5A1.29,1.29,0,0,0,440.84,197.85Zm.59-17.5a2.56,2.56,0,0,0,.42,0v10.86l-9.14,5.28a2.56,2.56,0,0,0-.39-.42Zm.42,35.26a2.56,2.56,0,0,0-.48.05l-9-15.67a2.56,2.56,0,0,0,.39-.42l9.14,5.28Zm-8.92-16.38a2.53,2.53,0,0,0,.28-1h7.63a1.3,1.3,0,0,0,1,1v5.1Zm9.33,16.41V205.09l4.85,2.8a.73.73,0,0,0,.17.72l-4.2,7.28A2.53,2.53,0,0,0,442.27,215.63Zm1.17.48,4.21-7.29.19,0a.75.75,0,0,0,.54-.23l4.83,2.79L444,216.72A2.56,2.56,0,0,0,443.44,216.12Zm19.17,1.35h-7.89a1.29,1.29,0,0,0-2.19,0h-8.16a2.52,2.52,0,0,0-.14-.39l9.4-5.43,9.19,5.31A2.53,2.53,0,0,0,462.61,217.47Zm.43-.86-9-5.2,5.29-3.06,4.4,7.63A2.56,2.56,0,0,0,463,216.61Zm1.06-.81-4.42-7.65,4.45-2.57a1.29,1.29,0,0,0,.84.47v9.57A2.54,2.54,0,0,0,464.11,215.79Zm1.73-.07a2.54,2.54,0,0,0-.44-.1V206a1.29,1.29,0,0,0,1-1.73l8.15-4.71a2.56,2.56,0,0,0,.4.42Zm8.67-19.21-9.11-5.26V180.38a2.54,2.54,0,0,0,.39-.08l9.12,15.8A2.56,2.56,0,0,0,474.51,196.52Z" transform="translate(0)"/><text class="cls-29" transform="translate(418.02 239.96)">THE HEXAGON</text><text class="cls-30" transform="translate(37.07 213.1)">Our commitment to excellence,precision, and reliability<tspan x="0" y="13.2">sets us apart. As industry veterans, we understand the</tspan><tspan x="0" y="26.4">unique challenges businesses face.</tspan></text></g></g></svg>