<svg xmlns="http://www.w3.org/2000/svg" viewBox="0 0 500 372.06"><defs><style>.cls-1{fill:#ebebeb;}.cls-2{fill:#f0f0f0;}.cls-3{fill:#f5f5f5;}.cls-4{fill:#e6e6e6;}.cls-5{fill:#e0e0e0;}.cls-6{fill:#407bff;}.cls-15,.cls-16,.cls-17,.cls-22,.cls-7,.cls-8,.cls-9{fill:#fff;}.cls-7{opacity:0.3;}.cls-20,.cls-8{opacity:0.4;}.cls-10{opacity:0.1;}.cls-11{opacity:0.8;}.cls-12,.cls-21,.cls-22{opacity:0.6;}.cls-13{fill:#263238;}.cls-14,.cls-17{opacity:0.2;}.cls-15{opacity:0.7;}.cls-16{opacity:0.5;}.cls-18{fill:#b55b52;}.cls-19{fill:#a02724;}.cls-21{fill:#fafafa;}</style></defs><title>login</title><g id="Background_Complete" data-name="Background Complete"><rect class="cls-1" x="416.78" y="343.54" width="33.12" height="0.25"/><rect class="cls-1" x="322.53" y="346.26" width="8.69" height="0.25"/><rect class="cls-1" x="396.59" y="334.26" width="19.19" height="0.25"/><rect class="cls-1" x="52.46" y="335.94" width="43.19" height="0.25"/><rect class="cls-1" x="104.56" y="335.94" width="6.33" height="0.25"/><rect class="cls-1" x="131.47" y="340.16" width="93.68" height="0.25"/><path class="cls-1" d="M238.4,337.8H45.3a5.71,5.71,0,0,1-5.71-5.71V60.66A5.71,5.71,0,0,1,45.3,55H238.4a5.71,5.71,0,0,1,5.71,5.71V332.09A5.71,5.71,0,0,1,238.4,337.8ZM45.3,55.2a5.46,5.46,0,0,0-5.46,5.46V332.09a5.46,5.46,0,0,0,5.46,5.46H238.4a5.46,5.46,0,0,0,5.46-5.46V60.66a5.46,5.46,0,0,0-5.46-5.46Z" transform="translate(0 -54.95)"/><path class="cls-1" d="M454.7,337.8H261.6a5.71,5.71,0,0,1-5.71-5.71V60.66A5.71,5.71,0,0,1,261.6,55H454.7a5.71,5.71,0,0,1,5.71,5.71V332.09A5.71,5.71,0,0,1,454.7,337.8ZM261.6,55.2a5.46,5.46,0,0,0-5.46,5.46V332.09a5.46,5.46,0,0,0,5.46,5.46H454.7a5.46,5.46,0,0,0,5.46-5.46V60.66a5.46,5.46,0,0,0-5.46-5.46Z" transform="translate(0 -54.95)"/><rect class="cls-1" y="327.45" width="500" height="0.25"/><path class="cls-2" d="M119.33,314.75c-.84-9.66-10.7-13.27-22.39-12.25s-20.76,6.3-19.92,16Z" transform="translate(0 -54.95)"/><path class="cls-2" d="M96.56,298.09c5.42-.47,7.15-5.05,6.68-10.48s-3-9.63-8.4-9.16-7.15,5.05-6.68,10.48S91.14,298.56,96.56,298.09Z" transform="translate(0 -54.95)"/><circle class="cls-3" cx="334.69" cy="109.44" r="5.43" transform="translate(-8.27 -25.37) rotate(-5)"/><circle class="cls-3" cx="364.76" cy="106.81" r="5.43" transform="translate(-7.92 -22.76) rotate(-5)"/><circle class="cls-3" cx="394.83" cy="104.18" r="5.43" transform="translate(-7.58 -20.14) rotate(-5)"/><circle class="cls-3" cx="337.37" cy="140.1" r="5.43" transform="translate(-10.93 -25.02) rotate(-5)"/><circle class="cls-3" cx="367.44" cy="137.47" r="5.43" transform="translate(-10.58 -22.41) rotate(-5)"/><circle class="cls-3" cx="397.51" cy="134.84" r="5.43" transform="translate(-10.24 -19.79) rotate(-5)"/><circle class="cls-3" cx="340.05" cy="170.75" r="5.43" transform="translate(-13.59 -24.67) rotate(-5)"/><circle class="cls-3" cx="370.12" cy="168.12" r="5.43" transform="translate(-13.24 -22.05) rotate(-5)"/><circle class="cls-3" cx="400.2" cy="165.49" r="5.43" transform="translate(-12.9 -19.44) rotate(-5)"/><path class="cls-4" d="M399.11,166.78l-61.79,5.41,54.78-66.57L336,110.53a1.19,1.19,0,0,1-1.29-1.08h0a1.19,1.19,0,0,1,1.08-1.29l61.79-5.41-54.78,66.57,56.13-4.91a1.19,1.19,0,0,1,1.29,1.08h0A1.19,1.19,0,0,1,399.11,166.78Z" transform="translate(0 -54.95)"/><path class="cls-2" d="M400.06,285.61a1.57,1.57,0,0,0-1.35-1.07,10.75,10.75,0,0,1-7.12-3.15c-2.47-2.48-3.92-6.26-4.16-10.74a1.59,1.59,0,0,0-1.58-1.49h0a1.61,1.61,0,0,0-1.61,1.7c.29,5.26,2.06,9.75,5.09,12.79a14,14,0,0,0,8.88,4.06l.23,0A1.6,1.6,0,0,0,400.06,285.61Z" transform="translate(0 -54.95)"/><path class="cls-2" d="M396.86,304.8c-13.25-1.16-22.81-10.19-25.84-24.29a1.61,1.61,0,0,1,1.29-1.94h0a1.59,1.59,0,0,1,1.83,1.22c2.71,12.68,11.22,20.8,23,21.83,12.92,1.13,26.79-7.37,29.27-28.79a1.61,1.61,0,0,1,1.73-1.43h0a1.6,1.6,0,0,1,1.45,1.76C427.22,293.35,413.94,306.29,396.86,304.8Z" transform="translate(0 -54.95)"/><path class="cls-2" d="M371.86,266.46h0a1.6,1.6,0,0,1-1.45-1.76c2.38-20.2,15.66-33.15,32.74-31.65,15,1.31,25,12.51,26.62,29.38a1.59,1.59,0,0,1-1.5,1.72h0a1.61,1.61,0,0,1-1.69-1.47c-1.44-15.2-10.42-25.27-23.7-26.44-12.92-1.13-26.79,7.37-29.27,28.79A1.61,1.61,0,0,1,371.86,266.46Z" transform="translate(0 -54.95)"/><path class="cls-2" d="M397.51,296.23a21.93,21.93,0,0,1-6.9-1.72,1.61,1.61,0,0,1-.77-2.24h0a1.58,1.58,0,0,1,2-.7,18.83,18.83,0,0,0,6.57,1.52c9.8.56,20.14-6.38,21.15-23.14.62-10.33-2.91-18.67-9.52-22.66a1.59,1.59,0,0,1-.61-2.07h0a1.61,1.61,0,0,1,2.27-.67c7.64,4.61,11.75,14,11,25.58-1,16.17-11.06,26.92-24.53,26.15Z" transform="translate(0 -54.95)"/><path class="cls-2" d="M383.27,286.26a1.61,1.61,0,0,1-2.3-.53,32.29,32.29,0,0,1-3.75-18c.94-15.47,10.21-26,22.8-26.18a1.61,1.61,0,0,1,1.64,1.7h0a1.59,1.59,0,0,1-1.56,1.5c-9.34.18-18.72,7.24-19.68,23.17a29.06,29.06,0,0,0,3.34,16.26,1.58,1.58,0,0,1-.49,2.1Z" transform="translate(0 -54.95)"/><path class="cls-2" d="M405.13,285h0a1.6,1.6,0,0,1,.65-2c4.2-2.53,6.79-7.85,6.83-14.25,0-5.13-1.45-9.47-4.19-12.22a11,11,0,0,0-8.12-3.18c-4.93,0-8.92,2.71-11.13,7.47a1.59,1.59,0,0,1-2,.82h0a1.61,1.61,0,0,1-.9-2.19c2.74-5.84,7.87-9.28,14-9.3a14.27,14.27,0,0,1,10.39,4.13c3.35,3.36,5.17,8.51,5.13,14.5-.05,7.56-3.23,13.9-8.42,17A1.6,1.6,0,0,1,405.13,285Z" transform="translate(0 -54.95)"/><path class="cls-2" d="M393.61,273.19a1.61,1.61,0,0,1-2.16-1.11q-.16-.65-.26-1.34c-.91-6,2.31-11.19,7.48-12.12a7.87,7.87,0,0,1,6.87,1.77,1.55,1.55,0,0,1-.12,2.41l-.1.07a1.59,1.59,0,0,1-2-.15,4.73,4.73,0,0,0-4.11-1c-3.94.7-5.44,4.8-4.88,8.49q.08.54.2,1a1.61,1.61,0,0,1-.95,1.89Z" transform="translate(0 -54.95)"/><path class="cls-2" d="M398.9,279.35h0a1.49,1.49,0,0,1-1.12-2.27l.14-.22a1.49,1.49,0,0,1,1.38-.69,6.16,6.16,0,0,0,1.5-.09c3.44-.62,5-3.82,5-7.08a1.62,1.62,0,0,1,1.36-1.64h0a1.59,1.59,0,0,1,1.84,1.51c.1,5.22-3,9.53-7.63,10.36A9.26,9.26,0,0,1,398.9,279.35Z" transform="translate(0 -54.95)"/><path class="cls-2" d="M399.61,273.44a3.87,3.87,0,0,1-3.44-2.94,1.43,1.43,0,0,1,1.51-1.78l.37,0a1.45,1.45,0,0,1,1.23,1,.69.69,0,0,0,.6.52c.77.07.9-1,.92-1.26a1.89,1.89,0,0,0-.22-1.13,1.78,1.78,0,0,1-.39-1.19h0a1.6,1.6,0,0,1,2.83-.89,4.79,4.79,0,0,1,1,3.5C403.77,271.89,401.92,273.64,399.61,273.44Z" transform="translate(0 -54.95)"/><path class="cls-2" d="M369.53,237.65h0a1.6,1.6,0,0,1-1.45-1.73l1.21-13.87,13.87,1.21a1.6,1.6,0,0,1,1.45,1.73h0a1.6,1.6,0,0,1-1.73,1.46l-10.68-.93-.93,10.68A1.6,1.6,0,0,1,369.53,237.65Z" transform="translate(0 -54.95)"/><path class="cls-2" d="M435.46,243.42h0a1.6,1.6,0,0,1-1.45-1.73l.93-10.68-10.68-.93a1.6,1.6,0,0,1-1.45-1.73h0a1.6,1.6,0,0,1,1.73-1.45l13.87,1.21L437.2,242A1.6,1.6,0,0,1,435.46,243.42Z" transform="translate(0 -54.95)"/><path class="cls-2" d="M430.55,318l-13.87-1.21a1.6,1.6,0,0,1-1.45-1.73h0a1.6,1.6,0,0,1,1.73-1.45l10.68.93.93-10.68a1.6,1.6,0,0,1,1.73-1.46h0a1.6,1.6,0,0,1,1.45,1.73Z" transform="translate(0 -54.95)"/><path class="cls-2" d="M375.3,313.14l-13.87-1.21,1.21-13.87a1.6,1.6,0,0,1,1.73-1.45h0a1.6,1.6,0,0,1,1.45,1.73L364.9,309l10.68.93a1.6,1.6,0,0,1,1.46,1.73h0A1.6,1.6,0,0,1,375.3,313.14Z" transform="translate(0 -54.95)"/><path class="cls-5" d="M74.73,283.13h0a1,1,0,0,1-1.07-.89l-.75-8.53,8.53-.75a1,1,0,0,1,1.07.89h0a1,1,0,0,1-.89,1.07l-6.56.57.57,6.56A1,1,0,0,1,74.73,283.13Z" transform="translate(0 -54.95)"/><path class="cls-5" d="M115.27,279.58h0a1,1,0,0,1-1.07-.89l-.57-6.56-6.56.57a1,1,0,0,1-1.07-.89h0a1,1,0,0,1,.89-1.07l8.53-.75.75,8.53A1,1,0,0,1,115.27,279.58Z" transform="translate(0 -54.95)"/><path class="cls-5" d="M119.47,316.29l-8.53.75a1,1,0,0,1-1.07-.89h0a1,1,0,0,1,.89-1.07l6.56-.57-.57-6.56a1,1,0,0,1,.89-1.07h0a1,1,0,0,1,1.07.89Z" transform="translate(0 -54.95)"/><path class="cls-5" d="M85.49,319.26,77,320l-.75-8.53a1,1,0,0,1,.89-1.07h0a1,1,0,0,1,1.07.89l.57,6.56,6.56-.57a1,1,0,0,1,1.07.89h0A1,1,0,0,1,85.49,319.26Z" transform="translate(0 -54.95)"/><path class="cls-1" d="M114.58,140.95,82,143.8l-.67-7.64A14.42,14.42,0,1,1,110,133.65l.39,4.44,4.71-.41-.39-4.44a19.15,19.15,0,1,0-38.15,3.34l.67,7.68a7.66,7.66,0,0,0-6.16,8.18l2.33,26.64a7.66,7.66,0,0,0,8.3,7l36.53-3.2a7.66,7.66,0,0,0,7-8.3l-2.33-26.64A7.66,7.66,0,0,0,114.58,140.95Zm-13.86,20.53.8,9.17a2.74,2.74,0,1,1-5.45.48l-.8-9.17a4.61,4.61,0,1,1,5.45-.48Z" transform="translate(0 -54.95)"/><path class="cls-2" d="M170.44,156.39l-3.3-5.38a17.18,17.18,0,0,1-5,0l-3.3,5.38-.63-.17a24.89,24.89,0,0,1-6.1-2.53l-.57-.33,1.4-5.84a.88.88,0,0,1,1.06-.65h0a.88.88,0,0,1,.65,1.06l-1.09,4.55a23,23,0,0,0,4.47,1.86l3.22-5.25.58.1a17.49,17.49,0,0,0,5.64,0l.58-.1,3.22,5.25a23.11,23.11,0,0,0,4.47-1.86l-1.43-6,.48-.34a17.45,17.45,0,0,0,3.47-3.31.89.89,0,0,1,1.21-.18h0a.87.87,0,0,1,.19,1.25,19.19,19.19,0,0,1-3.37,3.32l1.47,6.13-.57.33a24.88,24.88,0,0,1-6.09,2.53Zm-20.22-11.74q-.42-.47-.8-1l-6.13,1.47-.33-.57a24.89,24.89,0,0,1-2.53-6.1l-.17-.63,5.38-3.3a17.3,17.3,0,0,1,0-5l-5.38-3.3.17-.63a24.89,24.89,0,0,1,2.53-6.1l.33-.57,6.13,1.47a19.2,19.2,0,0,1,3.56-3.56l-1.11-4.64a.88.88,0,0,1,.65-1.06h0a.88.88,0,0,1,1.06.65l1.38,5.78-.48.35a17.53,17.53,0,0,0-4,4l-.34.48-6-1.43a23.16,23.16,0,0,0-1.85,4.47l5.25,3.22-.09.58a16.07,16.07,0,0,0,0,5.64l.1.58-5.25,3.22a23.16,23.16,0,0,0,1.85,4.47l6-1.43.34.48c.33.45.67.89,1,1.31a.86.86,0,0,1,0,1.2l0,0A.86.86,0,0,1,150.22,144.65Zm35.74.49-2.26-.54a.88.88,0,0,1-.65-1.06h0a.88.88,0,0,1,1.06-.65l1,.23a23.15,23.15,0,0,0,1.85-4.47l-5.25-3.22.1-.58a16.07,16.07,0,0,0,0-5.64l-.09-.58,5.25-3.22a23.15,23.15,0,0,0-1.85-4.47l-6,1.43-.34-.48a17.53,17.53,0,0,0-4-4l-.48-.35,1.43-6a23.16,23.16,0,0,0-4.47-1.86L168,115l-.58-.09a17.62,17.62,0,0,0-5.64,0l-.58.09L158,109.72l-.6.19a.87.87,0,0,1-1.09-.53h0a.88.88,0,0,1,.54-1.14c.44-.14.88-.27,1.32-.39l.63-.17,3.3,5.38a17.06,17.06,0,0,1,5,0l3.3-5.38.63.17a25,25,0,0,1,6.09,2.53l.57.33-1.47,6.13a19.2,19.2,0,0,1,3.56,3.56l6.13-1.47.33.57a24.89,24.89,0,0,1,2.53,6.1l.17.63-5.38,3.3a17.29,17.29,0,0,1,0,5l5.38,3.3-.17.63a24.89,24.89,0,0,1-2.53,6.1Zm-21.58-4.54a8.57,8.57,0,0,1-.74-17.08.89.89,0,0,1,1,.88h0a.87.87,0,0,1-.77.87,6.81,6.81,0,1,0,6.35,2.86.87.87,0,0,1,.15-1.14h0a.89.89,0,0,1,1.31.16,8.57,8.57,0,0,1-7.28,13.46Z" transform="translate(0 -54.95)"/><path class="cls-4" d="M108.31,229.59l-2.13-3.47a11.09,11.09,0,0,1-3.25,0l-2.13,3.47-.41-.11a16.08,16.08,0,0,1-3.94-1.63l-.37-.21.9-3.77a.57.57,0,0,1,.69-.42h0a.57.57,0,0,1,.42.69l-.71,2.94a14.89,14.89,0,0,0,2.89,1.2l2.08-3.39.38.06a11.3,11.3,0,0,0,3.64,0l.38-.06,2.08,3.39a14.93,14.93,0,0,0,2.89-1.2l-.93-3.87.31-.22a11.27,11.27,0,0,0,2.24-2.14.57.57,0,0,1,.78-.12h0a.57.57,0,0,1,.12.81,12.41,12.41,0,0,1-2.18,2.14l.95,4-.37.21a16.07,16.07,0,0,1-3.94,1.63ZM95.25,222q-.27-.31-.52-.63l-4,.95-.21-.37A16.08,16.08,0,0,1,88.93,218l-.11-.41,3.47-2.13a11.18,11.18,0,0,1,0-3.25l-3.47-2.13.11-.41a16.08,16.08,0,0,1,1.63-3.94l.21-.37,4,.95A12.4,12.4,0,0,1,97,204l-.72-3a.57.57,0,0,1,.42-.68h0a.57.57,0,0,1,.68.42l.89,3.73-.31.22a11.33,11.33,0,0,0-2.58,2.58l-.22.31-3.87-.93a15,15,0,0,0-1.2,2.89l3.39,2.08-.06.38a10.38,10.38,0,0,0,0,3.65l.06.38-3.39,2.08a15,15,0,0,0,1.2,2.89l3.87-.93.22.31c.21.29.44.58.67.85a.56.56,0,0,1,0,.77l0,0A.56.56,0,0,1,95.25,222Zm23.09.32-1.46-.35a.57.57,0,0,1-.42-.69h0a.57.57,0,0,1,.69-.42l.63.15a15,15,0,0,0,1.2-2.89l-3.39-2.08.06-.38a10.38,10.38,0,0,0,0-3.65l-.06-.38,3.39-2.08a15,15,0,0,0-1.2-2.89l-3.87.93-.22-.31a11.33,11.33,0,0,0-2.58-2.58l-.31-.22.93-3.87a15,15,0,0,0-2.89-1.2l-2.08,3.39-.38-.06a11.38,11.38,0,0,0-3.65,0l-.38.06-2.08-3.39-.39.12a.56.56,0,0,1-.7-.34h0a.57.57,0,0,1,.35-.73l.85-.25.41-.11,2.13,3.47a11,11,0,0,1,3.25,0l2.13-3.47.41.11a16.12,16.12,0,0,1,3.94,1.63l.37.21-.95,4a12.4,12.4,0,0,1,2.3,2.3l4-.95.21.37a16.08,16.08,0,0,1,1.63,3.94l.11.41-3.47,2.13a11.18,11.18,0,0,1,0,3.25l3.47,2.13-.11.41a16.08,16.08,0,0,1-1.63,3.94Zm-13.94-2.93a5.54,5.54,0,0,1-.48-11,.57.57,0,0,1,.64.57h0a.56.56,0,0,1-.5.56,4.4,4.4,0,1,0,4.1,1.85.56.56,0,0,1,.09-.74h0a.57.57,0,0,1,.85.1,5.54,5.54,0,0,1-4.71,8.7Z" transform="translate(0 -54.95)"/></g><g id="Shadow"><ellipse id="_Path_" data-name="&lt;Path&gt;" class="cls-3" cx="250" cy="360.74" rx="193.89" ry="11.32"/></g><g id="Device"><path class="cls-6" d="M363.45,145.83H330.89l-23,263.25h32.56a18.72,18.72,0,0,0,18.26-16.79l20.09-229.66A15.16,15.16,0,0,0,363.45,145.83Z" transform="translate(0 -54.95)"/><path class="cls-6" d="M356.81,145.83H246.61a18.72,18.72,0,0,0-18.26,16.79L208.25,392.28a15.16,15.16,0,0,0,15.32,16.79h110.2A18.72,18.72,0,0,0,352,392.28l20.09-229.66A15.16,15.16,0,0,0,356.81,145.83Z" transform="translate(0 -54.95)"/><path class="cls-7" d="M356.81,145.83H246.61a18.72,18.72,0,0,0-18.26,16.79L208.25,392.28a15.16,15.16,0,0,0,15.32,16.79h110.2A18.72,18.72,0,0,0,352,392.28l20.09-229.66A15.16,15.16,0,0,0,356.81,145.83Z" transform="translate(0 -54.95)"/><path class="cls-8" d="M356.34,151.21H327.28a4.33,4.33,0,0,0-4,2.77h0a16,16,0,0,1-14.63,10.23H291.51A12.86,12.86,0,0,1,278.66,154h0a3.48,3.48,0,0,0-3.47-2.77H246.14a12.7,12.7,0,0,0-12.41,11.41L213.63,392.28A10.29,10.29,0,0,0,224,403.7h110.2a12.7,12.7,0,0,0,12.41-11.41l20.09-229.66A10.29,10.29,0,0,0,356.34,151.21Z" transform="translate(0 -54.95)"/><path class="cls-9" d="M328.88,276H251.76a3.73,3.73,0,0,1-3.78-4.14l.39-4.41a4.61,4.61,0,0,1,4.5-4.14H330a3.73,3.73,0,0,1,3.78,4.14l-.39,4.41A4.61,4.61,0,0,1,328.88,276Z" transform="translate(0 -54.95)"/><path class="cls-9" d="M327.22,295H250.09a3.73,3.73,0,0,1-3.78-4.14l.39-4.41a4.61,4.61,0,0,1,4.5-4.14h77.12a3.73,3.73,0,0,1,3.78,4.14l-.39,4.41A4.61,4.61,0,0,1,327.22,295Z" transform="translate(0 -54.95)"/><path class="cls-10" d="M305.45,155.51a5.11,5.11,0,0,1-5,4.59,4.14,4.14,0,0,1-4.19-4.59,5.11,5.11,0,0,1,5-4.59A4.14,4.14,0,0,1,305.45,155.51Z" transform="translate(0 -54.95)"/><path class="cls-10" d="M303.37,155.51a2.79,2.79,0,0,1-2.73,2.51,2.26,2.26,0,0,1-2.29-2.51,2.79,2.79,0,0,1,2.73-2.51A2.26,2.26,0,0,1,303.37,155.51Z" transform="translate(0 -54.95)"/><g class="cls-11"><path class="cls-9" d="M342.77,163.17h0a1.21,1.21,0,0,1-1.23-1.35l.22-2.46a1.5,1.5,0,0,1,1.46-1.35h0a1.21,1.21,0,0,1,1.23,1.35l-.22,2.46A1.5,1.5,0,0,1,342.77,163.17Z" transform="translate(0 -54.95)"/><path class="cls-9" d="M353.53,163.17h0a1.21,1.21,0,0,1-1.23-1.35l.5-5.77a1.5,1.5,0,0,1,1.46-1.35h0a1.21,1.21,0,0,1,1.23,1.35l-.5,5.77A1.5,1.5,0,0,1,353.53,163.17Z" transform="translate(0 -54.95)"/><path class="cls-9" d="M348.15,163.17h0a1.21,1.21,0,0,1-1.23-1.35l.36-4.11a1.5,1.5,0,0,1,1.46-1.35h0a1.21,1.21,0,0,1,1.23,1.35l-.36,4.11A1.5,1.5,0,0,1,348.15,163.17Z" transform="translate(0 -54.95)"/></g><g class="cls-11"><path class="cls-9" d="M250.64,163.17h-6.76a.69.69,0,0,1-.69-.76l.32-3.63a.85.85,0,0,1,.83-.76h6.76a.69.69,0,0,1,.69.76l-.32,3.63A.85.85,0,0,1,250.64,163.17Z" transform="translate(0 -54.95)"/><path class="cls-9" d="M253.77,162.18h0a.69.69,0,0,1-.69-.76l.15-1.66A.85.85,0,0,1,254,159h0a.69.69,0,0,1,.69.76l-.15,1.66A.85.85,0,0,1,253.77,162.18Z" transform="translate(0 -54.95)"/></g><path class="cls-9" d="M327.1,224.63c-1.56,17.83-17.28,32.29-35.11,32.29s-31-14.45-29.46-32.29,17.28-32.29,35.11-32.29S328.66,206.8,327.1,224.63Z" transform="translate(0 -54.95)"/><path class="cls-6" d="M294.92,223.38c-8.49,0-15.65,3.23-16.26,10.24l-.68,7.78h30.73l.68-7.78C310,226.61,303.41,223.38,294.92,223.38Z" transform="translate(0 -54.95)"/><path class="cls-6" d="M295.2,220.17c3.94,0,5.75-3.19,6.1-7.13s-.91-7.13-4.85-7.13-5.75,3.19-6.1,7.13S291.26,220.17,295.2,220.17Z" transform="translate(0 -54.95)"/><path class="cls-6" d="M325.36,269.38c-2.1,0-3.86.8-4,2.53l-.17,1.92h7.59l.17-1.92C329.09,270.18,327.46,269.38,325.36,269.38Z" transform="translate(0 -54.95)"/><path class="cls-6" d="M325.43,268.59c1,0,1.42-.79,1.51-1.76s-.23-1.76-1.2-1.76-1.42.79-1.51,1.76S324.46,268.59,325.43,268.59Z" transform="translate(0 -54.95)"/><path class="cls-6" d="M302,314H272a5.72,5.72,0,0,1-5.79-6.35h0a7.07,7.07,0,0,1,6.9-6.35h30a5.72,5.72,0,0,1,5.79,6.35h0A7.07,7.07,0,0,1,302,314Z" transform="translate(0 -54.95)"/><path class="cls-6" d="M298.37,384.82H266.26a6,6,0,0,1-6.12-6.71l2-23.43a7.47,7.47,0,0,1,7.29-6.71H301.6a6,6,0,0,1,6.12,6.71l-2,23.43A7.47,7.47,0,0,1,298.37,384.82Z" transform="translate(0 -54.95)"/><g class="cls-12"><path class="cls-9" d="M288.47,360.6a3.64,3.64,0,0,0-3.68-4,4.49,4.49,0,0,0-4.39,4,3.66,3.66,0,0,0,1.36,3.23L281,371.9a2.16,2.16,0,0,0,2.19,2.4,2.67,2.67,0,0,0,2.61-2.4l.71-8.07A4.46,4.46,0,0,0,288.47,360.6Z" transform="translate(0 -54.95)"/></g><path class="cls-6" d="M301.88,352.86h-4.14l1-11.59a11.4,11.4,0,0,0-11.53-12.63,14.08,14.08,0,0,0-13.74,12.63l-1,11.59h-4.14l1-11.59a18.69,18.69,0,0,1,18.24-16.77,15.14,15.14,0,0,1,15.3,16.77Z" transform="translate(0 -54.95)"/><path class="cls-6" d="M325.87,287.13,326,286a1.86,1.86,0,0,0-1.88-2.06,2.3,2.3,0,0,0-2.24,2.06l-.1,1.11a.92.92,0,0,0-.89.82l-.26,3a.74.74,0,0,0,.75.82h4.12a.92.92,0,0,0,.89-.82l.26-3A.74.74,0,0,0,325.87,287.13ZM324,284.47a1.4,1.4,0,0,1,1.42,1.55l-.1,1.11h-3.1l.1-1.11A1.73,1.73,0,0,1,324,284.47Z" transform="translate(0 -54.95)"/><path class="cls-13" d="M263.85,288.32l-1.44-.3a.27.27,0,0,1-.19-.38l.6-1.42a.28.28,0,0,0-.47-.29l-1.09,1.12a.29.29,0,0,1-.44,0l-.89-1.12a.31.31,0,0,0-.52.29l.35,1.42a.32.32,0,0,1-.25.38l-1.49.3c-.32.06-.36.51-.05.58l1.44.3a.27.27,0,0,1,.19.38L259,291a.28.28,0,0,0,.47.29l1.09-1.12a.29.29,0,0,1,.44,0l.89,1.12a.31.31,0,0,0,.52-.29l-.35-1.42a.32.32,0,0,1,.25-.38l1.49-.3C264.12,288.83,264.16,288.38,263.85,288.32Z" transform="translate(0 -54.95)"/><path class="cls-13" d="M273.31,288.32l-1.44-.3a.27.27,0,0,1-.19-.38l.6-1.42a.28.28,0,0,0-.47-.29l-1.09,1.12a.29.29,0,0,1-.44,0l-.89-1.12a.31.31,0,0,0-.52.29l.35,1.42a.32.32,0,0,1-.25.38l-1.49.3c-.32.06-.36.51-.05.58l1.44.3a.27.27,0,0,1,.19.38l-.6,1.42a.28.28,0,0,0,.47.29l1.09-1.12a.29.29,0,0,1,.44,0l.89,1.12a.31.31,0,0,0,.52-.29l-.35-1.42a.32.32,0,0,1,.25-.38l1.49-.3C273.58,288.83,273.62,288.38,273.31,288.32Z" transform="translate(0 -54.95)"/><path class="cls-13" d="M282.77,288.32l-1.44-.3a.27.27,0,0,1-.19-.38l.6-1.42a.28.28,0,0,0-.47-.29l-1.09,1.12a.29.29,0,0,1-.44,0l-.89-1.12a.31.31,0,0,0-.52.29l.35,1.42a.32.32,0,0,1-.25.38l-1.49.3c-.32.06-.36.51-.05.58l1.44.3a.27.27,0,0,1,.19.38l-.6,1.42a.28.28,0,0,0,.47.29l1.09-1.12a.29.29,0,0,1,.44,0l.89,1.12a.31.31,0,0,0,.52-.29l-.35-1.42a.32.32,0,0,1,.25-.38l1.49-.3C283,288.83,283.08,288.38,282.77,288.32Z" transform="translate(0 -54.95)"/><path class="cls-13" d="M292.24,288.32l-1.44-.3a.27.27,0,0,1-.19-.38l.6-1.42a.28.28,0,0,0-.47-.29l-1.09,1.12a.29.29,0,0,1-.44,0l-.89-1.12a.31.31,0,0,0-.52.29l.35,1.42a.32.32,0,0,1-.25.38l-1.49.3c-.32.06-.36.51-.05.58l1.44.3a.27.27,0,0,1,.19.38l-.6,1.42a.28.28,0,0,0,.47.29l1.09-1.12a.29.29,0,0,1,.44,0l.89,1.12a.31.31,0,0,0,.52-.29l-.35-1.42a.32.32,0,0,1,.25-.38l1.49-.3C292.51,288.83,292.55,288.38,292.24,288.32Z" transform="translate(0 -54.95)"/><path class="cls-13" d="M301.7,288.32l-1.44-.3a.27.27,0,0,1-.19-.38l.6-1.42a.28.28,0,0,0-.47-.29l-1.09,1.12a.29.29,0,0,1-.44,0l-.89-1.12a.31.31,0,0,0-.52.29l.35,1.42a.32.32,0,0,1-.25.38l-1.49.3c-.32.06-.36.51-.05.58l1.44.3a.27.27,0,0,1,.19.38l-.6,1.42a.28.28,0,0,0,.47.29l1.09-1.12a.29.29,0,0,1,.44,0l.89,1.12a.31.31,0,0,0,.52-.29l-.35-1.42a.32.32,0,0,1,.25-.38l1.49-.3C302,288.83,302,288.38,301.7,288.32Z" transform="translate(0 -54.95)"/><path class="cls-13" d="M311.16,288.32l-1.44-.3a.27.27,0,0,1-.19-.38l.6-1.42a.28.28,0,0,0-.47-.29l-1.09,1.12a.29.29,0,0,1-.44,0l-.89-1.12a.31.31,0,0,0-.52.29l.35,1.42a.32.32,0,0,1-.25.38l-1.49.3c-.32.06-.36.51-.05.58l1.44.3a.27.27,0,0,1,.19.38l-.6,1.42a.28.28,0,0,0,.47.29l1.09-1.12a.29.29,0,0,1,.44,0l.89,1.12a.31.31,0,0,0,.52-.29l-.35-1.42a.32.32,0,0,1,.25-.38l1.49-.3C311.43,288.83,311.47,288.38,311.16,288.32Z" transform="translate(0 -54.95)"/><path class="cls-13" d="M288.35,267.61H270.58a2.23,2.23,0,0,0-2.17,2,1.8,1.8,0,0,0,1.82,2H288a2.23,2.23,0,0,0,2.17-2A1.8,1.8,0,0,0,288.35,267.61Z" transform="translate(0 -54.95)"/><path class="cls-13" d="M306.39,267.61H296.08a2.23,2.23,0,0,0-2.17,2,1.8,1.8,0,0,0,1.82,2H306a2.23,2.23,0,0,0,2.17-2A1.8,1.8,0,0,0,306.39,267.61Z" transform="translate(0 -54.95)"/><path class="cls-13" d="M320,358.26a45.27,45.27,0,0,0-16.59,11,19.7,19.7,0,0,0-9.72-4l-.47-.07-.21,2.36.26.1a18.38,18.38,0,0,1,9.33,7.69l.34.55.37-.59a43.4,43.4,0,0,1,16.92-15.56l.23-.12.14-1.57Z" transform="translate(0 -54.95)"/></g><g id="Policy"><path class="cls-14" d="M230.64,161.37a17.8,17.8,0,0,0-2.3,7.25L213.45,338.84h46.08l9.26-35.49-3-35.49L275,232.36l-3-35.49,9.26-35.49Z" transform="translate(0 -54.95)"/><polygon class="cls-6" points="267.95 131.91 277.21 96.42 160.68 96.42 151.43 131.91 154.47 167.41 145.22 202.9 148.26 238.4 139.01 273.89 255.53 273.89 264.79 238.4 261.74 202.9 271 167.41 267.95 131.91"/><polygon class="cls-15" points="267.95 131.91 277.21 96.42 160.68 96.42 151.43 131.91 154.47 167.41 145.22 202.9 148.26 238.4 139.01 273.89 255.53 273.89 264.79 238.4 261.74 202.9 271 167.41 267.95 131.91"/><polygon class="cls-16" points="267.95 131.91 151.43 131.91 160.68 96.42 277.21 96.42 267.95 131.91"/><polygon class="cls-16" points="261.74 202.9 145.22 202.9 154.47 167.41 271 167.41 261.74 202.9"/><polygon class="cls-16" points="255.53 273.89 139 273.89 148.26 238.4 264.79 238.4 255.53 273.89"/><path class="cls-14" d="M252.36,201.7a12.66,12.66,0,0,1-3.68.5,10.25,10.25,0,0,1-4.89-1,1.76,1.76,0,0,0-.9-.25h0a1.75,1.75,0,0,0-.84.23l-.06,0h0l0,0a6.14,6.14,0,0,1-1.42.57,13,13,0,0,1-3.44.43c-.35,0-.69,0-1,0a11.71,11.71,0,0,1-2.66-.47,1.69,1.69,0,0,0-.39-.07,1.6,1.6,0,0,0-1.72,1.6h0v1.08H186a6.35,6.35,0,0,0-6.35,6.35v6.4A6.35,6.35,0,0,0,186,223.4h51.53l.34,0c.56.46,1.13.92,1.75,1.38s1.51,1.12,2.32,1.71a1.63,1.63,0,0,0,1.9,0c6.48-4.7,10.64-7.94,10.64-16.85v-6.4A1.61,1.61,0,0,0,252.36,201.7Z" transform="translate(0 -54.95)"/><rect class="cls-6" x="178.67" y="145.83" width="64.22" height="19.09" rx="6.35" ry="6.35"/><path class="cls-6" d="M247.69,198.68a10.25,10.25,0,0,1-4.89-1,1.74,1.74,0,0,0-1.8,0,10.25,10.25,0,0,1-4.89,1,12.66,12.66,0,0,1-3.68-.5,1.61,1.61,0,0,0-2.11,1.52v6.4c0,8.91,4.16,12.15,10.64,16.85a1.63,1.63,0,0,0,1.9,0c6.48-4.7,10.64-7.94,10.64-16.85v-6.4a1.61,1.61,0,0,0-2.11-1.52A12.66,12.66,0,0,1,247.69,198.68Z" transform="translate(0 -54.95)"/><path class="cls-7" d="M247.69,198.68a10.25,10.25,0,0,1-4.89-1,1.74,1.74,0,0,0-1.8,0,10.25,10.25,0,0,1-4.89,1,12.66,12.66,0,0,1-3.68-.5,1.61,1.61,0,0,0-2.11,1.52v6.4c0,8.91,4.16,12.15,10.64,16.85a1.63,1.63,0,0,0,1.9,0c6.48-4.7,10.64-7.94,10.64-16.85v-6.4a1.61,1.61,0,0,0-2.11-1.52A12.66,12.66,0,0,1,247.69,198.68Z" transform="translate(0 -54.95)"/><path class="cls-17" d="M241,197.66a10.25,10.25,0,0,1-4.89,1,12.66,12.66,0,0,1-3.68-.5,1.61,1.61,0,0,0-2.11,1.52v6.4c0,8.91,4.16,12.15,10.64,16.85a1.62,1.62,0,0,0,1,.31V197.4A1.76,1.76,0,0,0,241,197.66Z" transform="translate(0 -54.95)"/><path class="cls-13" d="M251.19,204.36a26,26,0,0,0-10.12,7.13,14,14,0,0,0-6.53-2.61l-.31,0v1.53l.18.06a13.47,13.47,0,0,1,6.48,5l.25.36.21-.39a24.74,24.74,0,0,1,10.07-10.08l.14-.08v-1Z" transform="translate(0 -54.95)"/><path class="cls-6" d="M275.15,161.36h-4.42a4,4,0,0,1-4.05-4.44l.39-4.42a4.94,4.94,0,0,1,4.83-4.44h4.42a4,4,0,0,1,4.05,4.44l-.39,4.42A4.94,4.94,0,0,1,275.15,161.36Z" transform="translate(0 -54.95)"/><polygon class="cls-9" points="276.99 97.53 276.03 96.48 273.61 98.7 271.59 96.48 270.44 97.53 272.47 99.75 270.06 101.97 271.02 103.03 273.43 100.81 275.46 103.03 276.6 101.97 274.57 99.75 276.99 97.53"/></g><g id="Character"><path class="cls-18" d="M176.37,199.49c2.56,2.79,5,5.67,7.43,8.59s4.78,5.87,7.11,8.86l.09.12s0,0,0,.06,0,.08.07.1a1.3,1.3,0,0,0,.18.2,1.14,1.14,0,0,0,.55.26,1.3,1.3,0,0,0,.34,0,1.16,1.16,0,0,0,.18,0l.09,0c.05,0,0,0,.16-.06l2.5-1.36c3.36-1.78,6.75-3.52,10.25-5.08l2.93,3.63c-2.82,2.6-5.76,5.84-8.73,8.22l-2.24,1.76c-.06.05-.3.21-.45.31s-.34.23-.52.33a10,10,0,0,1-1.12.55,9.88,9.88,0,0,1-2.42.67,10.38,10.38,0,0,1-5-.5,9.89,9.89,0,0,1-2.3-1.17,10.46,10.46,0,0,1-1-.79c-.17-.14-.32-.29-.47-.44l-.4-.4c-2.65-2.71-5.26-5.45-7.82-8.25s-5.09-5.61-7.51-8.52Z" transform="translate(0 -54.95)"/><path class="cls-18" d="M204,213.38l2.33-7.49,6.14,3.06s-.89,5.46-5.36,6.41Z" transform="translate(0 -54.95)"/><polygon class="cls-18" points="208.78 148.87 214.32 150.39 212.46 154 206.32 150.94 208.78 148.87"/><path class="cls-18" d="M144.09,201.53c-.67,3.18-1.48,6.33-2.34,9.46s-1.78,6.26-2.75,9.36l-.36,1.17-.18.58a1.87,1.87,0,0,1-.1.24,3.06,3.06,0,0,0-.19,1,3.5,3.5,0,0,0,.58,2.05,5.85,5.85,0,0,0,.65.76l.83.9,1.64,1.83c1.08,1.24,2.15,2.48,3.17,3.78l-3.48,4c-1.44-.82-2.82-1.7-4.2-2.59l-2.05-1.35-1-.69a13,13,0,0,1-1.17-.86,11.6,11.6,0,0,1-3.84-6.45,12.32,12.32,0,0,1-.18-3.9c0-.31.1-.68.15-.95l.11-.6.21-1.2c.56-3.21,1.16-6.41,1.83-9.58s1.38-6.35,2.24-9.49Z" transform="translate(0 -54.95)"/><path class="cls-18" d="M141.63,232.35l4.13-2.11,1.82,7s-3.31,1.27-5.87-.36Z" transform="translate(0 -54.95)"/><polygon class="cls-18" points="151.45 173.04 151.64 179.47 147.03 182.49 145.43 175.42 151.45 173.04"/><ellipse class="cls-13" cx="165.53" cy="168.35" rx="0.6" ry="0.92" transform="translate(-30.21 -18.62) rotate(-11.49)"/><path class="cls-19" d="M165.34,169.32a18.1,18.1,0,0,0,3.23,3.76,2.92,2.92,0,0,1-2.28.93Z" transform="translate(0 -54.95)"/><path class="cls-13" d="M162.57,166.09a.3.3,0,0,1-.22-.5,3,3,0,0,1,2.53-1,.3.3,0,0,1-.1.59h0a2.36,2.36,0,0,0-2,.8A.3.3,0,0,1,162.57,166.09Z" transform="translate(0 -54.95)"/><path class="cls-18" d="M150.52,175.44c1.1,4.59,2.2,13-1.73,16.05,0,0,1.54,4.65,12,4.65,11.5,0,5.5-3,5.5-3-6.28-1.22-6.11-6.67-5-10.24Z" transform="translate(0 -54.95)"/><path class="cls-13" d="M147.56,192.34c-.69-1.27-1.44-2.73.12-3.19,1.72-.5,12.75-1.43,16-.49-1,1.77.69,3.95.69,3.95Z" transform="translate(0 -54.95)"/><polygon class="cls-18" points="156.7 351.97 163.91 351.97 164.63 337.45 157.41 337.45 156.7 351.97"/><polygon class="cls-18" points="110.91 349.97 118.22 350.35 122.66 336.05 115.35 335.66 110.91 349.97"/><path class="cls-13" d="M118,404.73l-6.88-1.49a.55.55,0,0,0-.61.31l-2.39,5.19a.92.92,0,0,0,.66,1.28c2.41.48,3.61.59,6.64,1.25,1.86.4,6.07,1.43,8.64,2s3.46-1.91,2.46-2.37c-4.5-2.06-6.38-3.86-7.59-5.55A1.52,1.52,0,0,0,118,404.73Z" transform="translate(0 -54.95)"/><path class="cls-13" d="M163.53,406.19h-6.85a.55.55,0,0,0-.53.43l-1.24,5.57a.91.91,0,0,0,.9,1.12c2.47,0,6-.19,9.14-.19,3.63,0,6.77.2,11,.2,2.57,0,3.29-2.6,2.21-2.84-4.91-1.07-8.91-1.19-13.15-3.8A2.9,2.9,0,0,0,163.53,406.19Z" transform="translate(0 -54.95)"/><path class="cls-13" d="M135.72,193.61c-5.45,2.59-6.92,18.28-6.92,18.28l13.47,6.22a25.75,25.75,0,0,0,3.6-12.67C146.14,197.34,141.29,191,135.72,193.61Z" transform="translate(0 -54.95)"/><path class="cls-20" d="M143,203.29c-2.43,3.77-2.2,9.62-1.36,14.55l.6.28a25.78,25.78,0,0,0,3.6-12.67c0-.48,0-1,0-1.43Z" transform="translate(0 -54.95)"/><path class="cls-6" d="M173.31,193.23s6.67,7.54.37,54.19H140.15c-.23-5.15,3-30.26-2-54.52a87.46,87.46,0,0,1,11.23-1.42,123.14,123.14,0,0,1,14.26,0A62.94,62.94,0,0,1,173.31,193.23Z" transform="translate(0 -54.95)"/><path class="cls-21" d="M173.31,193.23s6.67,7.54.37,54.19H140.15c-.23-5.15,3-30.26-2-54.52a87.46,87.46,0,0,1,11.23-1.42,123.14,123.14,0,0,1,14.26,0A62.94,62.94,0,0,1,173.31,193.23Z" transform="translate(0 -54.95)"/><path class="cls-14" d="M176.24,207.49l-.13-.11-6.67-3.56c-.68,10.27,3.91,16.71,6.64,19.52A146.31,146.31,0,0,0,176.24,207.49Z" transform="translate(0 -54.95)"/><polygon class="cls-14" points="164.63 337.45 164.26 344.93 157.04 344.93 157.41 337.45 164.63 337.45"/><polygon class="cls-14" points="115.35 335.66 122.66 336.05 120.37 343.43 113.06 343.04 115.35 335.66"/><path class="cls-18" d="M148.2,170.78c1.61,6,2.25,9.61,6,12.11,5.58,3.76,12.53-.56,12.74-6.93.2-5.73-2.47-14.6-8.92-15.81A8.49,8.49,0,0,0,148.2,170.78Z" transform="translate(0 -54.95)"/><path class="cls-13" d="M161.79,247.43s-7.12,47.92-11,65.87C146.49,333,123.55,398,123.55,398l-11.22-2.43s14.38-53,18-80.49c1.4-10.72,3.09-28,5.23-42.43,2.07-14,4.62-25.22,4.62-25.22Z" transform="translate(0 -54.95)"/><path class="cls-6" d="M126.24,394.25s-2.09,4.06-2.09,4.06l-12.63-2.73,1.06-3.8Z" transform="translate(0 -54.95)"/><path class="cls-22" d="M126.24,394.25s-2.09,4.06-2.09,4.06l-12.63-2.73,1.06-3.8Z" transform="translate(0 -54.95)"/><path class="cls-12" d="M157.29,264.5c-8.23,1.61-7.36,32.3-6.37,48.08,2.37-11.16,5.85-32.62,8.22-47.86A2.81,2.81,0,0,0,157.29,264.5Z" transform="translate(0 -54.95)"/><path class="cls-13" d="M173.68,247.43s3.35,46.88,2.66,66c-.71,19.89-10.14,85-10.14,85H155.59s-.39-64-.86-83.49c-.52-21.29-3.09-67.52-3.09-67.52Z" transform="translate(0 -54.95)"/><path class="cls-6" d="M168.25,394.21s-.6,4.41-.6,4.41H154.73l-.35-3.94Z" transform="translate(0 -54.95)"/><path class="cls-22" d="M168.25,394.21s-.6,4.41-.6,4.41H154.73l-.35-3.94Z" transform="translate(0 -54.95)"/><path class="cls-13" d="M169.4,202c0,12.58,6.7,17.76,6.7,17.76L187,209.14a90,90,0,0,0-8.79-12.23C171.9,189.68,169.4,193.92,169.4,202Z" transform="translate(0 -54.95)"/><path class="cls-14" d="M166.52,178.24a4.09,4.09,0,0,1-2.82,2.6,3.38,3.38,0,0,0-2.69,3l0,0A8.64,8.64,0,0,0,166.52,178.24Z" transform="translate(0 -54.95)"/><path class="cls-13" d="M163.7,158.83c2.24-2.83-1.21-3-1.21-3,.9-3.37-3.14-1.56-3.14-1.56-2.42-3.34-3.79.72-3.79.72-2.51-2.83-3,1.79-3,1.79-2.52-3.59-3.8,1.59-3.8,1.59-2.32-3.73-3.74,1.13-3.74,1.13-4.79-1.71-2.51,3.26-2.51,3.26-4.09.11-.81,3.28-.81,3.28-4.9,0-.58,2.82-.58,2.82-3.89,2.55,1,3.24,1,3.24-3.17,5,2.28,3.12,2.28,3.12-2.21,4.91,2.69,2.75,2.69,2.75-.32,4.74,2.42,3.45,3.74,2.57.25,1,.73,2,1.61,2.08,1.71.22,2-3,2-3s1.59,1.23,2.91.56.83-2.36.83-2.36a1.67,1.67,0,0,0,1.95,0c.57-.44.57-3.63-.15-4.75l2.6-1s1.93-.27,1.07-2.82a7.42,7.42,0,0,1-.13-4.56c2.94-1.38.53-3,.53-3C167.49,159.53,163.7,158.83,163.7,158.83Z" transform="translate(0 -54.95)"/><path class="cls-18" d="M158.43,171a7,7,0,0,0,2.53,3.74c1.63,1.21,2.85,0,2.73-1.83-.1-1.66-1.08-4.3-2.88-4.79S158,169.23,158.43,171Z" transform="translate(0 -54.95)"/></g></svg>