<?xml version="1.0" encoding="utf-8"?>
<!-- Generator: Adobe Illustrator 21.0.0, SVG Export Plug-In . SVG Version: 6.00 Build 0)  -->
<svg version="1.1" id="Layer_1" xmlns="http://www.w3.org/2000/svg" xmlns:xlink="http://www.w3.org/1999/xlink" x="0px" y="0px"
	 viewBox="0 0 495.5 176" style="enable-background:new 0 0 495.5 176;" xml:space="preserve">
<style type="text/css">
	.st0{fill:#FFFFFF;}
	.st1{font-family:'Poppins-Regular';}
	.st2{font-size:44.17px;}
</style>
<title>logowhite</title>
<g id="OBJECTS">
	<g id="_Group_2">
		<g id="_Group_3">
			<path id="_Path_" class="st0" d="M83.2,172.3c-46.4,0-84-37.6-84-84s37.6-84,84-84l0.1,6.6c-42.8,0.5-77,35.5-76.5,78.3
				c0.5,42.1,34.5,76.1,76.5,76.5L83.2,172.3z"/>
		</g>
		<g id="_Group_4">
			<path id="_Path_2" class="st0" d="M114.8,71.4H75.1c-1.8,0-3.3-1.5-3.3-3.3s1.5-3.3,3.3-3.3h36.4v-35c0-1.8,1.5-3.3,3.3-3.3
				c1.8,0,3.3,1.5,3.3,3.3v38.4C118.1,70,116.6,71.4,114.8,71.4z"/>
		</g>
		<g id="_Group_5">
			<path id="_Path_3" class="st0" d="M153.3,86.8H63c-1.8,0-3.3-1.5-3.3-3.3s1.5-3.3,3.3-3.3h87V67.8c0-1.8,1.5-3.3,3.3-3.3
				s3.3,1.5,3.3,3.3v15.6C156.6,85.3,155.1,86.7,153.3,86.8z"/>
		</g>
		<g id="_Group_6">
			<path id="_Path_4" class="st0" d="M150.9,102H61.2c-1.8,0-3.3-1.5-3.3-3.3c0-1.8,1.5-3.3,3.3-3.3h89.7c1.8,0,3.3,1.5,3.3,3.3
				C154.2,100.6,152.7,102,150.9,102L150.9,102z"/>
		</g>
		<g id="_Group_7">
			<path id="_Path_5" class="st0" d="M132.7,139.5h-13.5c-1.8,0-3.3-1.5-3.3-3.3V118H74.2c-1.8,0-3.3-1.5-3.3-3.3
				c0-1.8,1.5-3.3,3.3-3.3h45c1.8,0,3.3,1.5,3.3,3.3v18.2h10.2c1.8,0,3.3,1.5,3.3,3.3C136,138,134.5,139.5,132.7,139.5L132.7,139.5z
				"/>
		</g>
		<g id="_Group_8">
			<circle id="_Path_6" class="st0" cx="87" cy="168.6" r="4"/>
			<path id="_Compound_Path_" class="st0" d="M87,176c-4.1,0-7.3-3.3-7.3-7.3s3.3-7.3,7.3-7.3s7.3,3.3,7.3,7.3l0,0
				C94.3,172.7,91.1,176,87,176z M87,167.9c-0.4,0-0.7,0.3-0.7,0.7c0,0.4,0.3,0.7,0.7,0.7c0.4,0,0.7-0.3,0.7-0.7l0,0
				C87.7,168.2,87.4,167.9,87,167.9C87,167.9,87,167.9,87,167.9L87,167.9z"/>
		</g>
		<g id="_Group_9">
			<circle id="_Path_7" class="st0" cx="87" cy="7.3" r="4"/>
			<path id="_Compound_Path_2" class="st0" d="M87,14.7c-4.1,0-7.3-3.3-7.3-7.3S82.9,0,87,0c4.1,0,7.3,3.3,7.3,7.3c0,0,0,0,0,0
				C94.3,11.4,91.1,14.7,87,14.7z M87,6.6c-0.4,0-0.7,0.3-0.7,0.7c0,0.4,0.3,0.7,0.7,0.7c0.4,0,0.7-0.3,0.7-0.7S87.4,6.6,87,6.6
				L87,6.6z"/>
		</g>
		<g id="_Group_10">
			<g id="_Group_11">
				<path id="_Path_8" class="st0" d="M41.9,107.2c-1.7,0-3.5-0.3-5.1-0.9c-10.3-3.6-20.3-16.8-21.5-23.5c-0.4-2.6-2.2-3.3-6.6-4.6
					c-1.6-0.4-3.1-0.9-4.6-1.6c-1.7-0.5-2.7-2.4-2.2-4.1s2.4-2.7,4.1-2.2c0.2,0.1,0.5,0.2,0.7,0.3c1.2,0.5,2.5,0.9,3.8,1.2
					c4.3,1.2,10.1,2.9,11.3,9.8c0.8,4.3,9.2,15.6,17.2,18.4c3.2,1.1,4.9,0.3,5.9-0.5c-0.2-1.7-3.3-6.1-5.3-8.7
					c-4.2-5.7-7.7-10.7-6.3-15.1c0.7-2,2.4-3.6,4.5-4.1c2.9-1,6-1.4,9-1.1c1.7,0.1,2.2,0.1,5.4-4.9c4.4-6.9,12.7-8.8,18.7-10.1
					c2.2-0.5,5.4-1.2,6.3-1.9c-0.1-1.9-2-4.3-4.7-6s-6.9-3.1-10.4-1.5c-7,3.2-13.1,0.9-15.3-2.9c-1.5-2.6-1.4-6.5,2.4-9.4
					c2.6-1.9,4.3-5,4.4-6.4c-0.6,0-1.2,0-1.8,0.2c-5.5,1.1-11.2,0.7-16.5-1.3c-1.7-0.7-2.5-2.6-1.8-4.3c0.7-1.7,2.6-2.5,4.3-1.8
					c4,1.5,8.4,1.9,12.7,1c6.1-1.2,8.4,1.5,9.2,3.3c2.1,4.8-2.4,11.6-6.5,14.7c-0.3,0.2-0.5,0.4-0.7,0.8c0.3,0.3,0.6,0.5,0.9,0.7
					c0.6,0.3,2.7,1,6-0.5c5-2.3,11.3-1.5,16.7,2c4.8,3.1,7.7,7.6,7.7,11.7c0,5.7-6.1,7-11.4,8.2s-11.6,2.6-14.6,7.3
					c-4.6,7.1-6.9,8.2-11.4,7.9c-2.2-0.2-4.4,0.1-6.5,0.8l-0.2,0.1c0.2,1.8,3.5,6.4,5.4,9c4.6,6.4,9.4,13,4.5,17.3
					C47.4,106.2,44.7,107.2,41.9,107.2z"/>
			</g>
			<g id="_Group_12">
				<path id="_Path_9" class="st0" d="M35.8,156.5c-0.7,0-1.4-0.2-2-0.7c-3.4-2.6-9-9.7-5.4-18.1c2.6-6.2,6.7-9.1,10-11.4
					c1.4-0.9,2.7-2,3.9-3.2c1-1.2,1.9-3.5,2.7-5.6c1.5-4.2,3.5-9.4,8.6-9.6c3.9-0.1,6.7,3.3,9.8,7.2c3,3.7,6.4,8,11,9.6
					c1.9,0.6,3.9,0.9,5.8,1c2.6,0.2,5.4,0.4,7.6,1.8c1.6,0.9,2.1,2.9,1.2,4.5c-0.9,1.6-2.9,2.1-4.5,1.2l0,0
					c-0.9-0.5-2.9-0.7-4.8-0.9c-2.6-0.1-5.1-0.6-7.6-1.4c-6.3-2.3-10.5-7.5-13.9-11.7c-1.4-1.8-3.6-4.5-4.5-4.7
					c-0.7,0-2,3.7-2.6,5.3c-1,2.7-2,5.6-3.9,7.7c-1.5,1.6-3.2,3.1-5.1,4.3c-3,2.1-5.8,4.1-7.7,8.6c-2.5,5.8,3.3,10.2,3.3,10.3
					c1.5,1.1,1.7,3.2,0.6,4.6C37.9,156,36.9,156.5,35.8,156.5L35.8,156.5z"/>
			</g>
		</g>
		<g id="_Group_13">
			<path id="_Path_10" class="st0" d="M67.6,33.9c-1.8,0-3.3-1.5-3.3-3.3l0,0V19.8c0-1.8,1.5-3.3,3.3-3.3c1.8,0,3.3,1.5,3.3,3.3
				v10.8C70.9,32.4,69.4,33.9,67.6,33.9z"/>
		</g>
		<g id="_Group_14">
			<path id="_Path_11" class="st0" d="M77,38.8c-1.8,0-3.3-1.5-3.3-3.3l0,0V19.8c0-1.8,1.5-3.3,3.3-3.3c1.8,0,3.3,1.5,3.3,3.3v15.7
				C80.3,37.4,78.8,38.8,77,38.8C77,38.8,77,38.8,77,38.8z"/>
		</g>
		<g id="_Group_15">
			<path id="_Path_12" class="st0" d="M86.8,47.3c-1.8,0-3.3-1.4-3.3-3.3c0,0,0,0,0-0.1V19.8c0-1.8,1.5-3.3,3.3-3.3
				c1.8,0,3.3,1.5,3.3,3.3V44C90.1,45.8,88.6,47.3,86.8,47.3z"/>
		</g>
		<g id="_Group_16">
			<path id="_Path_13" class="st0" d="M80.8,143.5H65.1c-1.8,0-3.3-1.5-3.3-3.3c0-1.8,1.5-3.3,3.3-3.3h15.7c1.8,0,3.3,1.5,3.3,3.3
				C84.1,142,82.6,143.5,80.8,143.5L80.8,143.5z"/>
		</g>
		<g id="_Group_17">
			<path id="_Path_14" class="st0" d="M88.7,152.3H75.6c-1.8,0-3.3-1.5-3.3-3.3c0-1.8,1.5-3.3,3.3-3.3h13.1c1.8,0,3.3,1.5,3.3,3.3
				C92,150.8,90.5,152.3,88.7,152.3z"/>
		</g>
		<g id="_Group_18">
			<path id="_Path_15" class="st0" d="M79.9,161H66.8c-1.8,0-3.3-1.5-3.3-3.3c0-1.8,1.5-3.3,3.3-3.3h13.1c1.8,0,3.3,1.5,3.3,3.3
				C83.2,159.6,81.7,161,79.9,161L79.9,161z"/>
		</g>
		<g id="_Group_19">
			<g id="_Group_20">
				<path id="_Compound_Path_3" class="st0" d="M114.9,30.6c-5,0-9-4-9-9c0-5,4-9,9-9s9,4,9,9l0,0C123.9,26.6,119.9,30.6,114.9,30.6
					z M114.9,18.3c-1.8,0-3.3,1.5-3.3,3.3s1.5,3.3,3.3,3.3s3.3-1.5,3.3-3.3l0,0C118.2,19.8,116.7,18.4,114.9,18.3L114.9,18.3z"/>
			</g>
		</g>
		<g id="_Group_21">
			<g id="_Group_22">
				<path id="_Compound_Path_4" class="st0" d="M153.4,67.8c-5,0-9-4-9-9s4-9,9-9s9,4,9,9l0,0C162.4,63.7,158.4,67.8,153.4,67.8z
					 M153.4,55.5c-1.8,0-3.3,1.5-3.3,3.3s1.5,3.3,3.3,3.3s3.3-1.5,3.3-3.3l0,0C156.7,56.9,155.3,55.5,153.4,55.5z"/>
			</g>
		</g>
		<g id="_Group_23">
			<g id="_Group_24">
				<path id="_Compound_Path_5" class="st0" d="M157.6,108c-5,0-9-4-9-9s4-9,9-9s9,4,9,9S162.6,108,157.6,108z M157.6,95.8
					c-1.8,0-3.3,1.5-3.3,3.3s1.5,3.3,3.3,3.3s3.3-1.5,3.3-3.3l0,0C160.9,97.2,159.4,95.8,157.6,95.8z"/>
			</g>
		</g>
		<g id="_Group_25">
			<g id="_Group_26">
				<path id="_Compound_Path_6" class="st0" d="M139.6,144.7c-5,0-9-4-9-9s4-9,9-9s9,4,9,9S144.5,144.7,139.6,144.7z M139.6,132.4
					c-1.8,0-3.3,1.5-3.3,3.3s1.5,3.3,3.3,3.3s3.3-1.5,3.3-3.3l0,0C142.8,133.9,141.4,132.4,139.6,132.4L139.6,132.4z"/>
			</g>
		</g>
	</g>
</g>
<g id="DESIGNED_BY_FREEPIK">
	<text transform="matrix(1 0 0 1 175.41 68.6)" class="st0 st1 st2">Machine Mind </text>
	<text transform="matrix(1 0 0 1 175.41 121.6)" class="st0 st1 st2">Innovations</text>
</g>
</svg>
