<svg xmlns="http://www.w3.org/2000/svg" xmlns:xlink="http://www.w3.org/1999/xlink" viewBox="0 0 495.5 175.96"><defs><style>.cls-1{fill:url(#linear-gradient);}.cls-2{fill:url(#linear-gradient-2);}.cls-3{fill:url(#linear-gradient-3);}.cls-4{fill:url(#linear-gradient-4);}.cls-5{fill:url(#linear-gradient-5);}.cls-6{fill:url(#linear-gradient-6);}.cls-7{fill:url(#linear-gradient-7);}.cls-8{fill:url(#linear-gradient-8);}.cls-9{fill:url(#linear-gradient-9);}.cls-10{fill:url(#linear-gradient-10);}.cls-11{fill:url(#linear-gradient-11);}.cls-12{fill:url(#linear-gradient-12);}.cls-13{fill:url(#linear-gradient-13);}.cls-14{fill:url(#linear-gradient-14);}.cls-15{fill:url(#linear-gradient-15);}.cls-16{fill:url(#linear-gradient-16);}.cls-17{fill:url(#linear-gradient-17);}.cls-18{fill:url(#linear-gradient-18);}.cls-19{fill:url(#linear-gradient-19);}.cls-20{fill:url(#linear-gradient-20);}.cls-21{fill:url(#linear-gradient-21);}.cls-22{font-size:44.17px;font-family:Poppins-Regular, Poppins;}</style><linearGradient id="linear-gradient" x1="48.17" y1="336.74" x2="48.17" y2="148.61" gradientUnits="userSpaceOnUse"><stop offset="0" stop-color="#2c4d8d"/><stop offset="0.06" stop-color="#335a99"/><stop offset="0.28" stop-color="#4c86c2"/><stop offset="0.48" stop-color="#5ea6e0"/><stop offset="0.65" stop-color="#69b9f2"/><stop offset="0.76" stop-color="#6dc0f9"/><stop offset="0.77" stop-color="#6ec2f9"/><stop offset="0.86" stop-color="#7cdcfb"/><stop offset="0.94" stop-color="#84ecfd"/><stop offset="1" stop-color="#87f1fd"/></linearGradient><linearGradient id="linear-gradient-2" x1="101.52" y1="336.74" x2="101.52" y2="148.61" xlink:href="#linear-gradient"/><linearGradient id="linear-gradient-3" x1="114.72" y1="336.74" x2="114.72" y2="148.61" xlink:href="#linear-gradient"/><linearGradient id="linear-gradient-4" x1="112.61" y1="336.74" x2="112.61" y2="148.61" xlink:href="#linear-gradient"/><linearGradient id="linear-gradient-5" x1="110" y1="336.74" x2="110" y2="148.61" xlink:href="#linear-gradient"/><linearGradient id="linear-gradient-6" x1="87" y1="174.72" x2="87" y2="-13.41" xlink:href="#linear-gradient"/><linearGradient id="linear-gradient-7" x1="93.56" y1="336.74" x2="93.56" y2="148.61" xlink:href="#linear-gradient"/><linearGradient id="linear-gradient-8" x1="87" y1="174.72" x2="87" y2="-13.41" xlink:href="#linear-gradient"/><linearGradient id="linear-gradient-9" x1="93.56" y1="336.74" x2="93.56" y2="148.61" xlink:href="#linear-gradient"/><linearGradient id="linear-gradient-10" x1="49.48" y1="336.74" x2="49.48" y2="148.61" xlink:href="#linear-gradient"/><linearGradient id="linear-gradient-11" x1="65" y1="336.74" x2="65" y2="148.61" xlink:href="#linear-gradient"/><linearGradient id="linear-gradient-12" x1="74.17" y1="336.74" x2="74.17" y2="148.61" xlink:href="#linear-gradient"/><linearGradient id="linear-gradient-13" x1="83.53" y1="336.74" x2="83.53" y2="148.61" xlink:href="#linear-gradient"/><linearGradient id="linear-gradient-14" x1="93.33" y1="336.74" x2="93.33" y2="148.61" xlink:href="#linear-gradient"/><linearGradient id="linear-gradient-15" x1="79.51" y1="336.74" x2="79.51" y2="148.61" xlink:href="#linear-gradient"/><linearGradient id="linear-gradient-16" x1="88.67" y1="336.74" x2="88.67" y2="148.61" xlink:href="#linear-gradient"/><linearGradient id="linear-gradient-17" x1="79.87" y1="336.74" x2="79.87" y2="148.61" xlink:href="#linear-gradient"/><linearGradient id="linear-gradient-18" x1="121.49" y1="336.74" x2="121.49" y2="148.61" xlink:href="#linear-gradient"/><linearGradient id="linear-gradient-19" x1="159.99" y1="336.74" x2="159.99" y2="148.61" xlink:href="#linear-gradient"/><linearGradient id="linear-gradient-20" x1="164.19" y1="336.74" x2="164.19" y2="148.61" xlink:href="#linear-gradient"/><linearGradient id="linear-gradient-21" x1="146.13" y1="336.74" x2="146.13" y2="148.61" xlink:href="#linear-gradient"/></defs><title>logo2</title><g id="OBJECTS"><g id="_Group_2" data-name="&lt;Group&gt;"><g id="_Group_3" data-name="&lt;Group&gt;"><path id="_Path_" data-name="&lt;Path&gt;" class="cls-1" d="M89.71,334.35a84,84,0,0,1,0-168l.07,6.6a77.43,77.43,0,0,0,0,154.85Z" transform="translate(-6.56 -162.02)"/></g><g id="_Group_4" data-name="&lt;Group&gt;"><path id="_Path_2" data-name="&lt;Path&gt;" class="cls-2" d="M121.37,233.47H81.67a3.3,3.3,0,0,1,0-6.6h36.4V191.82a3.3,3.3,0,0,1,6.6,0v38.35A3.3,3.3,0,0,1,121.37,233.47Z" transform="translate(-6.56 -162.02)"/></g><g id="_Group_5" data-name="&lt;Group&gt;"><path id="_Path_3" data-name="&lt;Path&gt;" class="cls-3" d="M159.89,248.77H69.56a3.3,3.3,0,0,1,0-6.6h87V229.82a3.3,3.3,0,1,1,6.6,0v15.64A3.3,3.3,0,0,1,159.89,248.77Z" transform="translate(-6.56 -162.02)"/></g><g id="_Group_6" data-name="&lt;Group&gt;"><path id="_Path_4" data-name="&lt;Path&gt;" class="cls-4" d="M157.45,264.06H67.76a3.3,3.3,0,0,1,0-6.6h89.69a3.3,3.3,0,1,1,0,6.6Z" transform="translate(-6.56 -162.02)"/></g><g id="_Group_7" data-name="&lt;Group&gt;"><path id="_Path_5" data-name="&lt;Path&gt;" class="cls-5" d="M139.23,301.54H125.74a3.3,3.3,0,0,1-3.3-3.3V280H80.77a3.3,3.3,0,0,1,0-6.6h45a3.3,3.3,0,0,1,3.3,3.3v18.23h10.19a3.3,3.3,0,0,1,0,6.6Z" transform="translate(-6.56 -162.02)"/></g><g id="_Group_8" data-name="&lt;Group&gt;"><circle id="_Path_6" data-name="&lt;Path&gt;" class="cls-6" cx="87" cy="168.62" r="4.04"/><path id="_Compound_Path_" data-name="&lt;Compound Path&gt;" class="cls-7" d="M93.56,338a7.34,7.34,0,1,1,7.34-7.34A7.35,7.35,0,0,1,93.56,338Zm0-8.08a.74.74,0,1,0,.74.74A.74.74,0,0,0,93.56,329.91Z" transform="translate(-6.56 -162.02)"/></g><g id="_Group_9" data-name="&lt;Group&gt;"><circle id="_Path_7" data-name="&lt;Path&gt;" class="cls-8" cx="87" cy="7.34" r="4.04"/><path id="_Compound_Path_2" data-name="&lt;Compound Path&gt;" class="cls-9" d="M93.56,176.69a7.34,7.34,0,1,1,7.34-7.34A7.35,7.35,0,0,1,93.56,176.69Zm0-8.08a.74.74,0,1,0,.74.74A.74.74,0,0,0,93.56,168.62Z" transform="translate(-6.56 -162.02)"/></g><g id="_Group_10" data-name="&lt;Group&gt;"><g id="_Group_11" data-name="&lt;Group&gt;"><path id="_Path_8" data-name="&lt;Path&gt;" class="cls-10" d="M48.43,269.22a15.3,15.3,0,0,1-5.09-.94C33.07,264.68,23,251.46,21.81,244.75c-.44-2.56-2.16-3.29-6.61-4.57a36.64,36.64,0,0,1-4.61-1.56,3.3,3.3,0,1,1,2.65-6A31.33,31.33,0,0,0,17,233.84c4.26,1.23,10.1,2.91,11.29,9.79.75,4.34,9.19,15.61,17.21,18.43,3.18,1.12,4.89.34,5.9-.47-.18-1.7-3.34-6.08-5.26-8.74-4.15-5.74-7.73-10.7-6.3-15.07a6.44,6.44,0,0,1,4.47-4.13,21.59,21.59,0,0,1,9-1.12c1.73.11,2.2.14,5.44-4.92,4.44-6.93,12.69-8.79,18.72-10.14,2.19-.49,5.44-1.22,6.26-1.93-.09-1.85-2-4.3-4.68-6S72.16,206.4,68.66,208c-7,3.16-13.12.88-15.33-2.86-1.54-2.61-1.4-6.52,2.39-9.37,2.59-1.94,4.25-5,4.43-6.37a7,7,0,0,0-1.8.17,29.21,29.21,0,0,1-16.46-1.34,3.3,3.3,0,0,1,2.52-6.1,22.78,22.78,0,0,0,12.65,1c6.14-1.23,8.37,1.52,9.16,3.27,2.14,4.78-2.42,11.59-6.53,14.67a1.93,1.93,0,0,0-.69.75,2.5,2.5,0,0,0,.93.66c.58.26,2.74,1,6-.48,5-2.27,11.27-1.53,16.7,2,4.75,3.07,7.7,7.56,7.7,11.72,0,5.66-6.06,7-11.42,8.23s-11.64,2.62-14.61,7.27c-4.58,7.14-6.87,8.24-11.43,7.95a15.1,15.1,0,0,0-6.52.82l-.22.08c.16,1.76,3.52,6.42,5.36,9,4.63,6.41,9.41,13,4.52,17.35A11.28,11.28,0,0,1,48.43,269.22Z" transform="translate(-6.56 -162.02)"/></g><g id="_Group_12" data-name="&lt;Group&gt;"><path id="_Path_9" data-name="&lt;Path&gt;" class="cls-11" d="M42.41,318.52a3.29,3.29,0,0,1-2-.67c-3.42-2.59-9-9.7-5.42-18.08,2.64-6.24,6.71-9.1,10-11.39a21.41,21.41,0,0,0,3.92-3.2c1.05-1.21,1.88-3.46,2.68-5.64,1.54-4.18,3.46-9.38,8.64-9.58,3.92-.12,6.65,3.25,9.81,7.18,3,3.74,6.42,8,11,9.65a23,23,0,0,0,5.84,1c2.64.21,5.38.43,7.62,1.75a3.3,3.3,0,0,1-3.35,5.69c-.94-.55-2.9-.71-4.8-.86A28.34,28.34,0,0,1,78.79,293c-6.32-2.3-10.52-7.52-13.89-11.72-1.44-1.79-3.62-4.5-4.53-4.73-.66,0-2,3.7-2.59,5.27-1,2.73-2,5.56-3.9,7.69a26.92,26.92,0,0,1-5.11,4.27c-3,2.09-5.79,4.06-7.69,8.56-2.45,5.8,3.26,10.21,3.32,10.25a3.3,3.3,0,0,1-2,5.93Z" transform="translate(-6.56 -162.02)"/></g></g><g id="_Group_13" data-name="&lt;Group&gt;"><path id="_Path_10" data-name="&lt;Path&gt;" class="cls-12" d="M74.17,195.91a3.3,3.3,0,0,1-3.3-3.3V181.82a3.3,3.3,0,0,1,6.6,0v10.79A3.3,3.3,0,0,1,74.17,195.91Z" transform="translate(-6.56 -162.02)"/></g><g id="_Group_14" data-name="&lt;Group&gt;"><path id="_Path_11" data-name="&lt;Path&gt;" class="cls-13" d="M83.53,200.86a3.3,3.3,0,0,1-3.3-3.3V181.82a3.3,3.3,0,0,1,6.6,0v15.73A3.3,3.3,0,0,1,83.53,200.86Z" transform="translate(-6.56 -162.02)"/></g><g id="_Group_15" data-name="&lt;Group&gt;"><path id="_Path_12" data-name="&lt;Path&gt;" class="cls-14" d="M93.33,209.32A3.3,3.3,0,0,1,90,206v-24.2a3.3,3.3,0,0,1,6.6,0V206A3.3,3.3,0,0,1,93.33,209.32Z" transform="translate(-6.56 -162.02)"/></g><g id="_Group_16" data-name="&lt;Group&gt;"><path id="_Path_13" data-name="&lt;Path&gt;" class="cls-15" d="M87.35,305.54H71.67a3.3,3.3,0,0,1,0-6.6H87.35a3.3,3.3,0,0,1,0,6.6Z" transform="translate(-6.56 -162.02)"/></g><g id="_Group_17" data-name="&lt;Group&gt;"><path id="_Path_14" data-name="&lt;Path&gt;" class="cls-16" d="M95.22,314.3H82.12a3.3,3.3,0,0,1,0-6.6H95.22a3.3,3.3,0,0,1,0,6.6Z" transform="translate(-6.56 -162.02)"/></g><g id="_Group_18" data-name="&lt;Group&gt;"><path id="_Path_15" data-name="&lt;Path&gt;" class="cls-17" d="M86.42,323.06H73.32a3.3,3.3,0,0,1,0-6.6H86.42a3.3,3.3,0,0,1,0,6.6Z" transform="translate(-6.56 -162.02)"/></g><g id="_Group_19" data-name="&lt;Group&gt;"><g id="_Group_20" data-name="&lt;Group&gt;"><path id="_Compound_Path_3" data-name="&lt;Compound Path&gt;" class="cls-18" d="M121.49,192.64a9,9,0,1,1,9-9A9,9,0,0,1,121.49,192.64Zm0-12.27a3.28,3.28,0,1,0,3.28,3.28A3.28,3.28,0,0,0,121.49,180.38Z" transform="translate(-6.56 -162.02)"/></g></g><g id="_Group_21" data-name="&lt;Group&gt;"><g id="_Group_22" data-name="&lt;Group&gt;"><path id="_Compound_Path_4" data-name="&lt;Compound Path&gt;" class="cls-19" d="M160,229.77a9,9,0,1,1,9-9A9,9,0,0,1,160,229.77Zm0-12.27a3.28,3.28,0,1,0,3.28,3.28A3.28,3.28,0,0,0,160,217.5Z" transform="translate(-6.56 -162.02)"/></g></g><g id="_Group_23" data-name="&lt;Group&gt;"><g id="_Group_24" data-name="&lt;Group&gt;"><path id="_Compound_Path_5" data-name="&lt;Compound Path&gt;" class="cls-20" d="M164.19,270.06a9,9,0,1,1,9-9A9,9,0,0,1,164.19,270.06Zm0-12.27a3.28,3.28,0,1,0,3.28,3.28A3.29,3.29,0,0,0,164.19,257.79Z" transform="translate(-6.56 -162.02)"/></g></g><g id="_Group_25" data-name="&lt;Group&gt;"><g id="_Group_26" data-name="&lt;Group&gt;"><path id="_Compound_Path_6" data-name="&lt;Compound Path&gt;" class="cls-21" d="M146.13,306.73a9,9,0,1,1,9-9A9,9,0,0,1,146.13,306.73Zm0-12.27a3.28,3.28,0,1,0,3.28,3.28A3.28,3.28,0,0,0,146.13,294.46Z" transform="translate(-6.56 -162.02)"/></g></g></g></g><g id="DESIGNED_BY_FREEPIK" data-name="DESIGNED BY FREEPIK"><text class="cls-22" transform="translate(175.41 68.6)">Machine Mind <tspan x="0" y="53">Innovations</tspan></text></g></svg>