<svg id="Layer_1" data-name="Layer 1" xmlns="http://www.w3.org/2000/svg" viewBox="0 0 167.48 175.99"><defs><style>.cls-1{fill:#fff;}</style></defs><title>logo3</title><g id="OBJECTS"><g id="_Group_2" data-name=" Group 2"><g id="_Group_3" data-name=" Group 3"><path id="_Path_" data-name=" Path " class="cls-1" d="M83.15,172.33a84,84,0,1,1,0-168l.07,6.6a77.43,77.43,0,0,0,0,154.85Z" transform="translate(0.85 0.01)"/></g><g id="_Group_4" data-name=" Group 4"><path id="_Path_2" data-name=" Path 2" class="cls-1" d="M114.81,71.45H75.11a3.3,3.3,0,0,1,0-6.6h36.4v-35a3.3,3.3,0,1,1,6.6,0h0V68.15a3.3,3.3,0,0,1-3.3,3.3Z" transform="translate(0.85 0.01)"/></g><g id="_Group_5" data-name=" Group 5"><path id="_Path_3" data-name=" Path 3" class="cls-1" d="M153.31,86.75H63a3.3,3.3,0,0,1,0-6.6h87V67.8a3.3,3.3,0,1,1,6.6,0V83.44a3.3,3.3,0,0,1-3.29,3.31Z" transform="translate(0.85 0.01)"/></g><g id="_Group_6" data-name=" Group 6"><path id="_Path_4" data-name=" Path 4" class="cls-1" d="M150.89,102H61.2a3.3,3.3,0,0,1,0-6.6h89.69a3.3,3.3,0,0,1,0,6.6Z" transform="translate(0.85 0.01)"/></g><g id="_Group_7" data-name=" Group 7"><path id="_Path_5" data-name=" Path 5" class="cls-1" d="M132.67,139.52H119.18a3.3,3.3,0,0,1-3.3-3.3V118H74.21a3.3,3.3,0,1,1,0-6.6h45a3.3,3.3,0,0,1,3.3,3.3v18.23H132.7a3.3,3.3,0,1,1,0,6.6Z" transform="translate(0.85 0.01)"/></g><g id="_Group_8" data-name=" Group 8"><circle id="_Path_6" data-name=" Path 6" class="cls-1" cx="87.85" cy="168.63" r="4.04"/><path id="_Compound_Path_" data-name=" Compound Path " class="cls-1" d="M87,176a7.34,7.34,0,1,1,7.34-7.34h0A7.35,7.35,0,0,1,87,176Zm0-8.08a.74.74,0,1,0,.74.74h0a.74.74,0,0,0-.73-.75h0Z" transform="translate(0.85 0.01)"/></g><g id="_Group_9" data-name=" Group 9"><circle id="_Path_7" data-name=" Path 7" class="cls-1" cx="87.85" cy="7.35" r="4.04"/><path id="_Compound_Path_2" data-name=" Compound Path 2" class="cls-1" d="M87,14.67a7.34,7.34,0,1,1,7.34-7.34h0A7.35,7.35,0,0,1,87,14.67Zm0-8.08a.74.74,0,1,0,.74.74A.74.74,0,0,0,87,6.59Z" transform="translate(0.85 0.01)"/></g><g id="_Group_10" data-name=" Group 10"><g id="_Group_11" data-name=" Group 11"><path id="_Path_8" data-name=" Path 8" class="cls-1" d="M41.87,107.2a15.3,15.3,0,0,1-5.09-.94c-10.27-3.61-20.37-16.82-21.53-23.54-.44-2.56-2.16-3.29-6.61-4.57A36.64,36.64,0,0,1,4,76.59a3.3,3.3,0,1,1,2.65-6,31.33,31.33,0,0,0,3.79,1.26c4.26,1.23,10.1,2.91,11.29,9.79C22.51,86,30.95,97.25,39,100.07c3.18,1.12,4.89.34,5.9-.47-.18-1.7-3.34-6.08-5.26-8.74-4.15-5.74-7.73-10.7-6.3-15.07a6.44,6.44,0,0,1,4.47-4.13,21.59,21.59,0,0,1,9-1.12c1.73.11,2.2.14,5.44-4.92,4.44-6.93,12.69-8.79,18.72-10.14,2.19-.49,5.44-1.22,6.26-1.93-.09-1.85-2-4.3-4.68-6S65.61,44.46,62.11,46c-7,3.16-13.12.88-15.33-2.86-1.54-2.61-1.4-6.52,2.39-9.37,2.59-1.94,4.25-5,4.43-6.37a7,7,0,0,0-1.8.17,29.21,29.21,0,0,1-16.49-1.42,3.3,3.3,0,0,1,2.52-6.1,22.78,22.78,0,0,0,12.65,1c6.14-1.23,8.37,1.52,9.16,3.27,2.14,4.78-2.42,11.59-6.53,14.67a1.93,1.93,0,0,0-.69.75,2.5,2.5,0,0,0,.93.66c.58.26,2.74,1,6-.48,5-2.27,11.27-1.53,16.7,2,4.75,3.07,7.7,7.56,7.7,11.72,0,5.66-6.06,7-11.42,8.23s-11.64,2.62-14.61,7.27c-4.58,7.14-6.87,8.24-11.43,7.95a15.1,15.1,0,0,0-6.52.82l-.22.08c.16,1.76,3.52,6.42,5.36,9,4.63,6.41,9.41,13,4.52,17.35A11.28,11.28,0,0,1,41.87,107.2Z" transform="translate(0.85 0.01)"/></g><g id="_Group_12" data-name=" Group 12"><path id="_Path_9" data-name=" Path 9" class="cls-1" d="M35.86,156.5a3.29,3.29,0,0,1-2-.67c-3.42-2.59-9-9.7-5.42-18.08,2.64-6.24,6.71-9.1,10-11.39a21.41,21.41,0,0,0,3.92-3.2c1.05-1.21,1.88-3.46,2.68-5.64,1.54-4.18,3.46-9.38,8.64-9.58,3.92-.12,6.65,3.25,9.81,7.18,3,3.74,6.42,8,11,9.65a23,23,0,0,0,5.84,1c2.64.21,5.38.43,7.62,1.75a3.3,3.3,0,1,1-3.35,5.69c-.94-.55-2.9-.71-4.8-.86A28.34,28.34,0,0,1,72.23,131c-6.32-2.3-10.52-7.52-13.89-11.72-1.44-1.79-3.62-4.5-4.53-4.73-.66,0-2,3.7-2.59,5.27-1,2.73-2,5.56-3.9,7.69a26.92,26.92,0,0,1-5.11,4.27c-3,2.09-5.79,4.06-7.69,8.56-2.45,5.8,3.26,10.21,3.32,10.25a3.3,3.3,0,0,1-2,5.93Z" transform="translate(0.85 0.01)"/></g></g><g id="_Group_13" data-name=" Group 13"><path id="_Path_10" data-name=" Path 10" class="cls-1" d="M67.61,33.89a3.3,3.3,0,0,1-3.3-3.3h0V19.8a3.3,3.3,0,0,1,6.6,0V30.59a3.3,3.3,0,0,1-3.3,3.3Z" transform="translate(0.85 0.01)"/></g><g id="_Group_14" data-name=" Group 14"><path id="_Path_11" data-name=" Path 11" class="cls-1" d="M77,38.84a3.3,3.3,0,0,1-3.3-3.3h0V19.8a3.3,3.3,0,1,1,6.6,0V35.53A3.3,3.3,0,0,1,77,38.84Z" transform="translate(0.85 0.01)"/></g><g id="_Group_15" data-name=" Group 15"><path id="_Path_12" data-name=" Path 12" class="cls-1" d="M86.77,47.3a3.3,3.3,0,0,1-3.3-3.3h0V19.8a3.3,3.3,0,0,1,6.6,0V44a3.3,3.3,0,0,1-3.28,3.32Z" transform="translate(0.85 0.01)"/></g><g id="_Group_16" data-name=" Group 16"><path id="_Path_13" data-name=" Path 13" class="cls-1" d="M80.79,143.52H65.12a3.3,3.3,0,1,1,0-6.6H80.8a3.3,3.3,0,1,1,0,6.6Z" transform="translate(0.85 0.01)"/></g><g id="_Group_17" data-name=" Group 17"><path id="_Path_14" data-name=" Path 14" class="cls-1" d="M88.66,152.28H75.57a3.3,3.3,0,1,1,0-6.6H88.66a3.3,3.3,0,1,1,0,6.6Z" transform="translate(0.85 0.01)"/></g><g id="_Group_18" data-name=" Group 18"><path id="_Path_15" data-name=" Path 15" class="cls-1" d="M79.86,161H66.77a3.3,3.3,0,1,1,0-6.6H79.86a3.3,3.3,0,1,1,0,6.6Z" transform="translate(0.85 0.01)"/></g><g id="_Group_19" data-name=" Group 19"><g id="_Group_20" data-name=" Group 20"><path id="_Compound_Path_3" data-name=" Compound Path 3" class="cls-1" d="M114.94,30.62a9,9,0,1,1,9-9h0A9,9,0,0,1,114.94,30.62Zm0-12.27a3.28,3.28,0,1,0,3.28,3.28h0a3.28,3.28,0,0,0-3.28-3.27Z" transform="translate(0.85 0.01)"/></g></g><g id="_Group_21" data-name=" Group 21"><g id="_Group_22" data-name=" Group 22"><path id="_Compound_Path_4" data-name=" Compound Path 4" class="cls-1" d="M153.44,67.75a9,9,0,1,1,9-9h0A9,9,0,0,1,153.44,67.75Zm0-12.27a3.28,3.28,0,1,0,3.28,3.28h0A3.28,3.28,0,0,0,153.44,55.48Z" transform="translate(0.85 0.01)"/></g></g><g id="_Group_23" data-name=" Group 23"><g id="_Group_24" data-name=" Group 24"><path id="_Compound_Path_5" data-name=" Compound Path 5" class="cls-1" d="M157.63,108a9,9,0,1,1,9-9A9,9,0,0,1,157.63,108Zm0-12.27a3.28,3.28,0,1,0,3.28,3.28h0A3.29,3.29,0,0,0,157.63,95.77Z" transform="translate(0.85 0.01)"/></g></g><g id="_Group_25" data-name=" Group 25"><g id="_Group_26" data-name=" Group 26"><path id="_Compound_Path_6" data-name=" Compound Path 6" class="cls-1" d="M139.57,144.71a9,9,0,1,1,9-9A9,9,0,0,1,139.57,144.71Zm0-12.27a3.28,3.28,0,1,0,3.28,3.28h0a3.28,3.28,0,0,0-3.28-3.28h0Z" transform="translate(0.85 0.01)"/></g></g></g></g></svg>