<svg xmlns="http://www.w3.org/2000/svg" viewBox="0 0 493.69 425.43"><defs><style>.cls-1{fill:#2e318f;}</style></defs><title>officeAvatar</title><g id="object"><path class="cls-1" d="M646.84,612.72s-7.56-2.94-20.66-8.45c-6.47-3-14.68-5.4-23.81-8.81s-19.7-6.37-31.13-9.83L562.51,583l-9.22-2.14L534,576.21c-6.63-1.51-13.54-2.5-20.53-3.83s-14.12-2.78-21.48-3.5L469.72,566c-7.54-.8-15.21-1.17-22.92-1.86l-11.6-.94c-3.88-.19-7.79-.18-11.7-.32L400,562.22l-23.6.64c-4,.13-7.93.15-11.83.34l-11.51.92c-7.66.69-15.26,1.07-22.79,1.86L308,568.91c-7.36.71-14.46,2.3-21.47,3.51s-13.91,2.32-20.54,3.82l-19.28,4.67L237.5,583l-8.74,2.6c-11.43,3.46-22,6.29-31.16,9.84s-17.38,5.8-23.8,8.8c-13,5.47-20.64,8.43-20.64,8.43s6.93-4.47,19.31-12c6.11-4,14-7.7,22.89-12.22l6.94-3.47,3.62-1.81,3.8-1.61L226,575l8.7-3.53,9.18-3.1,19.38-6.25c6.69-2,13.66-3.54,20.74-5.4s14.35-3.64,21.82-4.81l22.74-3.93c7.72-1.13,15.64-1.77,23.58-2.62l12-1.21c4-.3,7.91-.33,11.87-.5l24-.8,24.12.81c4,.16,8,.22,12,.52L448,545.34c7.89.84,15.74,1.49,23.45,2.61l22.73,3.95c7.47,1.15,14.73,3,21.82,4.81s14.05,3.39,20.74,5.4l19.38,6.24,9.18,3.11L574,575l16.26,6.65,3.81,1.61,3.63,1.81,7,3.48c9,4.52,16.83,8.26,22.88,12.22C639.88,608.24,646.84,612.72,646.84,612.72Z" transform="translate(-153.16 -187.28)"/><polygon class="cls-1" points="173.64 228.53 173.64 28.84 130.04 46.45 130.04 210.87 134.18 212.57 173.64 228.53"/><path class="cls-1" d="M365.29,431.35V555.25q16.07-1.07,32.33-1.19V353.68l11.5-4.64L446,334.13l6-2.43,1.93-.78,17.39-7,34.9-14.12L513,307V233.73L398.07,187.28l-50.59,20.47V424.18l6.3,2.53Z" transform="translate(-153.16 -187.28)"/><path class="cls-1" d="M451.93,556.44V351.56L416,366.09V554.22C428.08,554.55,440.05,555.32,451.93,556.44Z" transform="translate(-153.16 -187.28)"/><path class="cls-1" d="M609.67,595.86h.42V366.09l-97-39.27-.09,0-41.71,16.88V558.58A543.5,543.5,0,0,1,609.67,595.86Z" transform="translate(-153.16 -187.28)"/><path class="cls-1" d="M232.74,581V436.18l-18.81,7.59v143.7Q223.26,584,232.74,581Z" transform="translate(-153.16 -187.28)"/><path class="cls-1" d="M346.89,556.75v-113l-20.1-8.14L283.19,418l-2.76-1.1-29.3,11.87V575.25A540.54,540.54,0,0,1,346.89,556.75Z" transform="translate(-153.16 -187.28)"/></g></svg>