<svg xmlns="http://www.w3.org/2000/svg" viewBox="0 0 500 372.61"><defs><style>.cls-1{isolation:isolate;}.cls-2{fill:#e6e6e6;}.cls-3{fill:#e0e0e0;}.cls-15,.cls-4{fill:#fafafa;}.cls-22,.cls-5{fill:#f5f5f5;}.cls-6{fill:#f0f0f0;}.cls-18,.cls-21,.cls-23,.cls-7{fill:#fff;}.cls-8{fill:#e58a7b;}.cls-16,.cls-17,.cls-9{fill:#407bff;}.cls-10{opacity:0.2;}.cls-11{fill:#e8ecf1;}.cls-11,.cls-22{mix-blend-mode:multiply;}.cls-12{fill:#263238;}.cls-13{fill:#cf6f64;}.cls-14{fill:#df5753;}.cls-15{opacity:0.56;}.cls-16{opacity:0.07;}.cls-17{opacity:0.47;}.cls-18{opacity:0.1;}.cls-19{opacity:0.6;}.cls-20,.cls-21{opacity:0.4;}.cls-23{opacity:0.3;}</style></defs><title>signup</title><g class="cls-1"><g id="Background_complete" data-name="Background complete"><rect class="cls-2" y="327.45" width="500" height="0.25"/><rect class="cls-2" x="91.7" y="342.58" width="33.12" height="0.25"/><rect class="cls-2" x="62.03" y="342.58" width="19.19" height="0.25"/><rect class="cls-2" x="191.36" y="346.26" width="19.19" height="0.25"/><rect class="cls-2" x="267.42" y="351.84" width="43.19" height="0.25"/><rect class="cls-2" x="252.19" y="351.84" width="6.33" height="0.25"/><rect class="cls-2" x="359.67" y="346.26" width="93.68" height="0.25"/><path class="cls-2" d="M237,337.8H43.92a5.71,5.71,0,0,1-5.71-5.71V60.66A5.71,5.71,0,0,1,43.92,55H237a5.71,5.71,0,0,1,5.71,5.71V332.09A5.71,5.71,0,0,1,237,337.8ZM43.92,55.2a5.46,5.46,0,0,0-5.46,5.46V332.09a5.46,5.46,0,0,0,5.46,5.46H237a5.46,5.46,0,0,0,5.46-5.46V60.66A5.46,5.46,0,0,0,237,55.2Z" transform="translate(0 -54.95)"/><path class="cls-2" d="M453.31,337.8H260.21a5.71,5.71,0,0,1-5.71-5.71V60.66A5.71,5.71,0,0,1,260.21,55h193.1A5.71,5.71,0,0,1,459,60.66V332.09A5.71,5.71,0,0,1,453.31,337.8ZM260.21,55.2a5.46,5.46,0,0,0-5.46,5.46V332.09a5.46,5.46,0,0,0,5.46,5.46h193.1a5.46,5.46,0,0,0,5.46-5.46V60.66a5.46,5.46,0,0,0-5.46-5.46Z" transform="translate(0 -54.95)"/><rect class="cls-3" x="245.41" y="242.02" width="21.99" height="87.23"/><polygon class="cls-4" points="263.22 329.26 267.4 329.26 267.4 317.38 258.84 317.38 263.22 329.26"/><rect class="cls-3" x="149.05" y="242.02" width="21.99" height="87.23"/><rect class="cls-4" x="167.4" y="242.02" width="100" height="79.94"/><path class="cls-3" d="M263.77,300.91v21.15H171V300.91h92.75m.39-.39H170.64v21.92h93.52V300.52Z" transform="translate(0 -54.95)"/><polygon class="cls-4" points="171.57 329.26 167.4 329.26 167.4 317.38 175.95 317.38 171.57 329.26"/><circle class="cls-2" cx="217.4" cy="256.53" r="2.21"/><path class="cls-3" d="M263.77,326.37v21.15H171V326.37h92.75m.39-.39H170.64v21.92h93.52V326Z" transform="translate(0 -54.95)"/><circle class="cls-2" cx="217.4" cy="282" r="2.21"/><path class="cls-3" d="M263.77,351.84V373H171V351.84h92.75m.39-.39H170.64v21.92h93.52V351.45Z" transform="translate(0 -54.95)"/><circle class="cls-2" cx="217.4" cy="307.46" r="2.21"/><rect class="cls-3" x="135.62" y="191.36" width="21.99" height="137.9"/><polygon class="cls-4" points="153.43 329.26 157.61 329.26 157.61 317.38 149.06 317.38 153.43 329.26"/><rect class="cls-3" x="53.44" y="191.36" width="21.99" height="137.9"/><rect class="cls-4" x="71.78" y="191.36" width="85.83" height="130.61"/><path class="cls-3" d="M153.91,250v29.57H75.48V250h78.44m.46-.46H75V280h79.35V249.56Z" transform="translate(0 -54.95)"/><path class="cls-3" d="M153.91,283.18v78.44H116.55V283.18h37.36m.46-.46H116.1v79.35h38.27V282.72Z" transform="translate(0 -54.95)"/><path class="cls-3" d="M112.84,283.18v78.44H75.48V283.18h37.36m.46-.46H75v79.35h38.27V282.72Z" transform="translate(0 -54.95)"/><polygon class="cls-4" points="75.96 329.26 71.78 329.26 71.78 317.38 80.34 317.38 75.96 329.26"/><circle class="cls-2" cx="114.7" cy="209.85" r="2.21"/><circle class="cls-2" cx="122.61" cy="265.57" r="2.21"/><circle class="cls-2" cx="106.78" cy="265.57" r="2.21"/><path class="cls-3" d="M102.07,207.87H92.8s1.61,8.57,1.61,13.62-7.06,24.83,3,24.83,3-19.78,3-24.83S102.07,207.87,102.07,207.87Z" transform="translate(0 -54.95)"/><path class="cls-5" d="M66.8,228.15v6a12.18,12.18,0,0,0,12.14,12.14h6a12.18,12.18,0,0,0,12.14-12.14v-6Z" transform="translate(0 -54.95)"/><path class="cls-3" d="M195.67,284.26c0,7,7.83,12.71,17.4,12.71h8.64c9.57,0,17.4-5.72,17.4-12.71Z" transform="translate(0 -54.95)"/><path class="cls-3" d="M424.61,274c-5.24,4.28-12.47,12.11-19.1,23.13-4.41,7.34-7.07,15-8.24,25.19,0-11.5.06-23.85.1-35.51,1.33-3,4.37-9.92,6.55-15.38,7.28-18.23,10-22.71,16.53-38.44,8.73-21,17.67-45.86,15.11-43.87-5.22,4.05-25.22,41.5-27.38,46.86a150.06,150.06,0,0,0-10.79,44.85c0-11,.08-21,.12-28.77.13-25.31.56-33.48.77-36,.81-1.28,1.76-2.77,2.32-3.58,4.7-6.79,6.51-12.58,10.94-22.71,6.27-14.36,11.68-39.85,10.1-38.56-6.58,5.35-11.76,16.86-18.58,31.53s-4.87,23.1-6.22,35.62c-.28,2.46-.5,11.73-.66,24.59-1.77-13.7-5.08-22.72-11.13-30.92-7.44-10.09-14.64-16.9-19.92-20.46s9.12,21.22,16,32c6.13,9.63,11.78,18.13,15,26.5-.17,17.42-.25,39.48-.25,60-1.58-9.35-4.16-19.41-7.6-27.2-4.14-9.36-10.5-23.72-15.56-28.6-1.22-1.17,5.3,26.76,9.48,34.19S389.42,303,392,307.18c.61,1,2.65,4.77,3.81,6.95,0,25.07.14,47.19.36,54.72h1.08c-.07-1.94-.09-14.7-.06-31.58,2.61-9.16,8.57-19.62,13.5-29.16C416.11,297.7,429.85,269.75,424.61,274Z" transform="translate(0 -54.95)"/><polygon class="cls-6" points="412.44 329.26 381.1 329.26 378.73 298.54 414.81 298.54 412.44 329.26"/><polygon class="cls-5" points="417.14 302.12 376.39 302.12 375.23 291.75 418.31 291.75 417.14 302.12"/><rect class="cls-3" x="68.21" y="20.54" width="56.05" height="61.55"/><rect class="cls-5" x="72.43" y="20.54" width="57.9" height="61.55"/><rect class="cls-7" x="75.46" y="82.17" width="51.85" height="48.2" transform="translate(207.65 -50.06) rotate(90)"/><rect class="cls-5" x="88.02" y="93.86" width="26.71" height="24.83" transform="translate(207.65 -50.06) rotate(90)"/><rect class="cls-3" x="357.98" y="27.72" width="52.07" height="57.18"/><rect class="cls-5" x="361.91" y="27.72" width="53.78" height="57.18"/><rect class="cls-7" x="364.72" y="88.87" width="48.16" height="44.77" transform="translate(500.06 -332.49) rotate(90)"/><circle class="cls-5" cx="388.8" cy="56.31" r="13.97"/><rect class="cls-3" x="140.91" y="57.24" width="41.58" height="45.66"/><rect class="cls-5" x="144.04" y="57.24" width="42.95" height="45.66"/><rect class="cls-7" x="146.29" y="117.15" width="38.46" height="35.75" transform="translate(300.54 -85.45) rotate(90)"/><polygon class="cls-5" points="165.52 70.35 155.74 87.29 175.3 87.29 165.52 70.35"/></g><g id="Shadow"><ellipse class="cls-5" cx="250" cy="361.29" rx="193.89" ry="11.32"/></g><g id="Character_2" data-name="Character 2"><path class="cls-8" d="M349.25,163.43l-9.92-4s-13.09,23.87-16.84,25.08c-5.1,1.64-15.65,6.2-21.92,7.05-.85,1-2.24,4.1-2.11,5.24,8.41,2.8,26.89-.92,30.85-3.86C338.32,186.22,349.25,163.43,349.25,163.43Z" transform="translate(0 -54.95)"/><path class="cls-9" d="M352.3,158c1.85,6.84-8.17,20.58-8.17,20.58L331,171.21s2.45-5.65,5.46-11.4C341.27,150.52,350.19,150.21,352.3,158Z" transform="translate(0 -54.95)"/><path class="cls-10" d="M352.3,158c1.85,6.84-8.17,20.58-8.17,20.58L331,171.21s2.45-5.65,5.46-11.4C341.27,150.52,350.19,150.21,352.3,158Z" transform="translate(0 -54.95)"/><path class="cls-10" d="M336.21,174.15l5.17,2.9.9-15.87C339.28,163.49,337.16,170.45,336.21,174.15Z" transform="translate(0 -54.95)"/><path class="cls-9" d="M343.66,152.86s-10.22,22.74-4.26,65.08h40.27c.64-6.18-1.48-36.34,6.19-65.46a102.62,102.62,0,0,0-13.38-1.7,147.85,147.85,0,0,0-17.12,0A78,78,0,0,0,343.66,152.86Z" transform="translate(0 -54.95)"/><path class="cls-10" d="M343.66,152.86s-10.22,22.74-4.26,65.08h40.27c.64-6.18-1.48-36.34,6.19-65.46a102.62,102.62,0,0,0-13.38-1.7,147.85,147.85,0,0,0-17.12,0A78,78,0,0,0,343.66,152.86Z" transform="translate(0 -54.95)"/><path class="cls-11" d="M334.32,417.14c-.06,1.07,15.21,1.94,34.1,1.94s34.27-.87,34.33-1.94-15.2-1.94-34.1-1.94S334.39,416.07,334.32,417.14Z" transform="translate(0 -54.95)"/><rect class="cls-8" x="357.82" y="390.96" width="7.68" height="17.09" transform="matrix(0.93, -0.36, 0.36, 0.93, -119.46, 101.8)"/><polygon class="cls-8" points="393.05 354.5 385.52 354.5 382.76 337.07 390.29 337.07 393.05 354.5"/><path class="cls-12" d="M385,408.58h8.46a.61.61,0,0,1,.61.51l1.09,6.69a1.18,1.18,0,0,1-1.18,1.34c-3-.05-4.37-.22-8.09-.22-2.29,0-7,.24-10.18.24s-3.39-3.12-2.08-3.41c5.88-1.27,8.16-3,10.12-4.69A1.93,1.93,0,0,1,385,408.58Z" transform="translate(0 -54.95)"/><path class="cls-12" d="M360,405.95l8-2.33a.62.62,0,0,1,.74.31l3,6a1.15,1.15,0,0,1-.75,1.59c-2.9.79-4.86,1.29-8.5,2.35-2.51.73-5.07,1.92-7.55,2.71-1.72.55-5.76.57-7.85.57-3.09,0-3.78-3.26-2.46-3.41,3.35-.38,3.8-.2,5.65-1.13a25.86,25.86,0,0,0,8.08-5.58A3.77,3.77,0,0,1,360,405.95Z" transform="translate(0 -54.95)"/><path class="cls-8" d="M301.83,191.47,293.55,188l-3.41,9.18a34.11,34.11,0,0,0,10.24,0Z" transform="translate(0 -54.95)"/><polygon class="cls-8" points="287.39 132.81 287.17 138.91 290.14 142.21 293.55 133.03 287.39 132.81"/><rect class="cls-13" x="356.33" y="391.24" width="7.68" height="8.81" transform="translate(-118.31 101.28) rotate(-21.11)"/><polygon class="cls-13" points="390.29 337.07 382.76 337.07 384.19 346.06 391.72 346.06 390.29 337.07"/><path class="cls-10" d="M338.12,206.49c.14,1.81.32,3.66.53,5.56l29.94-9.72A21.46,21.46,0,0,0,380.12,194c.11-2.67.27-5.48.49-8.41.1-1.43.23-2.89.36-4.37s.31-3.11.49-4.7Z" transform="translate(0 -54.95)"/><path class="cls-7" d="M347.9,173.69l-1-.12c.59-5,4.32-8.93,8.25-8.84l0,1C351.71,165.66,348.43,169.21,347.9,173.69Z" transform="translate(0 -54.95)"/><path class="cls-7" d="M353.23,182.92h-.17l0-1c3.44.13,6.67-3.46,7.2-7.93l1,.12C360.73,179,357.12,182.92,353.23,182.92Z" transform="translate(0 -54.95)"/><path class="cls-8" d="M371.92,131.5c-1.4,5.51-3.07,15.6.57,19.28,0,0-2.54,5.59-12.78,5.59-9.35,0-4.34-5.59-4.34-5.59,6.23-1.47,6.34-6,5.52-10.3Z" transform="translate(0 -54.95)"/><path class="cls-13" d="M367.42,135.16l-6.53,5.31a17.19,17.19,0,0,1,.35,3c1.91,1.9,5.74-2.91,6.13-5.37A8.22,8.22,0,0,0,367.42,135.16Z" transform="translate(0 -54.95)"/><path class="cls-13" d="M349.66,131.43a6.57,6.57,0,0,0,4.24,3.14c2.4.53,3.61-1.67,2.95-3.9-.6-2-2.56-4.69-5-4.23A3.33,3.33,0,0,0,349.66,131.43Z" transform="translate(0 -54.95)"/><path class="cls-12" d="M353.63,113.8c-3.74,1.71-5.06,16.57-.36,18.77S360.71,110.55,353.63,113.8Z" transform="translate(0 -54.95)"/><path class="cls-8" d="M373.06,123.21c-.9,7.46-1,11.85-5,15.67a9.61,9.61,0,0,1-16.35-5.1c-1.21-6.7.46-17.77,7.93-20.74A9.63,9.63,0,0,1,373.06,123.21Z" transform="translate(0 -54.95)"/><path class="cls-12" d="M360.77,117.66c5.53-1.42,9.6-2.38,8.15,2.24-1.94,6.15-4.26,12.11-1.14,12.39,1.89.17,10.3-3.4,9.23-7-.93-3.14,3-4,3.7-5.59,2.59-5.77-4.82-5-3.5-8.51s-6-9.14-10-6.33c-6.51,4.54-17.68,4.48-11.81-3,4.21-5.33-3.3-4.24-3.3-4.24s4.54,2.69-3.1,6.85C340.92,108.92,348.33,120.85,360.77,117.66Z" transform="translate(0 -54.95)"/><path class="cls-8" d="M375.95,131.43a7.68,7.68,0,0,1-4.61,3.14c-2.46.53-3.41-1.67-2.49-3.9.83-2,3.11-4.69,5.47-4.23S377.27,129.47,375.95,131.43Z" transform="translate(0 -54.95)"/><path class="cls-9" d="M339.4,217.94s-6.76,60.5-7.29,83.46c-.55,23.88,22.91,98.39,22.91,98.39l12-5s-14-68.07-12-91.53c2.12-25.57,10.88-85.28,10.88-85.28Z" transform="translate(0 -54.95)"/><path class="cls-10" d="M356.2,234.55c-5.38,11.18-1.76,33.28,1.16,46.39,1.11-9.25,2.43-19.29,3.68-28.58C360.92,238.08,359.81,227,356.2,234.55Z" transform="translate(0 -54.95)"/><path class="cls-9" d="M366.49,390.83c.06,0,1.42,3.83,1.42,3.83l-13.84,5.81-2.18-4.06Z" transform="translate(0 -54.95)"/><path class="cls-9" d="M353.69,217.94s5.17,57.54,8.6,79.09c3.75,23.61,18.5,102.24,18.5,102.24h13.79s-8.26-76.72-9.82-100.1c-1.69-25.37-5.07-81.23-5.07-81.23Z" transform="translate(0 -54.95)"/><path class="cls-9" d="M394.78,395.68c.06,0,.46,3.85.46,3.85H380.08L379,395.11Z" transform="translate(0 -54.95)"/><path class="cls-10" d="M389.5,391.12a.13.13,0,0,1-.13-.11c-.08-.7-7.53-70-8.93-91-1.52-22.79-4.58-73.31-4.61-73.82a.13.13,0,0,1,.12-.14h0a.13.13,0,0,1,.13.12c0,.51,3.09,51,4.61,73.82,1.4,21,8.85,90.26,8.93,91a.13.13,0,0,1-.11.14Z" transform="translate(0 -54.95)"/><path class="cls-12" d="M361.62,125.29c0,.61-.39,1.1-.78,1.1s-.69-.49-.65-1.1.39-1.1.78-1.1S361.66,124.69,361.62,125.29Z" transform="translate(0 -54.95)"/><path class="cls-12" d="M354.76,125.29c0,.61-.39,1.1-.78,1.1s-.69-.49-.65-1.1.39-1.1.78-1.1S354.8,124.69,354.76,125.29Z" transform="translate(0 -54.95)"/><path class="cls-14" d="M356.92,125.6a23.44,23.44,0,0,1-3.21,5.19,3.42,3.42,0,0,0,2.87.54Z" transform="translate(0 -54.95)"/><path class="cls-12" d="M357.1,133.88a.17.17,0,0,1-.17-.18.19.19,0,0,1,.19-.18,5.15,5.15,0,0,0,4-1.88.18.18,0,0,1,.25-.05.17.17,0,0,1,0,.25A5.45,5.45,0,0,1,357.1,133.88Z" transform="translate(0 -54.95)"/><path class="cls-12" d="M362.84,123.45a.35.35,0,0,1-.31,0,2.82,2.82,0,0,0-2.55-.27.34.34,0,0,1-.47-.17.37.37,0,0,1,.2-.48,3.51,3.51,0,0,1,3.22.3.35.35,0,0,1,.09.49A.39.39,0,0,1,362.84,123.45Z" transform="translate(0 -54.95)"/><path class="cls-12" d="M352.11,121.45a.32.32,0,0,1-.14-.08.35.35,0,0,1,0-.5,3.72,3.72,0,0,1,3.08-1.24.33.33,0,0,1,.28.41.38.38,0,0,1-.42.3h0a3,3,0,0,0-2.43,1A.37.37,0,0,1,352.11,121.45Z" transform="translate(0 -54.95)"/><path class="cls-8" d="M389.73,162.32l-10.4-2.77s-10.2,25.11-13.8,26.75c-4.9,2.23-17.32,9.95-22.59,13.67-.29,1.24-.06,4.56.6,5.46,9-1.63,26.23-8.27,29.83-11.64C381.57,186.1,389.73,162.32,389.73,162.32Z" transform="translate(0 -54.95)"/><path class="cls-9" d="M382.47,409.9a2.19,2.19,0,0,1-1.43-.38,1,1,0,0,1-.31-.94.61.61,0,0,1,.33-.5c.85-.43,3.2,1.06,3.46,1.24a.17.17,0,0,1,.07.18.19.19,0,0,1-.14.14A9.05,9.05,0,0,1,382.47,409.9Zm-1-1.56a.53.53,0,0,0-.23,0,.23.23,0,0,0-.12.21.69.69,0,0,0,.2.65c.39.35,1.37.39,2.66.14A6.78,6.78,0,0,0,381.44,408.34Z" transform="translate(0 -54.95)"/><path class="cls-9" d="M384.41,409.63l-.08,0c-.75-.42-2.16-2.07-2-2.91a.63.63,0,0,1,.6-.47.93.93,0,0,1,.75.23c.83.71.89,2.89.89,3a.19.19,0,0,1-.09.16A.18.18,0,0,1,384.41,409.63Zm-1.34-3.05H383c-.23,0-.26.14-.27.18-.12.5.76,1.74,1.5,2.33a4.07,4.07,0,0,0-.75-2.36A.6.6,0,0,0,383.07,406.58Z" transform="translate(0 -54.95)"/><path class="cls-9" d="M355.92,408.65a2.84,2.84,0,0,1-1.89,0,.93.93,0,0,1-.49-.76.59.59,0,0,1,.2-.53c.81-.72,4.07.05,4.44.14a.17.17,0,0,1,.13.16.19.19,0,0,1-.11.18A13.56,13.56,0,0,1,355.92,408.65Zm-1.63-1.19a.75.75,0,0,0-.32.14.22.22,0,0,0-.08.21.61.61,0,0,0,.32.51c.53.29,1.76.06,3.35-.6A9.71,9.71,0,0,0,354.29,407.46Z" transform="translate(0 -54.95)"/><path class="cls-9" d="M358.17,407.84h-.07c-1-.18-3-1.33-3.06-2.19,0-.2.09-.48.56-.64a1.27,1.27,0,0,1,1,.06c1.09.54,1.65,2.46,1.68,2.54a.19.19,0,0,1,0,.17A.19.19,0,0,1,358.17,407.84Zm-2.36-2.53-.1,0c-.31.11-.31.24-.31.28,0,.52,1.45,1.47,2.46,1.79a3.86,3.86,0,0,0-1.4-2A.93.93,0,0,0,355.8,405.31Z" transform="translate(0 -54.95)"/><path class="cls-8" d="M343.78,199.37l-10.43,4.8-1.21,2.94,3.85,2.59s7.19-.78,9.24-5.4Z" transform="translate(0 -54.95)"/><path class="cls-12" d="M344.22,205.6a14.39,14.39,0,0,0-1.94-5.66l1.64-1.23a15.84,15.84,0,0,1,2.32,6.55Z" transform="translate(0 -54.95)"/><ellipse class="cls-12" cx="344.17" cy="201.53" rx="1.97" ry="1.63" transform="translate(-50.44 88.71) rotate(-22.01)"/><polygon class="cls-8" points="326.3 153.1 327.69 154.5 337.05 150.5 333.35 149.22 326.3 153.1"/><path class="cls-10" d="M366.49,390.83c.06,0,1.42,3.83,1.42,3.83l-13.84,5.81-2.18-4.06Z" transform="translate(0 -54.95)"/><path class="cls-10" d="M394.78,395.68c.06,0,.46,3.85.46,3.85H380.08L379,395.11Z" transform="translate(0 -54.95)"/><path class="cls-9" d="M392.44,159.44c2.75,8.87-8,21-8,21l-14.85-6.06a152.41,152.41,0,0,1,6.07-15.07C380.23,149.48,389.66,150.49,392.44,159.44Z" transform="translate(0 -54.95)"/><path class="cls-10" d="M392.44,159.44c2.75,8.87-8,21-8,21l-14.85-6.06a152.41,152.41,0,0,1,6.07-15.07C380.23,149.48,389.66,150.49,392.44,159.44Z" transform="translate(0 -54.95)"/></g><g id="Screen"><rect class="cls-9" x="238.49" y="15.62" width="6.39" height="1.03"/><rect class="cls-9" x="319.14" y="119.42" width="17.18" height="1.03" transform="translate(193.16 386.98) rotate(-87.42)"/><polygon class="cls-9" points="325.61 20.24 207.61 20.24 196.63 265.96 314.63 265.96 325.61 20.24"/><polygon class="cls-15" points="322.09 23.61 204.09 23.61 193.11 269.33 311.11 269.33 322.09 23.61"/><polygon class="cls-16" points="318.57 26.98 200.57 26.98 189.58 272.7 307.58 272.7 318.57 26.98"/><polygon class="cls-7" points="305.14 134.15 204.42 134.15 203.58 152.96 304.3 152.96 305.14 134.15"/><polygon class="cls-9" points="259.81 120.44 205.03 120.44 204.66 128.85 259.44 128.85 259.81 120.44"/><polygon class="cls-7" points="302.87 184.9 202.15 184.9 201.31 203.7 302.03 203.7 302.87 184.9"/><polygon class="cls-17" points="284.4 229.08 216.67 229.08 215.66 251.62 283.39 251.62 284.4 229.08"/><path class="cls-7" d="M279.87,310.07H212.14a.12.12,0,0,1-.09,0,.12.12,0,0,1,0-.09l1-22.54a.12.12,0,0,1,.12-.11h67.73a.12.12,0,0,1,.09,0,.12.12,0,0,1,0,.09L280,310A.12.12,0,0,1,279.87,310.07Zm-67.6-.24h67.49l1-22.3H213.26Z" transform="translate(0 -54.95)"/><polygon class="cls-9" points="247.98 171.18 202.76 171.18 202.39 179.59 247.6 179.59 247.98 171.18"/><path class="cls-7" d="M283.11,128.38a26.48,26.48,0,0,1-5.56,15.05A26.9,26.9,0,0,1,256.34,154a24.3,24.3,0,0,1-24.46-25.62,27,27,0,0,1,26.75-25.62A24.28,24.28,0,0,1,283.11,128.38Z" transform="translate(0 -54.95)"/><path class="cls-9" d="M285.52,108.12a7,7,0,0,1-1.48,4,7.15,7.15,0,0,1-5.63,2.81,6.46,6.46,0,0,1-6.5-6.81,7.19,7.19,0,0,1,7.11-6.81A6.45,6.45,0,0,1,285.52,108.12Z" transform="translate(0 -54.95)"/><path class="cls-12" d="M215.27,198.51a3.18,3.18,0,0,1-3.15,3,2.86,2.86,0,0,1-2.88-3,3.18,3.18,0,0,1,3.15-3A2.86,2.86,0,0,1,215.27,198.51Z" transform="translate(0 -54.95)"/><path class="cls-12" d="M228.75,198.51a3.18,3.18,0,0,1-3.15,3,2.86,2.86,0,0,1-2.88-3,3.18,3.18,0,0,1,3.15-3A2.86,2.86,0,0,1,228.75,198.51Z" transform="translate(0 -54.95)"/><path class="cls-12" d="M242.24,198.51a3.18,3.18,0,0,1-3.15,3,2.86,2.86,0,0,1-2.88-3,3.18,3.18,0,0,1,3.15-3A2.86,2.86,0,0,1,242.24,198.51Z" transform="translate(0 -54.95)"/><path class="cls-12" d="M213,249.25a3.18,3.18,0,0,1-3.15,3,2.86,2.86,0,0,1-2.88-3,3.18,3.18,0,0,1,3.15-3A2.86,2.86,0,0,1,213,249.25Z" transform="translate(0 -54.95)"/><path class="cls-12" d="M226.48,249.25a3.18,3.18,0,0,1-3.15,3,2.86,2.86,0,0,1-2.88-3,3.18,3.18,0,0,1,3.15-3A2.86,2.86,0,0,1,226.48,249.25Z" transform="translate(0 -54.95)"/><path class="cls-12" d="M240,249.25a3.18,3.18,0,0,1-3.15,3,2.86,2.86,0,0,1-2.88-3,3.18,3.18,0,0,1,3.15-3A2.86,2.86,0,0,1,240,249.25Z" transform="translate(0 -54.95)"/><path class="cls-12" d="M253.46,249.25a3.18,3.18,0,0,1-3.15,3,2.86,2.86,0,0,1-2.88-3,3.18,3.18,0,0,1,3.15-3A2.86,2.86,0,0,1,253.46,249.25Z" transform="translate(0 -54.95)"/><path class="cls-12" d="M266.95,249.25a3.18,3.18,0,0,1-3.15,3,2.86,2.86,0,0,1-2.88-3,3.18,3.18,0,0,1,3.15-3A2.86,2.86,0,0,1,266.95,249.25Z" transform="translate(0 -54.95)"/><path class="cls-9" d="M268.24,119.82a10.94,10.94,0,0,1-10.82,10.36,9.82,9.82,0,0,1-9.9-10.36,10.94,10.94,0,0,1,10.82-10.36A9.82,9.82,0,0,1,268.24,119.82Z" transform="translate(0 -54.95)"/><path class="cls-9" d="M277.54,143.43A26.9,26.9,0,0,1,256.34,154a24.3,24.3,0,0,1-20.24-10.56c4.86-4.84,12.55-8,21.07-8S273.11,138.59,277.54,143.43Z" transform="translate(0 -54.95)"/><path class="cls-18" d="M268.24,119.82a10.94,10.94,0,0,1-10.82,10.36,9.82,9.82,0,0,1-9.9-10.36,10.94,10.94,0,0,1,10.82-10.36A9.82,9.82,0,0,1,268.24,119.82Z" transform="translate(0 -54.95)"/><path class="cls-18" d="M277.54,143.43A26.9,26.9,0,0,1,256.34,154a24.3,24.3,0,0,1-20.24-10.56c4.86-4.84,12.55-8,21.07-8S273.11,138.59,277.54,143.43Z" transform="translate(0 -54.95)"/></g><g id="Character_1" data-name="Character 1"><path class="cls-8" d="M130.41,212.44c-.95,2.08-1.94,4.36-2.82,6.59s-1.76,4.5-2.53,6.79a85.8,85.8,0,0,0-3.57,13.8l-.23,1.47a2.26,2.26,0,0,0,.07.75,7.66,7.66,0,0,0,1.1,2.32,29.11,29.11,0,0,0,4.44,5,67.79,67.79,0,0,0,5.52,4.62c1.92,1.48,3.94,2.92,5.92,4.27l-1.86,3.51A70.91,70.91,0,0,1,123,253.85a32.21,32.21,0,0,1-6-5.68,14.18,14.18,0,0,1-2.39-4.27,9.57,9.57,0,0,1-.48-2.94c0-.25,0-.59,0-.76l0-.5.1-1a77.8,77.8,0,0,1,3.27-15.34c.78-2.47,1.61-4.91,2.56-7.31s1.93-4.73,3.14-7.16Z" transform="translate(0 -54.95)"/><path class="cls-8" d="M136.91,257.43l7.07-3.58-1.83,7.77s-4.85,1.36-7.11-1Z" transform="translate(0 -54.95)"/><polygon class="cls-8" points="150.45 200.17 148.57 206.59 142.15 206.66 143.98 198.9 150.45 200.17"/><path class="cls-14" d="M160.43,175a19.89,19.89,0,0,0,1.58,4,1.62,1.62,0,0,1-1.58.51Z" transform="translate(0 -54.95)"/><ellipse class="cls-12" cx="160.22" cy="118.96" rx="0.75" ry="1.15"/><path class="cls-12" d="M160,172.8l1.52-.44S160.78,173.55,160,172.8Z" transform="translate(0 -54.95)"/><path class="cls-8" d="M140.9,182.34c.91,4.66,1.82,13.19-1.43,16.29,0,0,1.27,4.72,9.92,4.72,9.51,0,4.55-4.72,4.55-4.72-5.19-1.24-5.06-5.09-4.15-8.71Z" transform="translate(0 -54.95)"/><path class="cls-8" d="M138.37,171.74c.48,7.77.51,11.07,4.44,15.06,5.9,6,15.35,3.71,17.2-4,1.67-7,.61-18.52-7-21.61A10.62,10.62,0,0,0,138.37,171.74Z" transform="translate(0 -54.95)"/><path class="cls-12" d="M139.14,162.95c-3.9,1.42-9.1.36-7.06,12.39,2.16,12.74-1.16,16.93-1.16,16.93s14.79,3.15,29.89-.19c0,0-4.61-8.06-3.32-13.94,1.65-7.5.34-10.28.34-10.28S144.62,161,139.14,162.95Z" transform="translate(0 -54.95)"/><path class="cls-8" d="M155.64,175.79a7.83,7.83,0,0,0,1.22,4.17c1.05,1.62,2.3,1,2.62-.72.28-1.51.07-4.18-1.28-5.22S155.66,174,155.64,175.79Z" transform="translate(0 -54.95)"/><path class="cls-12" d="M135.75,164.31c-1.12-3.14,4.22-8,15.52-6s11.79,11.41,11.79,11.41L160.78,167l.1,2.86-11.61,2.23Z" transform="translate(0 -54.95)"/><path class="cls-9" d="M136.71,199.16h0a1.76,1.76,0,0,1,1.45-2c3.52-.58,11.51-1.76,15.54-1.2,3,.41,3.78,2.16,3.91,3.59a1.76,1.76,0,0,1-1.84,1.9l-17.39-.79A1.77,1.77,0,0,1,136.71,199.16Z" transform="translate(0 -54.95)"/><path class="cls-19" d="M136.71,199.16h0a1.76,1.76,0,0,1,1.45-2c3.52-.58,11.51-1.76,15.54-1.2,3,.41,3.78,2.16,3.91,3.59a1.76,1.76,0,0,1-1.84,1.9l-17.39-.79A1.77,1.77,0,0,1,136.71,199.16Z" transform="translate(0 -54.95)"/><polygon class="cls-8" points="146.76 318.91 153.21 323.38 164 308.76 157.55 304.28 146.76 318.91"/><polygon class="cls-8" points="131.72 318.61 138.53 322.5 148.08 307.03 141.27 303.14 131.72 318.61"/><polygon class="cls-13" points="163.99 308.76 158.43 316.3 151.98 311.82 157.54 304.29 163.99 308.76"/><polygon class="cls-13" points="141.26 303.15 148.08 307.03 143.16 315 136.34 311.12 141.26 303.15"/><path class="cls-9" d="M152.2,248s25.18,31.74,20.46,62.08c-3.82,24.51-25.91,57.7-25.91,57.7l-10.39-5.16a339.36,339.36,0,0,0,18.7-45.44,33.59,33.59,0,0,0-4-29.1c-12.76-18.63-33.19-7.55-19.44-40.08Z" transform="translate(0 -54.95)"/><path class="cls-19" d="M152.2,248s25.18,31.74,20.46,62.08c-3.82,24.51-25.91,57.7-25.91,57.7l-10.39-5.16a339.36,339.36,0,0,0,18.7-45.44,33.59,33.59,0,0,0-4-29.1c-12.76-18.63-33.19-7.55-19.44-40.08Z" transform="translate(0 -54.95)"/><path class="cls-20" d="M164.55,268.38l-3.66-3.64c0,.29,7.09,44.05,9.08,56.35a75,75,0,0,0,2.68-11C175,295.21,170.11,280,164.55,268.38Z" transform="translate(0 -54.95)"/><path class="cls-9" d="M163.44,248s30.32,39.88,31.17,63.8c.71,20-33,58.75-33,58.75l-9.8-6.34s19.73-27.52,24.7-50C174.6,291.92,133.95,248,133.95,248Z" transform="translate(0 -54.95)"/><path class="cls-19" d="M163.44,248s30.32,39.88,31.17,63.8c.71,20-33,58.75-33,58.75l-9.8-6.34s19.73-27.52,24.7-50C174.6,291.92,133.95,248,133.95,248Z" transform="translate(0 -54.95)"/><path class="cls-9" d="M125.93,200.41c-3.25.77-6.35,12.55-6.35,12.55l12.66,8.45s4.22-9.32,2.75-13.4C133.46,203.77,130,199.44,125.93,200.41Z" transform="translate(0 -54.95)"/><path class="cls-10" d="M128.41,208l-.88,10.27,4.71,3.16a42.17,42.17,0,0,0,2.87-9.14Z" transform="translate(0 -54.95)"/><path class="cls-9" d="M167.19,200.64s3.74,1.32-3.75,47.35H131.58c.53-13,.55-21-5.65-47.58a94,94,0,0,1,13.53-1.78,101.36,101.36,0,0,1,14.47,0C160.15,199.2,167.19,200.64,167.19,200.64Z" transform="translate(0 -54.95)"/><path class="cls-8" d="M170.43,207.95c.72,2,1.49,4.15,2.28,6.23s1.56,4.2,2.37,6.29l2.45,6.28.62,1.57.31.78.16.39c0,.07,0,.06,0,.06a2.2,2.2,0,0,0-.7-.62,2.78,2.78,0,0,0-1.31-.38,2.58,2.58,0,0,0-1.11.2c-.45.22-.46.31-.45.29a1.31,1.31,0,0,0,.22-.23,14.27,14.27,0,0,0,1.43-2.33c.47-.92.92-1.9,1.37-2.89.88-2,1.69-4.07,2.51-6.16s1.57-4.21,2.33-6.34l2.28-6.38,3.85,1c-.76,4.56-1.75,9-2.92,13.52-.57,2.25-1.24,4.48-2,6.73-.38,1.13-.8,2.25-1.29,3.4a20.87,20.87,0,0,1-1.9,3.62,8.9,8.9,0,0,1-.87,1.08,5.57,5.57,0,0,1-1.82,1.29,4.5,4.5,0,0,1-1.94.36,4.45,4.45,0,0,1-2.11-.64,5.3,5.3,0,0,1-1.82-1.89c-.15-.25-.28-.52-.37-.7l-.19-.39-.38-.78-.76-1.55c-1-2.08-2-4.17-2.87-6.29s-1.79-4.25-2.65-6.4-1.63-4.29-2.36-6.61Z" transform="translate(0 -54.95)"/><path class="cls-9" d="M167.19,200.64c3.83.91,8.13,12.23,8.13,12.23l-11.38,9.7s-7.38-12.34-5.88-16.41C159.61,201.91,162.19,199.45,167.19,200.64Z" transform="translate(0 -54.95)"/><path class="cls-8" d="M187,201.19l4-3.34,2.78,4.33-2,3.62s-3.26,3-6.15,1.47h0A5.19,5.19,0,0,1,187,201.19Z" transform="translate(0 -54.95)"/><polygon class="cls-8" points="198.22 142.91 197.92 143.99 191.59 145.06 190.97 142.9 198.22 142.91"/><polygon class="cls-9" points="162.4 316.1 150.98 308.71 153.03 305.16 165.86 313.05 162.4 316.1"/><path class="cls-12" d="M143,376.93a6.85,6.85,0,0,1-2.83-1,.18.18,0,0,1-.09-.18.19.19,0,0,1,.13-.16c.31-.1,3-.93,3.78-.28a.63.63,0,0,1,.21.6,1.05,1.05,0,0,1-.56.87A1.43,1.43,0,0,1,143,376.93Zm-2.25-1.09c1.24.63,2.24.87,2.72.63a.7.7,0,0,0,.36-.58.26.26,0,0,0-.09-.27C143.33,375.27,141.83,375.53,140.73,375.83Z" transform="translate(0 -54.95)"/><path class="cls-12" d="M140.25,376a.19.19,0,0,1-.18-.24c0-.09.65-2.26,1.68-2.76a1,1,0,0,1,.82,0,.65.65,0,0,1,.46.67c-.07.9-1.9,2.14-2.74,2.35Zm1.94-2.73a.64.64,0,0,0-.28.07c-.61.3-1.13,1.47-1.37,2.18.88-.37,2.08-1.35,2.12-1.9,0-.09,0-.2-.23-.3A.61.61,0,0,0,142.19,373.24Z" transform="translate(0 -54.95)"/><path class="cls-12" d="M157.27,381.25c-1.13,0-2.7-1.45-3.56-2.34a.19.19,0,0,1,0-.21.2.2,0,0,1,.19-.1c.4.05,3.87.52,4.37,1.5a.6.6,0,0,1,0,.59,1,1,0,0,1-.79.55Zm-2.9-2.2c1.26,1.23,2.37,1.91,3,1.82a.67.67,0,0,0,.51-.37.23.23,0,0,0,0-.23C157.63,379.73,155.78,379.27,154.37,379Z" transform="translate(0 -54.95)"/><path class="cls-12" d="M154.48,379a3.76,3.76,0,0,1-.67-.05.19.19,0,0,1-.11-.3c.06-.07,1.41-1.7,2.69-1.81a1.35,1.35,0,0,1,1,.32c.39.34.37.64.27.83C157.38,378.67,155.65,379,154.48,379Zm-.26-.38c1.12.06,2.9-.31,3.14-.8,0,0,.08-.16-.18-.39a1,1,0,0,0-.75-.24A4.3,4.3,0,0,0,154.22,378.64Z" transform="translate(0 -54.95)"/><path class="cls-9" d="M140.52,374.92l-8.48-2.4a.62.62,0,0,0-.75.35l-2.86,6.44a1.26,1.26,0,0,0,.83,1.68c3,.79,4.45,1,8.18,2.07,2.29.65,5.58,1.83,8.75,2.73s4.22-2.19,3-2.85c-5.56-2.94-6-5-7.52-7.2A2,2,0,0,0,140.52,374.92Z" transform="translate(0 -54.95)"/><path class="cls-9" d="M153.94,377.74l-7.24-5a.62.62,0,0,0-.82.08l-4.8,5.16a1.26,1.26,0,0,0,.24,1.86c2.55,1.71,3.87,2.41,7.06,4.62,2,1.36,5.87,4.38,8.57,6.25s4.71-.7,3.75-1.72c-4.3-4.59-5.24-7.47-6-10.08A2,2,0,0,0,153.94,377.74Z" transform="translate(0 -54.95)"/><polygon class="cls-9" points="148.07 313.48 135.02 306.99 136.37 303.46 150.31 310.29 148.07 313.48"/><path class="cls-9" d="M131.1,246.12,130,249c-.11.22.15.45.52.45H163.6c.29,0,.53-.14.54-.32l.29-2.85c0-.2-.23-.36-.54-.36H131.62A.58.58,0,0,0,131.1,246.12Z" transform="translate(0 -54.95)"/><path class="cls-21" d="M131.1,246.12,130,249c-.11.22.15.45.52.45H163.6c.29,0,.53-.14.54-.32l.29-2.85c0-.2-.23-.36-.54-.36H131.62A.58.58,0,0,0,131.1,246.12Z" transform="translate(0 -54.95)"/><path class="cls-9" d="M136.31,249.73h-.86c-.17,0-.3-.09-.29-.2l.41-3.71c0-.11.16-.2.33-.2h.86c.17,0,.3.09.29.2l-.41,3.71C136.63,249.64,136.48,249.73,136.31,249.73Z" transform="translate(0 -54.95)"/><path class="cls-9" d="M156.71,249.73h-.86c-.17,0-.3-.09-.29-.2l.41-3.71c0-.11.16-.2.33-.2h.86c.17,0,.3.09.29.2l-.41,3.71C157,249.64,156.89,249.73,156.71,249.73Z" transform="translate(0 -54.95)"/><path class="cls-22" d="M108.76,417.14c0,1.07,11.91,1.94,26.7,1.95s26.83-.87,26.88-1.94-11.91-1.94-26.7-1.95S108.8,416.07,108.76,417.14Z" transform="translate(0 -54.95)"/><path class="cls-3" d="M151.87,414.4c-4.74-1.38-10-3.15-13.18-5l-.28-.14V387.8h9.53a2.85,2.85,0,1,0,0-5.71h-9.53V284.27H132.7v97.82h-9.53a2.85,2.85,0,0,0,0,5.71h9.53v21.43l-.28.14c-3.23,1.89-8.44,3.66-13.18,5a1.4,1.4,0,0,0,.39,2.74h31.85A1.4,1.4,0,0,0,151.87,414.4Z" transform="translate(0 -54.95)"/><rect class="cls-9" x="112.6" y="219.36" width="45.92" height="20.93" rx="5.18" ry="5.18"/><path class="cls-9" d="M117.45,295.25v1.82c0,1.5,1.63,2.73,3.63,2.73h29c2,0,3.63-1.23,3.63-2.73v-1.82Z" transform="translate(0 -54.95)"/><path class="cls-23" d="M117.45,295.25v1.82c0,1.5,1.63,2.73,3.63,2.73h29c2,0,3.63-1.23,3.63-2.73v-1.82Z" transform="translate(0 -54.95)"/></g></g></svg>