<svg xmlns="http://www.w3.org/2000/svg" viewBox="0 0 355.85 369.71"><defs><style>.cls-1{fill:#2e318f;}</style></defs><title>userAvatar</title><g id="object"><path class="cls-1" d="M577.74,537c-3.8-31.51-24.08-126.55-130.77-141-1.64-.22-4.85-.61-5.08,2.48-1.52,20.88-14.65,76.13-23.66,111.81-.38,1.5-1.31,2.06-1.49-.07l-6.31-74.58c9.51-1.66,16.39-6.5,16.39-12.22,0-7.09-10.58-12.84-23.64-12.84h-6.42c-13.06,0-23.64,5.75-23.64,12.84,0,5.72,6.88,10.56,16.39,12.22,0,0-6.12,71.09-6.26,74s-1.25,1.85-1.68.17c-8.9-34.88-22.53-88-23.41-109.83-.16-4.09-3.14-4.21-4.58-4C246.71,410,226.14,504.76,222.23,536.65c-.8,6.55,1.48,12.51,6.75,15.67,17.18,10.27,65,32.15,161.06,32.15,1.9.88,19.85,0,19.85,0,100.36,0,148.09-23.89,163.19-33.46C576.87,548.6,578.51,543.33,577.74,537Z" transform="translate(-222.08 -215.15)"/><path class="cls-1" d="M324.86,319.45c7.77,19.45,33.41,75.62,70.38,75.62h9.53c37,0,62.61-56.17,70.37-75.62a2.07,2.07,0,0,0,.41-.64c1.36-3.23,16.89-43.4-2.33-73.74a32.9,32.9,0,0,0-4.09-5.27c-1.47-8.68-10.79-24.65-68.86-24.65h-.54c-58.07,0-67.39,16-68.86,24.65a33,33,0,0,0-4.09,5.27c-19.22,30.35-3.68,70.51-2.33,73.74A2,2,0,0,0,324.86,319.45Zm15.06-26c-.05-12.29-2.34-24.64-1.65-26.44,8.08,11.72,24.52,23.45,57.82,23.45,1.33,0,2.63,0,3.9-.07s2.57.07,3.9.07c33.3,0,49.74-11.73,57.82-23.45.69,1.8-1.65,4.84-1.65,22.35a132.55,132.55,0,0,0,3.57,30.88c-8.89,20.76-30.89,64.32-58.88,64.32h-9.53c-28,0-50-43.56-58.88-64.32C336.36,320.24,340,305.74,339.93,293.45Z" transform="translate(-222.08 -215.15)"/></g></svg>